<svg width="216" height="206" viewBox="0 0 216 206" fill="none" xmlns="http://www.w3.org/2000/svg">
<path d="M179.546 205.591C166.818 200.554 160.977 186.979 158.393 174.143C157.959 172.002 157.195 169.816 157.765 167.714C158.334 165.611 160.388 163.776 162.505 164.219C164.258 164.589 165.382 166.258 166.628 167.568C168.283 169.31 170.429 170.566 172.741 171.145C174.26 171.525 176.037 171.559 177.2 170.503C178.791 169.057 178.407 166.472 177.896 164.36C176.937 160.427 175.978 156.494 175.019 152.562C174.503 150.449 173.987 148.293 174.168 146.132C174.348 143.971 175.36 141.761 177.234 140.724C179.113 139.683 181.873 140.252 182.788 142.223C183.167 143.041 183.206 143.976 183.474 144.842C183.742 145.704 184.379 146.58 185.27 146.628C186.17 146.677 186.876 145.874 187.363 145.11C189.037 142.457 189.865 139.357 190.6 136.295C191.335 133.233 192.011 130.114 193.442 127.32C194.868 124.521 197.171 122.029 200.154 121.138C203.143 120.247 206.808 121.352 208.278 124.141C209.753 126.94 208.73 130.376 207.411 133.233C205.455 137.478 202.885 141.43 199.809 144.925C199.254 145.558 198.655 146.239 198.587 147.081C198.46 148.6 200.13 149.68 201.629 149.816C203.328 149.967 204.997 149.398 206.691 149.203C208.385 149.009 210.342 149.31 211.334 150.717C212.712 152.674 211.442 155.365 210.015 157.268C207.158 161.084 203.654 164.394 199.692 167.008C198.271 167.947 196.752 168.833 195.759 170.22C194.766 171.612 194.459 173.691 195.569 175C196.679 176.309 198.738 176.324 200.295 175.638C201.853 174.951 203.099 173.72 204.51 172.766C207.153 170.98 210.955 170.293 213.408 172.362C215.024 173.72 215.676 175.993 215.52 178.105C215.369 180.218 214.518 182.209 213.554 184.087C210.196 190.653 205.28 196.465 199.093 200.398C192.916 204.34 186.823 206.453 179.546 205.591Z" fill="white" fill-opacity="0.750601"/>
<path d="M180.938 196.83C181.289 189.962 182.296 182.462 183.62 174.659C183.956 172.707 184.292 170.785 184.623 168.882C184.954 166.988 185.285 165.11 185.723 163.289C186.58 159.648 187.68 156.212 188.828 152.985C189.977 149.753 191.179 146.731 192.328 143.917C193.482 141.099 194.611 138.495 195.735 136.164C197.974 131.491 200.223 127.943 201.868 125.572C202.686 124.385 203.353 123.479 203.81 122.876C204.034 122.589 204.204 122.36 204.336 122.189C204.457 122.039 204.521 121.961 204.526 121.966C204.53 121.97 204.477 122.053 204.37 122.214C204.248 122.389 204.083 122.623 203.873 122.924C203.435 123.543 202.793 124.462 201.995 125.66C200.393 128.055 198.188 131.613 195.988 136.285C194.879 138.617 193.774 141.221 192.635 144.039C191.501 146.862 190.308 149.885 189.174 153.107C188.04 156.329 186.95 159.756 186.103 163.377C185.67 165.187 185.348 167.047 185.012 168.95C184.686 170.848 184.35 172.776 184.015 174.723C182.691 182.52 181.678 190.001 181.308 196.845" fill="#455A64"/>
<path d="M185.83 163.25C185.806 163.26 185.655 162.958 185.412 162.399C185.163 161.839 184.828 161.021 184.428 160.004C183.63 157.969 182.623 155.127 181.527 151.983C180.427 148.838 179.386 146.015 178.558 144C178.15 142.993 177.809 142.18 177.565 141.62C177.327 141.06 177.205 140.744 177.23 140.729C177.254 140.72 177.424 141.012 177.707 141.552C177.994 142.092 178.373 142.89 178.816 143.888C179.712 145.884 180.802 148.702 181.902 151.846C182.978 154.947 183.951 157.755 184.691 159.902C185.032 160.87 185.324 161.683 185.553 162.335C185.752 162.915 185.855 163.241 185.83 163.25Z" fill="#455A64"/>
<path d="M211.797 151.729C211.802 151.759 211.427 151.895 210.745 152.114C210.064 152.343 209.076 152.664 207.864 153.102C205.44 153.959 202.13 155.263 198.543 156.864C194.956 158.471 191.777 160.062 189.504 161.279C188.365 161.878 187.455 162.389 186.827 162.739C186.199 163.09 185.844 163.275 185.83 163.25C185.815 163.226 186.141 162.997 186.749 162.603C187.358 162.214 188.249 161.664 189.373 161.026C191.612 159.741 194.785 158.106 198.382 156.495C201.979 154.893 205.318 153.623 207.771 152.834C208.998 152.43 210.001 152.143 210.702 151.963C211.398 151.788 211.787 151.7 211.797 151.729Z" fill="#455A64"/>
<path d="M181.153 196.251C181.143 196.26 181.051 196.158 180.89 195.964C180.7 195.725 180.471 195.438 180.194 195.092C179.59 194.333 178.748 193.209 177.726 191.807C175.677 189.003 172.966 185.046 170.036 180.636C167.106 176.226 164.434 172.245 162.448 169.407C161.474 168.03 160.676 166.891 160.082 166.049C159.829 165.684 159.615 165.382 159.445 165.134C159.303 164.92 159.23 164.808 159.245 164.798C159.255 164.788 159.347 164.89 159.508 165.085C159.698 165.319 159.926 165.611 160.204 165.956C160.807 166.716 161.649 167.84 162.672 169.242C164.721 172.045 167.432 176.003 170.362 180.412C173.292 184.822 175.959 188.799 177.95 191.641C178.924 193.019 179.722 194.158 180.316 195C180.569 195.365 180.783 195.671 180.953 195.92C181.094 196.129 181.167 196.246 181.153 196.251Z" fill="#455A64"/>
<path d="M214.499 176.052C214.503 176.066 214.392 176.144 214.177 176.285C213.919 176.446 213.598 176.645 213.214 176.884C212.318 177.429 211.111 178.164 209.646 179.055C206.633 180.89 202.501 183.469 197.935 186.322C193.37 189.179 189.208 191.724 186.156 193.496C184.633 194.382 183.387 195.088 182.52 195.555C182.116 195.769 181.785 195.944 181.518 196.09C181.284 196.207 181.162 196.266 181.152 196.251C181.148 196.236 181.26 196.158 181.474 196.017C181.732 195.857 182.053 195.657 182.437 195.419C183.333 194.873 184.54 194.143 186.005 193.248C189.018 191.413 193.15 188.833 197.716 185.976C202.277 183.119 206.438 180.573 209.49 178.806C211.018 177.921 212.26 177.215 213.126 176.748C213.53 176.533 213.861 176.358 214.129 176.212C214.367 176.095 214.494 176.037 214.499 176.052Z" fill="#455A64"/>
<path d="M15.8096 57.36L9.30566 90.8413L58.9805 100.491L65.4844 67.0096L15.8096 57.36Z" fill="#A5A4DB"/>
<path d="M65.5589 67.4419C65.5686 67.4565 65.3788 67.5782 65.0089 67.7972C64.6 68.0357 64.0646 68.3472 63.3929 68.7415C61.9327 69.5689 59.8982 70.7225 57.3964 72.1389C52.2662 74.9911 45.2475 78.8996 37.4744 83.2267L37.3089 83.3191L37.1872 83.178C37.0947 83.0709 36.9925 82.9492 36.8903 82.8324C31.0739 75.9597 25.8123 69.7393 21.9671 65.1932C20.098 62.9494 18.5745 61.1241 17.4843 59.8148C16.9829 59.2015 16.5838 58.7099 16.282 58.3351C16.0095 57.9944 15.8732 57.8095 15.8878 57.7997C15.8975 57.79 16.0581 57.9555 16.355 58.2767C16.6763 58.6369 17.0949 59.109 17.6206 59.698C18.74 60.983 20.2976 62.779 22.2153 64.9839C26.0897 69.5105 31.3854 75.6969 37.2408 82.5355C37.343 82.6523 37.4403 82.774 37.5377 82.8811L37.2505 82.8275C45.0528 78.5492 52.091 74.6845 57.2358 71.8614C59.7668 70.4986 61.8305 69.3888 63.3053 68.5906C63.9965 68.2304 64.5465 67.9432 64.9651 67.7242C65.3447 67.5198 65.5492 67.4273 65.5589 67.4419Z" fill="#455A64"/>
<path d="M9.38476 91.2723C9.30688 91.175 13.9308 87.3103 19.7181 82.6426C25.5054 77.9748 30.2607 74.2707 30.3386 74.3681C30.4165 74.4654 25.7925 78.3301 20.0053 82.9979C14.218 87.6705 9.46264 91.3745 9.38476 91.2723Z" fill="#455A64"/>
<path d="M46.9312 77.1619C47.0431 77.1034 49.8516 82.3748 53.2003 88.9359C56.549 95.4971 59.1725 100.866 59.0606 100.919C58.9486 100.978 56.1402 95.7064 52.7915 89.1404C49.4379 82.5841 46.8192 77.2154 46.9312 77.1619Z" fill="#455A64"/>
<path d="M85.4993 50.6445L54.1002 53.9348L51.5156 32.1146L82.9148 28.8291L85.4993 50.6445Z" fill="white" fill-opacity="0.750601"/>
<path d="M83.0462 29.0773C83.0511 29.0822 82.9635 29.1941 82.7882 29.3986C82.5936 29.6225 82.3307 29.9145 82.0095 30.2796C81.2988 31.0583 80.3108 32.1486 79.0988 33.4871C76.597 36.1982 73.1753 39.9023 69.3885 44.0103L69.3106 44.0979L69.2084 44.0346C69.1305 43.986 69.0478 43.9324 68.965 43.874C64.1804 40.7248 59.8534 37.8726 56.6896 35.7894C55.1467 34.7575 53.886 33.9155 52.9856 33.3119C52.5719 33.0247 52.236 32.796 51.9878 32.6256C51.759 32.465 51.6422 32.3774 51.6519 32.3676C51.6568 32.3579 51.7833 32.4309 52.0218 32.5721C52.2798 32.7327 52.6205 32.9469 53.0489 33.2097C53.959 33.7938 55.2343 34.6066 56.8016 35.6093C59.9799 37.673 64.3216 40.5009 69.1208 43.6209C69.2035 43.6744 69.2863 43.728 69.3641 43.7815L69.1743 43.8059C72.9903 39.7222 76.4315 36.0376 78.9479 33.3411C80.1891 32.0318 81.2015 30.9658 81.9267 30.2017C82.2674 29.8512 82.54 29.5738 82.7444 29.3596C82.9391 29.1698 83.0413 29.0725 83.0462 29.0773Z" fill="#455A64"/>
<path d="M54.2312 54.183C54.163 54.1392 56.1732 50.8975 58.714 46.9501C61.2547 43.0027 63.372 39.839 63.4353 39.8828C63.5034 39.9266 61.4932 43.1682 58.9525 47.1156C56.4117 51.0679 54.2945 54.2317 54.2312 54.183Z" fill="#455A64"/>
<path d="M73.8418 38.5248C73.9002 38.4664 76.5821 41.1921 79.8383 44.609C83.0946 48.0259 85.6889 50.8441 85.6305 50.8976C85.572 50.956 82.8902 48.2303 79.6339 44.8134C76.3777 41.3966 73.7834 38.5784 73.8418 38.5248Z" fill="#455A64"/>
<path d="M41.9897 24.2052L24.6328 12.1878L32.8294 0L50.1863 12.0174L41.9897 24.2052Z" fill="white" fill-opacity="0.750601"/>
<path d="M50.1432 12.2025C50.1432 12.2074 50.0507 12.2268 49.8706 12.2512C49.676 12.2804 49.4131 12.3144 49.0919 12.3583C48.391 12.4459 47.4175 12.5676 46.2201 12.7136C43.7719 12.9959 40.4232 13.3853 36.7094 13.8185L36.6315 13.8282L36.6072 13.7503C36.5926 13.6919 36.5731 13.6286 36.5536 13.5654C35.5023 9.88565 34.5483 6.55153 33.8523 4.11786C33.5213 2.9205 33.2487 1.94703 33.054 1.24614C32.9664 0.920026 32.8983 0.662057 32.8447 0.462496C32.8009 0.282405 32.7766 0.185059 32.7863 0.185059C32.7912 0.185059 32.8252 0.272671 32.8837 0.447895C32.9469 0.642588 33.0248 0.900556 33.127 1.2218C33.3363 1.91783 33.6284 2.88643 33.9837 4.07406C34.6943 6.50285 35.6629 9.83211 36.7386 13.5069C36.7581 13.5702 36.7775 13.6335 36.7921 13.6919L36.6899 13.6238C40.4037 13.2149 43.7573 12.8499 46.2055 12.5773C47.4078 12.4556 48.3861 12.3534 49.0821 12.2852C49.4082 12.256 49.6662 12.2317 49.8658 12.2171C50.0507 12.1976 50.1432 12.1928 50.1432 12.2025Z" fill="#455A64"/>
<path d="M24.5948 12.3728C24.5802 12.3192 27.009 11.5551 30.017 10.6595C33.025 9.76389 35.4781 9.08247 35.4927 9.13601C35.5073 9.18955 33.0786 9.95372 30.0705 10.8493C27.0577 11.74 24.6045 12.4263 24.5948 12.3728Z" fill="#455A64"/>
<path d="M41.3634 12.9763C41.4169 12.9715 41.5922 15.5219 41.7528 18.676C41.9134 21.83 42.001 24.3854 41.9475 24.3902C41.8939 24.3951 41.7187 21.8446 41.5581 18.6906C41.3975 15.5414 41.3098 12.9812 41.3634 12.9763Z" fill="#455A64"/>
<path d="M181.469 40.1895C181.469 28.2791 170.702 18.8803 158.368 21.1923C150.61 22.6476 144.428 28.9849 143.07 36.758C142.224 41.6156 143.226 46.1909 145.441 49.9631H145.431L145.485 50.0361C146.225 51.287 147.154 52.1826 148.094 53.4919L159.327 68.3714C160.724 70.2209 163.508 70.2209 164.905 68.3714L175.954 53.7353C175.954 53.7353 178.018 51.2773 178.763 50.0118L178.802 49.9582H178.792C180.486 47.0963 181.469 43.7621 181.469 40.1895ZM162.121 48.6149C157.419 48.6149 153.608 44.8037 153.608 40.1019C153.608 35.4001 157.419 31.5889 162.121 31.5889C166.823 31.5889 170.634 35.4001 170.634 40.1019C170.639 44.8037 166.823 48.6149 162.121 48.6149Z" fill="white" fill-opacity="0.750601"/>
<path d="M196.266 73.3945C196.266 66.9696 190.459 61.9027 183.81 63.1487C179.629 63.9324 176.295 67.3493 175.56 71.5449C175.103 74.1635 175.643 76.6313 176.84 78.6658H176.835L176.865 78.7047C177.264 79.3813 177.765 79.8632 178.271 80.5689L184.331 88.5952C185.086 89.593 186.585 89.593 187.339 88.5952L193.297 80.7052C193.297 80.7052 194.406 79.3813 194.81 78.6999L194.83 78.6707H194.825C195.735 77.118 196.266 75.3219 196.266 73.3945ZM185.83 77.9406C183.294 77.9406 181.24 75.8865 181.24 73.3507C181.24 70.8148 183.294 68.7608 185.83 68.7608C188.366 68.7608 190.42 70.8148 190.42 73.3507C190.425 75.8817 188.366 77.9406 185.83 77.9406Z" fill="#A5A4DB"/>
<path d="M215.496 205.635C215.496 205.703 167.251 205.762 107.753 205.762C48.2353 205.762 0 205.703 0 205.635C0 205.567 48.2353 205.509 107.753 205.509C167.251 205.509 215.496 205.562 215.496 205.635Z" fill="#263238"/>
<path d="M78.2268 37.79L81.4295 83.1535C81.9503 90.5616 88.1124 96.3002 95.5399 96.3002C103.717 96.3002 110.191 89.3886 109.655 81.2309C109.373 76.9136 109.115 73.3751 109.115 73.3751C109.115 73.3751 120.096 71.6666 120.232 60.6859C120.31 54.3438 119.215 39.9511 118.28 28.9266C117.647 21.4747 111.407 15.7507 103.926 15.7507H97.2922C85.8637 16.4273 77.2436 26.3907 78.2268 37.79Z" fill="#FFDBCD"/>
<path d="M109.13 73.2241C109.13 73.2241 102.189 73.7887 94.8154 69.155C94.8154 69.155 98.1982 77.0596 109.155 76.0666L109.13 73.2241Z" fill="#DFB8AC"/>
<path d="M114.863 42.1949C114.892 43.0224 114.216 43.733 113.349 43.7768C112.488 43.8206 111.763 43.1927 111.733 42.3653C111.704 41.5378 112.381 40.8272 113.242 40.7834C114.109 40.7347 114.834 41.3675 114.863 42.1949Z" fill="#263238"/>
<path d="M116.381 39.9462C116.187 40.1506 114.999 39.2696 113.31 39.2745C111.626 39.255 110.385 40.1214 110.205 39.917C110.117 39.8245 110.312 39.4546 110.852 39.0652C111.383 38.6758 112.288 38.2961 113.339 38.2961C114.391 38.301 115.276 38.6904 115.783 39.0847C116.304 39.4838 116.479 39.8537 116.381 39.9462Z" fill="#263238"/>
<path d="M98.3972 42.1996C98.4264 43.027 97.7499 43.7328 96.8835 43.7815C96.022 43.8302 95.2967 43.1974 95.2675 42.37C95.2383 41.5425 95.9149 40.8319 96.7764 40.7881C97.6428 40.7345 98.368 41.3673 98.3972 42.1996Z" fill="#263238"/>
<path d="M99.7984 40.2577C99.6037 40.4621 98.416 39.5811 96.7271 39.586C95.043 39.5665 93.8018 40.4329 93.6217 40.2285C93.5341 40.136 93.7288 39.7661 94.2691 39.3767C94.7996 38.9873 95.7049 38.6077 96.7563 38.6077C97.8076 38.6125 98.6935 39.0019 99.1997 39.3962C99.7156 39.8002 99.8908 40.1701 99.7984 40.2577Z" fill="#263238"/>
<path d="M105.921 52.7765C105.912 52.6792 106.963 52.4991 108.662 52.2801C109.095 52.2362 109.499 52.1486 109.572 51.8566C109.674 51.5451 109.494 51.0827 109.285 50.5814C108.881 49.5397 108.457 48.4446 108.01 47.3008C106.238 42.6281 104.958 38.7878 105.148 38.7197C105.337 38.6515 106.924 42.3799 108.696 47.0525C109.124 48.2061 109.528 49.3012 109.918 50.3526C110.078 50.8442 110.36 51.3991 110.141 52.0416C110.025 52.3628 109.708 52.5964 109.431 52.6694C109.153 52.7522 108.91 52.7571 108.701 52.7717C106.987 52.8641 105.926 52.869 105.921 52.7765Z" fill="#263238"/>
<path d="M100.951 53.9399C101.224 53.9252 101.229 55.7554 102.796 57.0549C104.363 58.3594 106.315 58.155 106.33 58.4081C106.354 58.5249 105.897 58.7634 105.069 58.7877C104.261 58.8169 103.078 58.5541 102.12 57.7607C101.166 56.9625 100.752 55.9014 100.689 55.147C100.625 54.3828 100.83 53.9301 100.951 53.9399Z" fill="#263238"/>
<path d="M100.232 33.6479C100.067 34.1054 98.3825 33.8913 96.4015 34.1298C94.4156 34.3293 92.8191 34.9086 92.5563 34.4948C92.4395 34.3001 92.7169 33.8669 93.3643 33.424C94.0019 32.9811 95.024 32.5576 96.2117 32.4262C97.3993 32.2948 98.4896 32.4846 99.21 32.7767C99.9401 33.0687 100.305 33.4289 100.232 33.6479Z" fill="#263238"/>
<path d="M115.764 35.0594C115.468 35.444 114.304 35.0448 112.907 35.0254C111.51 34.9572 110.328 35.2833 110.055 34.8842C109.933 34.6895 110.123 34.305 110.639 33.9448C111.15 33.5846 112.002 33.2877 112.961 33.3169C113.92 33.3461 114.752 33.6966 115.239 34.086C115.73 34.4802 115.896 34.8745 115.764 35.0594Z" fill="#263238"/>
<path d="M81.9307 46.0352C81.7457 45.9525 74.3863 43.806 74.6248 51.3114C74.8633 58.8168 82.3541 57.0305 82.359 56.8115C82.3639 56.5973 81.9307 46.0352 81.9307 46.0352Z" fill="#FFDBCD"/>
<path d="M79.9735 54.0419C79.9394 54.0176 79.8469 54.1393 79.6279 54.2463C79.4137 54.3534 79.0487 54.4313 78.6496 54.2999C77.8464 54.0322 77.1407 52.7959 77.0579 51.4428C77.019 50.7613 77.1407 50.1042 77.3646 49.5591C77.5739 49.0042 77.9195 48.6051 78.3137 48.5224C78.708 48.4153 79 48.6489 79.0974 48.8582C79.2044 49.0626 79.1606 49.2184 79.1996 49.2281C79.219 49.2476 79.3553 49.0967 79.2872 48.7901C79.2531 48.644 79.1558 48.4688 78.9757 48.3277C78.7907 48.1865 78.523 48.1184 78.2456 48.1573C77.6664 48.2157 77.165 48.7657 76.9168 49.3644C76.6394 49.968 76.4836 50.7029 76.5323 51.472C76.6296 52.9808 77.4473 54.3729 78.5425 54.6552C79.073 54.7769 79.5111 54.6017 79.7301 54.4167C79.9637 54.222 79.9978 54.0517 79.9735 54.0419Z" fill="#DFB8AC"/>
<path d="M77.7498 45.7772C78.8936 45.4998 80.8746 46.556 81.3614 47.6268C81.8481 48.6976 81.9552 49.9145 82.4419 50.9853C82.9286 52.0561 84.0287 53.0296 85.1774 52.757C85.9659 52.572 86.5353 51.8273 86.7398 51.0437C86.9491 50.2601 86.8614 49.4277 86.7641 48.6246C86.3212 45.1201 85.5862 41.64 85.4451 38.1112C85.3039 34.5824 85.8052 30.9124 87.6597 27.9044C89.5141 24.8964 92.9213 22.6817 96.4404 22.9689C98.7718 23.1587 100.913 24.3756 103.23 24.6968C105.98 25.0813 108.886 24.1127 110.848 22.1512C111.101 21.8981 112.274 21.1291 112.274 21.1291C112.274 20.949 112.103 19.3768 111.485 18.8074C106.886 14.5533 98.6015 13.3657 92.527 14.894C86.4526 16.4224 80.7578 20.7105 78.1441 26.4053C75.5352 32.1 76.3139 40.0192 77.7498 45.7772Z" fill="#263238"/>
<path d="M118.397 27.2376C118.397 27.2376 89.5921 17.9702 77.1269 42.8909C77.1269 42.8909 75.2627 36.6559 75.2627 33.312C75.2627 31.0779 76.5963 17.7803 90.2833 13.5993C90.2881 13.5993 110.901 5.72883 118.397 27.2376Z" fill="#4643D2"/>
<path d="M93.6467 27.8607C94.6639 29.5058 96.4794 30.6302 98.4069 30.8054C100.334 30.9806 102.325 30.2019 103.62 28.7709C104.189 30.1921 105.713 31.1656 107.241 31.0877C108.769 31.0098 110.186 29.8806 110.6 28.4058C111.437 29.2187 112.308 30.051 113.403 30.4501C114.498 30.8492 115.885 30.6983 116.606 29.7833C117.336 28.8487 117.127 27.4226 116.406 26.4784C115.686 25.5341 114.581 24.9695 113.486 24.5119C110.064 23.081 106.292 22.3655 102.617 22.8619C98.9423 23.3584 95.3843 25.1398 93.0869 28.0505" fill="#263238"/>
<g opacity="0.4">
<g opacity="0.4">
<path opacity="0.4" d="M118.397 27.2376C118.397 27.2376 115.116 23.3388 109.237 23.076C100.738 22.7012 84.8319 27.4809 77.1269 42.8909C77.1269 42.8909 75.2627 36.6559 75.2627 33.312C75.2627 31.0779 76.5963 17.7803 90.2833 13.5993C90.2881 13.5993 110.901 5.72883 118.397 27.2376Z" fill="black"/>
</g>
</g>
<path d="M78.334 39.9754C82.6075 33.4386 88.497 28.0358 95.1165 23.8986C101.736 19.7614 112.688 15.6728 120.237 13.6675C122.5 13.0639 124.866 12.5383 127.173 12.9374C129.485 13.3365 131.743 14.8746 132.318 17.1476C133.033 19.9901 127.986 24.3805 125.615 26.1084C123.245 27.8363 118.402 30.3673 118.402 30.3673C118.402 30.3673 118.465 25.0911 110.02 24.0008C98.5285 22.526 78.334 39.9754 78.334 39.9754Z" fill="#4643D2"/>
<path d="M101.96 18.452C101.96 18.452 106.111 16.1546 110.278 15.6192C109.421 14.9913 108.964 14.6896 108.019 14.2612C105.888 14.6847 103.726 15.225 101.536 16.4418L101.96 18.452Z" fill="#455A64"/>
<path d="M125.339 82.8225L116.203 80.8074L112.484 79.8778L109.389 75.0786C109.389 75.0786 107.914 83.6597 102.385 88.2788C100.881 89.5346 98.8607 89.9872 96.943 89.5832C95.6921 89.3204 94.2222 88.9943 93.1319 88.7071C92.8982 88.6438 92.6451 88.5611 92.3726 88.4638C88.3522 87.0182 85.0618 84.0686 82.964 80.3451C81.7326 78.1645 80.6959 75.9255 81.0512 75.0737L76.7144 84.054L51.1609 95.8232L36.6514 131.257L64.7651 139.576L65.6412 168.765L60.3455 205.582L139.892 205.635L137.074 123.723" fill="#4643D2"/>
<path d="M104.774 114.533C104.774 114.543 104.599 114.548 104.273 114.543C103.917 114.533 103.445 114.523 102.856 114.509C101.605 114.465 99.8726 114.402 97.7992 114.329L97.7018 114.324L97.6969 114.222C97.6093 112.026 97.5071 109.427 97.4 106.648C97.2686 102.642 97.1469 99.0209 97.0593 96.3585C97.0301 95.0687 97.0058 94.0076 96.9863 93.2385C96.9814 92.893 96.9814 92.6107 96.9814 92.3916C96.9814 92.1969 96.9863 92.0947 96.996 92.0947C97.0058 92.0947 97.0155 92.1969 97.0301 92.3868C97.0447 92.6058 97.0642 92.8881 97.0837 93.2337C97.1226 94.0027 97.1761 95.0589 97.2394 96.3488C97.3465 99.0112 97.4925 102.632 97.6531 106.633C97.7505 109.413 97.8381 112.012 97.9111 114.212L97.8089 114.11C99.8775 114.222 101.61 114.314 102.861 114.382C103.445 114.421 103.917 114.45 104.273 114.475C104.599 114.504 104.774 114.523 104.774 114.533Z" fill="#263238"/>
<path d="M100.437 102.701C100.432 102.691 100.554 102.608 100.816 102.579C101.069 102.545 101.473 102.598 101.863 102.871C102.053 103.007 102.247 103.197 102.374 103.45C102.5 103.703 102.564 104.02 102.51 104.336C102.423 104.959 101.946 105.616 101.211 105.801C100.471 105.971 99.7553 105.626 99.3611 105.139C98.9425 104.643 98.9035 104.01 99.0106 103.567C99.1177 103.109 99.3513 102.793 99.5363 102.613C99.7212 102.433 99.8575 102.375 99.8624 102.389C99.877 102.409 99.765 102.491 99.6093 102.681C99.4584 102.871 99.2637 103.178 99.1858 103.601C99.108 104.015 99.1664 104.565 99.5363 104.988C99.8916 105.407 100.529 105.699 101.147 105.553C101.761 105.402 102.194 104.833 102.277 104.297C102.379 103.747 102.087 103.26 101.751 103.012C101.415 102.749 101.05 102.676 100.812 102.676C100.578 102.676 100.446 102.725 100.437 102.701Z" fill="#263238"/>
<path d="M99.5849 92.416C99.5801 92.4063 99.7066 92.3041 99.9841 92.2359C100.261 92.1678 100.704 92.1678 101.172 92.4112C101.4 92.5328 101.634 92.7129 101.809 92.9758C101.985 93.2337 102.092 93.5745 102.072 93.9249C102.053 94.6161 101.59 95.3997 100.787 95.6528C99.9792 95.8816 99.1663 95.4971 98.7526 94.9422C98.5336 94.6647 98.4265 94.3338 98.4022 94.0271C98.3827 93.7156 98.4411 93.4284 98.5385 93.1899C98.7331 92.7032 99.0593 92.4112 99.3026 92.2651C99.5509 92.1191 99.7115 92.0948 99.7115 92.1094C99.7212 92.1289 99.5752 92.1873 99.3562 92.3479C99.142 92.5085 98.8646 92.8054 98.7039 93.2532C98.5433 93.6913 98.5385 94.3192 98.9376 94.801C99.3075 95.278 100.038 95.609 100.714 95.4094C101.391 95.2001 101.809 94.5187 101.839 93.9152C101.887 93.2922 101.493 92.7957 101.084 92.5669C100.67 92.3284 100.261 92.2992 99.9987 92.3333C99.7358 92.3674 99.5947 92.4355 99.5849 92.416Z" fill="#263238"/>
<path d="M96.9951 131.705C96.9951 131.7 97.0341 131.681 97.1168 131.647C97.2141 131.608 97.331 131.564 97.4819 131.506C97.808 131.394 98.2704 131.189 98.8593 130.917C100.023 130.337 101.653 129.349 103.337 127.733C105.031 126.137 106.778 123.956 108.463 121.377C110.156 118.797 111.85 115.852 113.456 112.674C116.674 106.312 118.952 100.257 120.548 95.8719C121.346 93.6767 121.965 91.8904 122.398 90.6541C122.612 90.0505 122.777 89.5784 122.899 89.2328C122.953 89.0819 123.001 88.9603 123.035 88.8678C123.069 88.785 123.084 88.7461 123.089 88.7461C123.094 88.7461 123.084 88.7899 123.06 88.8775C123.03 88.9749 122.992 89.1014 122.948 89.2523C122.836 89.5979 122.685 90.0797 122.495 90.6882C122.091 91.9293 121.497 93.7254 120.723 95.9303C119.171 100.335 116.917 106.41 113.69 112.786C112.079 115.969 110.375 118.924 108.667 121.503C106.963 124.088 105.197 126.273 103.469 127.865C101.755 129.476 100.096 130.454 98.9128 131.004C98.3093 131.267 97.842 131.457 97.5062 131.554C97.3553 131.603 97.2287 131.642 97.1314 131.671C97.0389 131.695 96.9951 131.71 96.9951 131.705Z" fill="#263238"/>
<path d="M113.754 121.985C113.964 121.985 118.807 121.649 118.807 121.649C118.807 121.649 116.806 125.183 114.728 126.502H110.488L113.754 121.985Z" fill="#FAFAFA"/>
<path d="M96.1486 142.403C96.1437 142.394 96.2411 142.326 96.4261 142.194C96.6353 142.053 96.903 141.863 97.2438 141.63C97.9495 141.138 98.9668 140.413 100.188 139.478C102.642 137.614 105.864 134.825 109.324 131.642C111.062 130.055 112.727 128.551 114.163 127.115C115.603 125.679 116.81 124.297 117.73 123.066C118.655 121.839 119.283 120.758 119.682 119.999C119.891 119.624 120.028 119.318 120.13 119.113C120.232 118.909 120.291 118.807 120.295 118.807C120.305 118.812 120.261 118.923 120.174 119.133C120.086 119.342 119.964 119.658 119.765 120.043C119.39 120.822 118.782 121.922 117.867 123.173C116.961 124.428 115.759 125.83 114.318 127.281C112.882 128.736 111.218 130.245 109.485 131.832C106.02 135.015 102.773 137.789 100.286 139.624C99.0495 140.544 98.0128 141.25 97.2876 141.717C96.9274 141.951 96.6353 142.126 96.4455 142.243C96.2557 142.355 96.1535 142.413 96.1486 142.403Z" fill="#263238"/>
<path d="M82.5007 196.48C82.4959 196.48 82.5153 196.441 82.5591 196.368C82.6127 196.285 82.676 196.178 82.7587 196.046C82.9388 195.764 83.2114 195.36 83.5764 194.844C84.3114 193.817 85.4357 192.381 86.9251 190.687C89.9234 187.319 94.1239 182.734 98.7479 177.653C103.386 172.591 107.587 168.011 110.639 164.676C112.157 163.036 113.394 161.702 114.265 160.763C114.688 160.315 115.019 159.965 115.258 159.707C115.365 159.595 115.453 159.507 115.521 159.439C115.579 159.381 115.613 159.352 115.618 159.352C115.623 159.356 115.594 159.39 115.54 159.454C115.477 159.532 115.394 159.624 115.297 159.741C115.063 160.004 114.742 160.369 114.338 160.826C113.481 161.78 112.269 163.129 110.77 164.793C107.728 168.142 103.552 172.737 98.9328 177.818C94.2991 182.88 90.1084 187.465 87.0566 190.804C85.5525 192.479 84.4087 193.895 83.6494 194.903C83.2746 195.409 82.9875 195.803 82.7976 196.076C82.71 196.202 82.637 196.299 82.5786 196.382C82.5299 196.45 82.5056 196.48 82.5007 196.48Z" fill="#263238"/>
<path d="M124.705 82.5791C125.124 83.207 134.527 84.2535 136.83 86.5508C139.127 88.8482 162.125 106.41 162.125 106.41L145.742 128.498L135.155 126.166L124.705 82.5791Z" fill="#4643D2"/>
<path opacity="0.4" d="M159.351 104.287L140.967 127.446L145.742 128.497L162.12 106.41L159.351 104.287Z" fill="black"/>
<path d="M129.714 105.572C129.694 105.577 129.631 105.305 129.524 104.803C129.466 104.555 129.407 104.249 129.363 103.888C129.315 103.528 129.247 103.119 129.222 102.662C129.183 102.204 129.149 101.708 129.149 101.168C129.13 100.627 129.164 100.058 129.193 99.4494C129.286 98.2423 129.471 96.9232 129.802 95.5652C130.147 94.2121 130.6 92.9563 131.086 91.8466C131.344 91.3015 131.583 90.7758 131.856 90.3085C132.104 89.8315 132.371 89.4081 132.62 89.0235C132.853 88.6293 133.111 88.3032 133.321 88.0111C133.53 87.7142 133.725 87.4709 133.89 87.2762C134.216 86.8868 134.406 86.6726 134.421 86.6872C134.435 86.697 134.275 86.9306 133.968 87.3394C133.812 87.539 133.627 87.7921 133.433 88.0939C133.233 88.3957 132.994 88.7266 132.771 89.1209C132.537 89.5103 132.279 89.9337 132.04 90.4107C131.778 90.878 131.554 91.3988 131.301 91.9391C130.833 93.0391 130.39 94.2851 130.05 95.6236C129.724 96.967 129.534 98.2715 129.432 99.464C129.398 100.063 129.354 100.627 129.368 101.163C129.354 101.698 129.383 102.19 129.407 102.642C129.417 103.095 129.48 103.504 129.509 103.859C129.539 104.219 129.587 104.526 129.626 104.774C129.699 105.29 129.733 105.572 129.714 105.572Z" fill="#263238"/>
<path d="M137.073 123.723C137.01 123.752 136.1 121.737 135.039 119.23C133.978 116.723 133.175 114.669 133.238 114.64C133.301 114.611 134.211 116.621 135.272 119.133C136.334 121.639 137.141 123.693 137.073 123.723Z" fill="#263238"/>
<path d="M64.7691 107.685C64.7302 107.704 64.3359 106.984 63.5912 105.884C62.8514 104.789 61.7221 103.338 60.2717 101.927C58.8212 100.52 57.3367 99.4346 56.2172 98.7289C55.0977 98.0182 54.3627 97.6483 54.3822 97.6045C54.3919 97.5899 54.5818 97.6678 54.9176 97.8284C55.2583 97.9842 55.7353 98.2373 56.3097 98.578C57.4584 99.2545 58.977 100.325 60.4469 101.747C61.912 103.173 63.0315 104.657 63.7372 105.787C64.0925 106.351 64.3602 106.823 64.5257 107.154C64.6961 107.49 64.7837 107.675 64.7691 107.685Z" fill="#263238"/>
<path opacity="0.4" d="M36.6504 131.257L37.7796 128.498L68.8867 136.967L67.6553 140.427L36.6504 131.257Z" fill="black"/>
<path d="M119.682 120.35H131.524V125.236L116.377 125.139C116.372 125.144 118.713 122.306 119.682 120.35Z" fill="#FAFAFA"/>
<g opacity="0.2">
<path opacity="0.2" d="M77.4434 85.1346C77.8717 88.9311 78.3389 92.8493 80.2129 96.1785C82.0917 99.5078 85.7665 102.131 89.5484 101.572C92.0697 101.197 94.2064 99.5127 95.9246 97.6241C97.6428 95.7356 99.0786 93.594 100.957 91.8661C102.135 93.044 103.323 94.2316 104.734 95.1175C106.146 95.9985 107.816 96.5631 109.47 96.3684C111.12 96.1688 112.035 95.5166 112.556 93.9347C110.794 94.4847 109.821 94.402 108.069 94.0613C106.214 93.7011 104.413 92.9272 102.753 91.6179C101.722 90.805 101.352 89.5833 100.038 89.6612C98.8255 89.7293 97.8764 90.6931 97.0782 91.6033C95.8565 93.0002 94.3087 94.5188 92.8582 95.6723C91.4029 96.8259 89.9865 97.6047 88.1272 97.5657C85.0656 97.4976 82.5541 95.0931 80.8651 92.5378C79.3124 90.1869 78.154 87.5731 77.4628 84.8425" fill="black"/>
</g>
<path d="M113.287 80.3984C113.296 80.3984 113.311 80.4909 113.34 80.671C113.364 80.8511 113.403 81.1139 113.433 81.4547C113.506 82.1361 113.579 83.129 113.608 84.3556C113.671 86.8038 113.486 90.2158 112.698 93.8858C112.693 93.9102 112.688 93.9394 112.683 93.9637L112.668 94.0416L112.591 94.061C110.751 94.5186 108.906 94.3579 107.348 93.9248C105.781 93.4916 104.462 92.815 103.464 92.1044C102.467 91.3937 101.756 90.688 101.342 90.1428C101.113 89.8897 100.987 89.6512 100.88 89.5052C100.782 89.3543 100.734 89.2765 100.739 89.2716C100.792 89.218 101.542 90.5955 103.562 91.9583C104.555 92.6398 105.864 93.2871 107.407 93.7009C108.94 94.1146 110.741 94.2606 112.527 93.8177L112.435 93.915C112.44 93.8907 112.445 93.8663 112.449 93.8371C113.233 90.1915 113.447 86.8039 113.428 84.3653C113.423 83.1436 113.374 82.1555 113.335 81.4741C113.316 81.1577 113.301 80.8949 113.287 80.6856C113.277 80.4909 113.277 80.3984 113.287 80.3984Z" fill="#263238"/>
<path d="M98.4995 90.0019C98.5092 90.0068 98.4557 90.1041 98.3437 90.294C98.2318 90.4789 98.0565 90.7466 97.8034 91.0727C97.307 91.7298 96.4941 92.6059 95.4087 93.5989C94.8684 94.0954 94.26 94.6259 93.6029 95.1808C93.272 95.4582 92.941 95.7502 92.5711 96.0374C92.2011 96.3197 91.7972 96.5777 91.364 96.8113C90.5024 97.2786 89.4998 97.6193 88.429 97.702C87.3581 97.7945 86.2095 97.5609 85.2165 96.9914C84.2187 96.4317 83.4107 95.6529 82.7001 94.8693C81.9943 94.0808 81.3616 93.2728 80.8067 92.4745C79.6921 90.878 78.8939 89.3059 78.3244 87.9479C77.7646 86.5851 77.4288 85.4412 77.2341 84.643C77.1319 84.2439 77.0686 83.9324 77.0297 83.7182C76.9907 83.504 76.9713 83.3921 76.981 83.3921C76.9907 83.3921 77.0248 83.4992 77.0783 83.7085C77.1319 83.9178 77.2098 84.2244 77.3266 84.6187C77.5505 85.4023 77.9107 86.5364 78.4899 87.8749C79.0739 89.2134 79.8819 90.7612 80.9965 92.3382C81.5514 93.1268 82.1842 93.9201 82.8851 94.6989C83.5908 95.4679 84.3842 96.2272 85.3431 96.7675C86.2971 97.3127 87.3825 97.5366 88.4144 97.4489C89.4462 97.3711 90.4148 97.045 91.2569 96.5972C91.6803 96.3733 92.0746 96.1202 92.4348 95.8525C92.7901 95.575 93.1308 95.283 93.4666 95.0104C94.1286 94.4604 94.7419 93.9396 95.287 93.4529C96.3822 92.4794 97.2048 91.6325 97.7256 90.9997C97.9884 90.6882 98.1734 90.4302 98.2999 90.255C98.4265 90.0847 98.4946 89.9971 98.4995 90.0019Z" fill="#263238"/>
<path d="M88.0166 145.923L91.7693 140.457C91.7693 140.457 94.349 131.486 93.9985 130.235C93.6481 128.984 92.5091 124.307 92.7769 124.253C93.0446 124.2 95.853 123.153 97.3765 126.901C98.3256 129.237 98.6371 132.314 98.7345 134.299C98.788 135.346 99.7517 136.095 100.779 135.881C103.373 135.351 107.69 134.538 108.712 134.781C110.202 135.137 111.536 137.04 111.667 137.672C111.798 138.305 110.767 139.746 110.767 139.746C110.767 139.746 112.032 140.393 112.421 141.372C112.475 141.503 112.519 141.634 112.558 141.761C112.806 142.559 112.597 143.426 112.037 144.044L111.643 144.477C111.643 144.477 113.22 144.91 113.414 145.815C113.609 146.721 113.361 147.811 113.361 147.811L111.881 149.339C111.881 149.339 112.572 149.953 112.65 150.79C112.728 151.622 110.504 153.686 110.504 153.686L100.959 157.108L97.1721 158.071L88.0166 145.923Z" fill="#FFDBCD"/>
<path d="M110.8 139.756C110.81 139.829 109.321 140.096 107.495 140.471C105.665 140.841 104.191 141.177 104.171 141.104C104.161 141.07 104.522 140.943 105.11 140.778C105.699 140.612 106.527 140.408 107.442 140.223C108.357 140.038 109.194 139.902 109.807 139.824C110.411 139.741 110.796 139.722 110.8 139.756Z" fill="#DFB8AC"/>
<path d="M111.672 144.472C111.692 144.54 110.563 144.944 109.146 145.377C107.73 145.81 106.567 146.103 106.547 146.039C106.528 145.971 107.657 145.567 109.073 145.134C110.49 144.701 111.653 144.409 111.672 144.472Z" fill="#DFB8AC"/>
<path d="M112.241 149.13C112.27 149.193 111.068 149.782 109.559 150.439C108.05 151.101 106.804 151.583 106.775 151.52C106.746 151.457 107.948 150.868 109.457 150.211C110.966 149.549 112.212 149.067 112.241 149.13Z" fill="#DFB8AC"/>
<path d="M66.0246 179.736L101.128 156.188L92.2741 140.145L60.2373 156.621L63.8732 139.308L42.1211 132.878L36.6989 162.501C35.8617 175.681 46.4287 186.321 59.1762 182.861C61.6148 182.199 63.9268 181.143 66.0246 179.736Z" fill="#FFDBCD"/>
<path d="M55.5936 165.918C55.579 165.922 55.5304 165.767 55.472 165.475C55.4136 165.188 55.36 164.759 55.3503 164.234C55.3211 163.182 55.5304 161.693 56.2556 160.237C56.9808 158.782 58.0516 157.721 58.9034 157.108C59.3318 156.801 59.7017 156.587 59.9694 156.46C60.2322 156.334 60.388 156.275 60.3928 156.29C60.4123 156.329 59.8234 156.606 59.0105 157.249C58.1977 157.882 57.1853 158.933 56.4795 160.349C55.7737 161.761 55.545 163.202 55.5255 164.234C55.506 165.27 55.6375 165.908 55.5936 165.918Z" fill="#DFB8AC"/>
<path d="M145.742 128.498C145.961 128.201 170.741 143.294 170.741 143.294L178.684 179.483L190.118 183.679C190.118 183.679 193.685 143.406 190.969 137.137C188.253 130.868 160.719 108.318 160.719 108.318L145.742 128.498Z" fill="#FFDBCD"/>
<path d="M176.153 140.52C176.206 140.554 175.403 141.654 174.006 142.545C172.614 143.445 171.281 143.723 171.271 143.659C171.247 143.581 172.517 143.207 173.865 142.331C175.228 141.464 176.094 140.466 176.153 140.52Z" fill="#DFB8AC"/>
<path d="M115.938 128.58L117.881 163.309L157.481 160.632L156.284 134.777L150.516 127.018L115.938 128.58Z" fill="#263238"/>
<path d="M106.935 164.083C107.056 164.75 110.415 196.207 110.415 196.207L169.353 192.109L179.326 190.775L174.727 161.479L167.679 159.795L106.935 164.083Z" fill="#4643D2"/>
<path opacity="0.4" d="M167.689 159.795L106.939 164.083C107.061 164.75 110.42 196.207 110.42 196.207L171.782 191.939L167.689 159.795Z" fill="black"/>
<path d="M151.543 161.036L117.881 163.309L115.938 128.58L150.516 127.018L151.543 161.036Z" fill="#455A64"/>
<path d="M128.492 128.011L129.203 138.714L131.004 137.687L132.002 138.714L133.243 137.687L135.16 138.714V127.709L128.492 128.011Z" fill="#263238"/>
<path d="M142.562 161.761L140.26 135.696L162.761 141.897L164.932 159.887L142.562 161.761Z" fill="#4643D2"/>
<path d="M162.763 141.897C162.767 141.902 162.719 141.966 162.621 142.082C162.51 142.219 162.363 142.384 162.188 142.593C161.784 143.056 161.225 143.694 160.533 144.482C159.088 146.103 157.087 148.347 154.78 150.931L154.693 151.029L154.6 150.931C153.641 149.924 152.604 148.843 151.539 147.724C148.419 144.424 145.591 141.44 143.522 139.25C142.519 138.174 141.702 137.293 141.113 136.66C140.845 136.368 140.631 136.13 140.465 135.95C140.319 135.784 140.246 135.696 140.251 135.692C140.256 135.687 140.344 135.765 140.499 135.916C140.675 136.091 140.899 136.315 141.181 136.597C141.784 137.215 142.622 138.077 143.649 139.128C145.732 141.304 148.574 144.268 151.719 147.548C152.785 148.668 153.816 149.753 154.775 150.766L154.595 150.771C156.927 148.21 158.952 145.986 160.412 144.38C161.127 143.611 161.702 142.988 162.12 142.54C162.31 142.34 162.461 142.18 162.583 142.053C162.699 141.946 162.758 141.893 162.763 141.897Z" fill="#263238"/>
<path d="M150.146 146.726C150.21 146.76 148.603 149.836 146.564 153.599C144.525 157.361 142.821 160.384 142.758 160.35C142.694 160.315 144.301 157.239 146.34 153.477C148.379 149.719 150.083 146.692 150.146 146.726Z" fill="#263238"/>
<path d="M164.408 159.887C164.35 159.921 162.787 157.429 160.923 154.324C159.059 151.214 157.599 148.663 157.657 148.629C157.715 148.595 159.278 151.082 161.142 154.192C163.006 157.303 164.471 159.853 164.408 159.887Z" fill="#263238"/>
<path d="M154.645 160.744L153.18 144.146L167.509 148.094L168.891 159.552L154.645 160.744Z" fill="#4643D2"/>
<path opacity="0.4" d="M154.645 160.744L153.18 144.146L167.509 148.094L168.891 159.552L154.645 160.744Z" fill="white"/>
<path d="M167.508 148.094C167.518 148.103 167.392 148.264 167.153 148.551C166.885 148.863 166.535 149.272 166.112 149.763C165.177 150.819 163.916 152.241 162.461 153.881L162.373 153.978L162.281 153.881C161.668 153.238 161.011 152.552 160.329 151.837C158.329 149.734 156.528 147.826 155.233 146.434C154.61 145.757 154.099 145.198 153.71 144.774C153.354 144.38 153.164 144.156 153.174 144.141C153.189 144.132 153.403 144.331 153.778 144.706C154.182 145.115 154.712 145.655 155.36 146.307C156.688 147.67 158.509 149.559 160.509 151.661C161.186 152.377 161.843 153.068 162.456 153.711L162.276 153.715C163.756 152.1 165.041 150.698 165.995 149.656C166.443 149.184 166.808 148.795 167.09 148.493C167.353 148.225 167.499 148.084 167.508 148.094Z" fill="#263238"/>
<path d="M159.472 151.17C159.536 151.204 158.533 153.17 157.233 155.57C155.934 157.965 154.829 159.882 154.77 159.848C154.707 159.814 155.71 157.848 157.009 155.448C158.309 153.054 159.414 151.136 159.472 151.17Z" fill="#263238"/>
<path d="M168.56 159.551C168.501 159.586 167.489 158.013 166.301 156.032C165.114 154.051 164.199 152.416 164.262 152.382C164.32 152.348 165.333 153.92 166.52 155.901C167.703 157.882 168.618 159.517 168.56 159.551Z" fill="#263238"/>
<path d="M163.78 147.393V148.731L165.873 148.97L165.985 147.953L163.78 147.393Z" fill="white"/>
<path d="M156.392 140.622C156.392 140.763 156.392 142.574 156.392 142.574L160.344 143.226L160.563 141.742L156.392 140.622Z" fill="white"/>
<path d="M140.967 171.471L140.773 161.761L132.897 162.296L133.744 172.153L140.967 171.471Z" fill="#4643D2"/>
<path d="M166.61 176.577L153.396 177.83L154.505 189.517L167.718 188.264L166.61 176.577Z" fill="#FAFAFA"/>
<path d="M167.723 188.273C167.718 188.269 167.708 188.196 167.689 188.05C167.669 187.889 167.645 187.68 167.616 187.417C167.557 186.847 167.47 186.049 167.363 185.037C167.153 182.983 166.861 180.082 166.506 176.592L166.623 176.689C162.817 177.054 158.28 177.492 153.413 177.96C153.389 177.989 153.627 177.697 153.525 177.823V177.828V177.833V177.848V177.872L153.53 177.921L153.539 178.018L153.559 178.218L153.598 178.612C153.622 178.875 153.647 179.138 153.671 179.4C153.72 179.921 153.768 180.442 153.817 180.953C153.914 181.98 154.007 182.988 154.099 183.966C154.279 185.927 154.454 187.787 154.615 189.505L154.493 189.403C158.412 189.052 161.697 188.76 164.029 188.556C165.177 188.458 166.092 188.381 166.735 188.327C167.037 188.303 167.275 188.283 167.46 188.273C167.63 188.273 167.718 188.269 167.723 188.273C167.728 188.278 167.65 188.288 167.494 188.308C167.319 188.327 167.085 188.356 166.793 188.385C166.156 188.454 165.25 188.551 164.116 188.668C161.77 188.901 158.465 189.237 154.523 189.636L154.411 189.646L154.401 189.534C154.235 187.816 154.055 185.957 153.866 183.995C153.773 183.017 153.676 182.009 153.578 180.982C153.53 180.471 153.481 179.95 153.432 179.43C153.408 179.167 153.384 178.904 153.359 178.641L153.32 178.247L153.301 178.047L153.291 177.95L153.286 177.901V177.877V177.862V177.857V177.853C153.184 177.974 153.423 177.682 153.403 177.711C158.27 177.259 162.807 176.835 166.618 176.48L166.725 176.47L166.735 176.577C167.046 180.096 167.304 183.027 167.489 185.1C167.572 186.103 167.64 186.896 167.684 187.461C167.703 187.714 167.718 187.918 167.728 188.074C167.723 188.205 167.728 188.273 167.723 188.273Z" fill="#263238"/>
<path d="M165.58 179.386C165.59 179.454 163.278 179.756 160.421 180.057C157.564 180.359 155.242 180.544 155.237 180.476C155.228 180.408 157.54 180.106 160.397 179.804C163.254 179.503 165.576 179.318 165.58 179.386Z" fill="#263238"/>
<path d="M165.503 181.372C165.508 181.406 164.967 181.547 164.081 181.722C163.196 181.897 161.964 182.102 160.596 182.262C159.229 182.423 157.983 182.51 157.077 182.54C156.177 182.574 155.617 182.559 155.612 182.525C155.612 182.486 156.167 182.437 157.063 182.36C157.958 182.282 159.2 182.165 160.562 182.009C161.925 181.849 163.157 181.673 164.047 181.542C164.943 181.415 165.498 181.333 165.503 181.372Z" fill="#263238"/>
<path d="M166.062 185.713C166.067 185.747 165.527 185.889 164.641 186.064C163.755 186.239 162.524 186.443 161.156 186.604C159.788 186.765 158.542 186.852 157.637 186.881C156.736 186.916 156.177 186.901 156.172 186.867C156.172 186.833 156.727 186.779 157.622 186.701C158.518 186.623 159.759 186.507 161.122 186.351C162.485 186.19 163.716 186.015 164.607 185.884C165.503 185.757 166.053 185.674 166.062 185.713Z" fill="#263238"/>
<path d="M165.396 183.489C165.406 183.557 163.25 183.922 160.577 184.307C157.905 184.686 155.734 184.939 155.725 184.871C155.715 184.803 157.871 184.438 160.543 184.053C163.215 183.674 165.386 183.421 165.396 183.489Z" fill="#263238"/>
<path d="M177.064 201.585C177.064 201.585 187.942 194.392 188.779 190.707C189.616 187.027 190.118 183.679 190.118 183.679L178.495 178.865L179.648 183.051C179.648 183.051 175.482 185.528 175.053 188.531C174.771 190.532 169.383 193.958 169.383 193.958C168.468 192.853 167.076 192.26 165.645 192.357L161.118 192.678L164.175 199.58L177.064 201.585Z" fill="#FFDBCD"/>
<path d="M181.313 191.724C181.317 191.739 181.137 191.826 180.797 191.934C180.456 192.045 179.95 192.157 179.356 192.352C178.752 192.537 178.12 192.922 177.467 193.447C176.82 193.968 176.061 194.552 175.141 194.922C173.315 195.711 171.442 195.657 170.205 195.336C169.899 195.253 169.607 195.185 169.378 195.029C169.149 194.888 169.027 194.62 169.076 194.426C169.105 194.231 169.227 194.109 169.319 194.075C169.417 194.041 169.47 194.061 169.47 194.065C169.47 194.075 169.417 194.075 169.344 194.119C169.271 194.163 169.188 194.275 169.173 194.435C169.149 194.601 169.246 194.786 169.456 194.907C169.655 195.034 169.938 195.092 170.244 195.156C171.461 195.423 173.272 195.443 175.039 194.684C175.929 194.323 176.654 193.773 177.321 193.257C177.983 192.742 178.67 192.342 179.297 192.177C179.916 191.997 180.422 191.914 180.767 191.831C181.118 191.758 181.308 191.705 181.313 191.724Z" fill="#DFB8AC"/>
<path d="M173.779 197.307C173.759 197.341 173.219 197.025 172.294 196.64C171.369 196.26 170.041 195.847 168.522 195.701C168.142 195.662 167.767 195.647 167.407 195.642H167.339L167.305 195.589C166.633 194.528 165.864 193.725 165.28 193.199C164.696 192.668 164.302 192.396 164.326 192.367C164.336 192.357 164.443 192.41 164.628 192.522C164.813 192.639 165.076 192.824 165.387 193.072C166.01 193.574 166.813 194.372 167.514 195.448L167.412 195.389C167.782 195.394 168.162 195.404 168.551 195.448C170.104 195.594 171.452 196.046 172.372 196.475C172.834 196.684 173.19 196.893 173.428 197.044C173.662 197.195 173.788 197.292 173.779 197.307Z" fill="#DFB8AC"/>
<path d="M176.718 195.326C176.742 195.399 175.983 195.672 175.126 196.158C174.269 196.64 173.641 197.151 173.593 197.098C173.544 197.054 174.114 196.441 174.999 195.939C175.885 195.433 176.703 195.263 176.718 195.326Z" fill="#DFB8AC"/>
<path d="M182.606 182.389C182.596 182.467 181.852 182.374 180.98 182.608C180.109 182.827 179.501 183.275 179.457 183.211C179.408 183.168 179.983 182.603 180.917 182.364C181.852 182.111 182.63 182.326 182.606 182.389Z" fill="#DFB8AC"/>
<path d="M23.9178 178.232C25.3537 179.935 27.7679 179.113 28.8143 177.901C29.8608 176.689 30.2015 175.039 30.5082 173.467C31.2042 169.875 31.8905 166.112 30.8246 162.613C30.5033 161.566 30.0117 160.539 29.194 159.814C28.3763 159.089 27.1789 158.724 26.1519 159.094C24.9351 159.536 24.2683 160.826 23.8156 162.033C22.4771 165.591 21.9417 169.456 22.2678 173.243C22.4138 175.019 22.7886 176.859 23.9178 178.232Z" fill="#4643D2"/>
<g opacity="0.2">
<g opacity="0.2">
<g opacity="0.2">
<path opacity="0.2" d="M23.9178 178.232C25.3537 179.935 27.7679 179.113 28.8143 177.901C29.8608 176.689 30.2015 175.039 30.5082 173.467C31.2042 169.875 31.8905 166.112 30.8246 162.613C30.5033 161.566 30.0117 160.539 29.194 159.814C28.3763 159.089 27.1789 158.724 26.1519 159.094C24.9351 159.536 24.2683 160.826 23.8156 162.033C22.4771 165.591 21.9417 169.456 22.2678 173.243C22.4138 175.019 22.7886 176.859 23.9178 178.232Z" fill="black"/>
</g>
</g>
</g>
<path d="M29.5004 187.003C31.4863 185.742 33.9199 185.387 36.266 185.562C37.5266 185.655 38.8505 185.913 39.7802 186.769C40.7099 187.626 41.0116 189.252 40.116 190.137C39.5806 190.663 38.7824 190.809 38.0328 190.868C36.2222 191.009 34.1876 190.868 32.8443 192.084C32.0752 192.78 31.6177 193.861 30.6637 194.25C29.7292 194.635 28.5902 194.163 28.0013 193.34C27.4123 192.518 27.3004 191.432 27.4513 190.429C27.4415 190.429 27.5048 188.273 29.5004 187.003Z" fill="#4643D2"/>
<path d="M20.6563 181.147C21.8926 179.385 21.9413 176.971 21.1431 174.976C20.3448 172.98 18.8019 171.354 17.074 170.074C15.0492 168.57 12.7274 167.465 10.284 166.842C9.32031 166.599 8.31277 166.429 7.3393 166.609C6.36584 166.789 5.41671 167.383 5.03705 168.298C4.47244 169.651 5.26582 171.165 6.08353 172.381C7.52426 174.528 9.13535 176.562 10.8973 178.456C12.3137 179.979 13.9102 181.464 15.9155 182.033C17.916 182.598 19.9214 182.335 20.8267 180.899" fill="#4643D2"/>
<path d="M26.2782 205.635C26.3025 205.635 26.3122 205.338 26.3171 204.798C26.322 204.194 26.3268 203.43 26.3366 202.525C26.3561 201.566 26.395 200.427 26.5459 199.176C26.6968 197.925 26.9888 196.562 27.3977 195.17C27.826 193.783 28.3809 192.508 29.072 191.466C29.7583 190.42 30.5955 189.631 31.4035 189.149C32.2066 188.658 32.9513 188.419 33.4624 188.297C33.9832 188.195 34.2752 188.127 34.2752 188.103C34.2752 188.078 33.9783 188.103 33.438 188.166C32.9075 188.249 32.1287 188.458 31.2769 188.94C30.4203 189.412 29.5296 190.22 28.8092 191.286C28.0791 192.352 27.4999 193.656 27.0667 195.068C26.653 196.484 26.3658 197.862 26.2295 199.137C26.0932 200.407 26.0786 201.561 26.0883 202.52C26.1029 203.484 26.1468 204.257 26.1808 204.798C26.2198 205.343 26.2538 205.64 26.2782 205.635Z" fill="#263238"/>
<path d="M26.2787 203.888C26.2884 203.888 26.2836 203.751 26.269 203.503C26.2446 203.216 26.2106 202.851 26.1667 202.408C26.0791 201.459 25.9575 200.081 25.8552 198.378C25.6362 194.976 25.5097 190.259 25.6119 185.056C25.719 179.848 26.0597 175.146 26.4491 171.758C26.5367 170.912 26.634 170.143 26.7265 169.476C26.8141 168.804 26.8871 168.225 26.9699 167.753C27.0331 167.31 27.0867 166.95 27.1305 166.667C27.1646 166.419 27.1743 166.288 27.1646 166.283C27.1548 166.283 27.1207 166.409 27.0623 166.653C27.0039 166.935 26.9309 167.29 26.8384 167.728C26.7362 168.196 26.6437 168.775 26.5367 169.442C26.4247 170.113 26.3079 170.877 26.2057 171.724C25.753 175.112 25.3734 179.828 25.2663 185.046C25.1641 190.259 25.3247 194.985 25.607 198.393C25.7384 200.096 25.899 201.474 26.0256 202.418C26.0937 202.861 26.1473 203.221 26.1911 203.508C26.2398 203.761 26.2641 203.893 26.2787 203.888Z" fill="#263238"/>
<path d="M25.4905 194.82C25.5149 194.815 25.4759 194.411 25.3786 193.676C25.2715 192.946 25.0768 191.89 24.7507 190.61C24.4148 189.329 23.9719 187.816 23.3392 186.185C22.7307 184.545 21.9374 182.788 20.9736 181.011C19.0754 177.434 16.6758 174.586 14.6558 172.873C14.1788 172.411 13.6629 172.094 13.2443 171.778C13.0301 171.627 12.8355 171.471 12.6456 171.354C12.4509 171.247 12.2757 171.145 12.1102 171.053C11.4629 170.692 11.1027 170.503 11.093 170.522C11.0443 170.6 12.5386 171.311 14.5001 173.058C16.4568 174.8 18.7931 177.633 20.6767 181.177C21.6356 182.939 22.429 184.676 23.0471 186.302C23.6896 187.918 24.1569 189.412 24.5171 190.678C24.8675 191.943 25.1011 192.985 25.2472 193.705C25.3834 194.421 25.4662 194.82 25.4905 194.82Z" fill="#263238"/>
</svg>
