<svg width="280" height="67" viewBox="0 0 280 67" fill="none" xmlns="http://www.w3.org/2000/svg">
<path d="M0 3.37158H6.15626V38.5932H25.5556V43.7581H0V3.37158Z" fill="#4643D2"/>
<path d="M26.4863 28.7654C26.4863 18.6509 33.5732 12.9121 41.4475 12.9121C49.3933 12.9121 56.4086 18.7226 56.4086 28.7654C56.4086 38.7365 49.3218 44.547 41.4475 44.547C33.5732 44.547 26.4863 38.7365 26.4863 28.7654ZM50.1808 28.7654C50.1808 22.2376 46.8163 17.9335 41.4475 17.9335C36.1502 17.9335 32.7142 22.2376 32.7142 28.7654C32.7142 35.2215 36.0786 39.4539 41.4475 39.4539C46.8163 39.4539 50.1808 35.2215 50.1808 28.7654Z" fill="#4643D2"/>
<path d="M139.232 35.7956C139.232 29.0525 145.389 25.681 160.565 24.5333C160.35 20.8031 158.345 17.7902 152.977 17.7902C149.326 17.7902 145.747 19.4401 142.812 21.1617L140.449 17.0729C143.814 14.9926 148.825 12.7688 154.05 12.7688C162.354 12.7688 166.649 17.575 166.649 25.5375V43.7581H161.567L161.066 39.8127H160.851C157.63 42.3234 153.478 44.4754 149.326 44.4754C143.671 44.5472 139.232 41.1039 139.232 35.7956ZM160.565 35.5804V28.5504C148.753 29.4112 145.246 31.7784 145.246 35.3652C145.246 38.378 147.966 39.6692 151.187 39.6692C154.408 39.6692 157.486 38.0911 160.565 35.5804Z" fill="#4643D2"/>
<path d="M179.964 33.2131V4.87794H169.584V0H186.048V33.5717C186.048 37.7323 188.411 39.454 191.704 39.454C193.35 39.454 195.14 39.0236 197.072 38.1627L198.576 42.7537C195.712 43.9015 193.708 44.4754 190.272 44.4754C183.615 44.5471 179.964 40.4582 179.964 33.2131Z" fill="#4643D2"/>
<path d="M210.746 33.2131V4.87794H200.438V0H216.902V33.5717C216.902 37.7323 219.264 39.454 222.557 39.454C224.204 39.454 225.993 39.0236 227.926 38.1627L229.429 42.7537C226.566 43.9015 224.561 44.4754 221.125 44.4754C214.396 44.5471 210.746 40.4582 210.746 33.2131Z" fill="#4643D2"/>
<path d="M234.011 19.7272C238.234 17.4317 240.597 13.9884 240.597 9.3974L239.594 4.30425L243.03 8.68006C241.957 9.75607 240.453 10.6169 239.022 10.6169C236.23 10.6169 234.297 8.68006 234.297 5.88241C234.297 2.79783 236.373 0.717529 239.236 0.717529C242.816 0.717529 245.25 3.73038 245.25 8.89526C245.25 15.2079 241.885 20.301 235.944 23.2422L234.011 19.7272Z" fill="#4643D2"/>
<path d="M249.688 55.8095L250.904 51.0033C251.692 51.2185 252.623 51.4337 253.553 51.4337C257.562 51.4337 259.924 49.0665 261.284 45.6949L262.072 43.6146L248.256 13.6296H254.412L261.141 29.2678C262.286 31.9937 263.503 35.15 264.649 38.0911H264.863C265.866 35.2217 267.011 32.0654 267.942 29.2678L273.883 13.6296H279.753L266.796 45.6949C264.362 52.0793 260.712 56.4551 253.696 56.4551C252.265 56.4551 250.761 56.1682 249.688 55.8095Z" fill="#4643D2"/>
<path d="M100.791 67L99.3597 65.9957C98.3576 65.2784 73.9473 48.0621 73.9473 26.9722C73.9473 13.3426 86.7609 0.86084 100.791 0.86084C114.965 0.86084 125.416 12.1949 127.278 23.1703L127.779 26.1114H109.883L109.167 24.6767C107.592 21.3769 104.371 19.3683 100.72 19.3683C95.5658 19.3683 91.3423 23.6007 91.3423 28.7655C91.3423 33.9304 95.5658 38.1628 100.72 38.1628C104.8 38.1628 108.451 35.5086 109.668 31.5632L114.464 33.0696C112.531 39.0953 107.019 43.1124 100.72 43.1124C92.774 43.1124 86.3314 36.6563 86.3314 28.6938C86.3314 20.7313 92.774 14.2752 100.72 14.2752C105.659 14.2752 110.312 16.8576 112.889 21.0182H121.479C118.759 13.2709 110.813 5.81052 100.72 5.81052C88.2641 5.81052 78.8866 16.9294 78.8866 26.9005C78.8866 42.6103 95.6373 56.8137 100.72 60.7591C105.23 57.2441 119.189 45.4797 122.052 31.7784L126.991 32.7827C123.197 51.2184 103.082 65.4219 102.223 65.9957L100.791 67Z" fill="white"/>
</svg>
