<svg width="6" height="16" viewBox="0 0 6 16" fill="none" xmlns="http://www.w3.org/2000/svg">
<path d="M3.408 15.192C2.688 15.192 2.096 14.984 1.632 14.568C1.184 14.136 0.96 13.608 0.96 12.984C0.96 12.344 1.184 11.808 1.632 11.376C2.096 10.944 2.688 10.728 3.408 10.728C4.112 10.728 4.688 10.944 5.136 11.376C5.6 11.808 5.832 12.344 5.832 12.984C5.832 13.608 5.6 14.136 5.136 14.568C4.688 14.984 4.112 15.192 3.408 15.192ZM3.408 5.424C2.688 5.424 2.096 5.216 1.632 4.8C1.184 4.368 0.96 3.84 0.96 3.216C0.96 2.576 1.184 2.04 1.632 1.608C2.096 1.176 2.688 0.959999 3.408 0.959999C4.112 0.959999 4.688 1.176 5.136 1.608C5.6 2.04 5.832 2.576 5.832 3.216C5.832 3.84 5.6 4.368 5.136 4.8C4.688 5.216 4.112 5.424 3.408 5.424Z" fill="#455A64"/>
</svg>
