<svg width="341" height="225" viewBox="0 0 341 225" fill="none" xmlns="http://www.w3.org/2000/svg">
<path d="M314.745 7.74976H248.562V126.641H314.745V7.74976Z" fill="#A5A4DB"/>
<path d="M311.415 11.2009H251.207V123.099H311.415V11.2009Z" fill="#E9E9FF"/>
<path d="M317.541 127.71L314.744 126.641V5.73285H317.541V127.71Z" fill="#E9E9FF"/>
<path d="M312.723 43.3904H251.207V44.5812H312.723V43.3904Z" fill="#E9E9FF"/>
<path d="M312.723 70.0359H251.207V71.2268H312.723V70.0359Z" fill="#E9E9FF"/>
<path d="M312.723 96.6865H251.207V97.8774H312.723V96.6865Z" fill="#E9E9FF"/>
<path d="M279.793 43.9839V126.272H282.834V43.9839H279.793Z" fill="#E9E9FF"/>
<path d="M264.18 11.2009H262.802V43.9883H264.18V11.2009Z" fill="#E9E9FF"/>
<path d="M276.069 11.2009H274.69V43.9883H276.069V11.2009Z" fill="#E9E9FF"/>
<path d="M287.952 11.2009H286.573V43.9883H287.952V11.2009Z" fill="#E9E9FF"/>
<path d="M299.84 11.2009H298.462V43.9883H299.84V11.2009Z" fill="#E9E9FF"/>
<path d="M248.561 5.73285H245.764V127.376H248.561V5.73285Z" fill="#E9E9FF"/>
<path d="M317.541 4.50656H245.764V7.74984H317.541V4.50656Z" fill="#E9E9FF"/>
<path d="M319.437 128.111H243.777V131.131H319.437V128.111Z" fill="#E9E9FF"/>
<path d="M314.744 126.641L319.437 128.111H243.777L248.561 126.641H314.744Z" fill="#E9E9FF"/>
<path d="M32.6961 155.826H12.2432V161.238H32.6961V155.826Z" fill="#A5A4DB"/>
<path d="M24.0513 166.934C24.0513 166.934 24.0463 166.898 24.0463 166.838C24.0463 166.767 24.0412 166.675 24.0412 166.559C24.0361 166.305 24.0311 165.951 24.026 165.495C24.0159 164.562 24.0057 163.219 23.9905 161.527L24.0564 161.588C19.384 161.598 11.96 161.613 3.60349 161.628C3.6491 161.582 3.49707 161.734 3.70484 161.522V161.527V161.532V161.542V161.562V161.608V161.694V161.866V162.211C3.70484 162.444 3.70484 162.672 3.70484 162.9C3.70484 163.356 3.70484 163.812 3.70484 164.263C3.70484 165.165 3.70484 166.052 3.70484 166.924L3.60349 166.822C9.42618 166.843 14.5242 166.858 18.178 166.868C19.9972 166.878 21.4618 166.888 22.4804 166.898C22.977 166.903 23.3672 166.909 23.6459 166.914C23.7726 166.919 23.8689 166.919 23.95 166.919C24.0108 166.929 24.0463 166.934 24.0513 166.934C24.0513 166.934 24.0209 166.939 23.955 166.939C23.879 166.939 23.7827 166.944 23.6611 166.944C23.3875 166.949 23.0074 166.954 22.5209 166.959C21.5074 166.964 20.053 166.974 18.2438 166.99C14.5698 167 9.45152 167.015 3.59842 167.035H3.49707V166.934C3.49707 166.062 3.49707 165.175 3.49707 164.273C3.49707 163.822 3.49707 163.366 3.49707 162.91C3.49707 162.682 3.49707 162.449 3.49707 162.221V161.876V161.704V161.618V161.572V161.552V161.542V161.537V161.532C3.70484 161.324 3.55788 161.476 3.60349 161.425C11.96 161.441 19.384 161.456 24.0564 161.466H24.1223V161.532C24.1071 163.24 24.0969 164.598 24.0868 165.54C24.0817 165.991 24.0767 166.341 24.0716 166.589C24.0665 166.701 24.0665 166.787 24.0665 166.858C24.0513 166.909 24.0513 166.939 24.0513 166.934Z" fill="#E9E9FF"/>
<path d="M28.4693 15.9747C28.4693 15.9747 28.4642 15.9392 28.4642 15.8784C28.4642 15.8074 28.4592 15.7162 28.4592 15.5997C28.4541 15.3463 28.449 14.9915 28.444 14.5355C28.4338 13.603 28.4237 12.2601 28.4085 10.5675L28.4744 10.6283C23.802 10.6385 16.378 10.6537 8.02146 10.6689C8.06707 10.6233 7.91504 10.7753 8.12281 10.5624V10.5675V10.5726V10.5827V10.603V10.6486V10.7347V10.907V11.2516C8.12281 11.4848 8.12281 11.7128 8.12281 11.9408C8.12281 12.3969 8.12281 12.853 8.12281 13.304C8.12281 14.2061 8.12281 15.0929 8.12281 15.9645L8.02146 15.8632C13.8442 15.8834 18.9422 15.8986 22.5959 15.9088C24.4152 15.9189 25.8797 15.9291 26.8983 15.9392C27.395 15.9443 27.7852 15.9493 28.0639 15.9544C28.1906 15.9595 28.2869 15.9595 28.3679 15.9595C28.4288 15.9696 28.4642 15.9747 28.4693 15.9747C28.4693 15.9747 28.4389 15.9797 28.373 15.9797C28.297 15.9797 28.2007 15.9848 28.0791 15.9848C27.8054 15.9899 27.4254 15.9949 26.9389 16C25.9254 16.0051 24.4709 16.0152 22.6618 16.0304C18.9878 16.0405 13.8695 16.0557 8.01639 16.076H7.91504V15.9747C7.91504 15.103 7.91504 14.2162 7.91504 13.3142C7.91504 12.8631 7.91504 12.4071 7.91504 11.951C7.91504 11.7229 7.91504 11.4898 7.91504 11.2618V10.9172V10.7449V10.6587V10.6131V10.5929V10.5827V10.5777V10.5726C8.12281 10.3648 7.97585 10.5168 8.02146 10.4662C16.378 10.4814 23.802 10.4966 28.4744 10.5067H28.5402V10.5726C28.525 12.2804 28.5149 13.6385 28.5048 14.5811C28.4997 15.0321 28.4946 15.3818 28.4896 15.6301C28.4845 15.7416 28.4845 15.8277 28.4845 15.8987C28.4744 15.9493 28.4693 15.9797 28.4693 15.9747Z" fill="#E9E9FF"/>
<path d="M340.929 158.537C340.929 158.537 340.924 158.501 340.924 158.441C340.924 158.37 340.919 158.278 340.919 158.162C340.914 157.908 340.909 157.554 340.904 157.098C340.894 156.165 340.884 154.822 340.868 153.13L340.934 153.19C336.262 153.201 328.838 153.216 320.481 153.231C320.527 153.185 320.375 153.337 320.583 153.125V153.13V153.135V153.145V153.165V153.211V153.297V153.469V153.814C320.583 154.047 320.583 154.275 320.583 154.503C320.583 154.959 320.583 155.415 320.583 155.866C320.583 156.768 320.583 157.655 320.583 158.527L320.481 158.425C326.304 158.446 331.402 158.461 335.056 158.471C336.875 158.481 338.34 158.491 339.358 158.501C339.855 158.506 340.245 158.511 340.524 158.517C340.651 158.522 340.747 158.522 340.828 158.522C340.889 158.532 340.924 158.532 340.929 158.537C340.929 158.537 340.899 158.542 340.833 158.542C340.757 158.542 340.661 158.547 340.539 158.547C340.265 158.552 339.885 158.557 339.399 158.562C338.385 158.567 336.931 158.577 335.122 158.593C331.448 158.603 326.329 158.618 320.476 158.638H320.375V158.537C320.375 157.665 320.375 156.778 320.375 155.876C320.375 155.425 320.375 154.969 320.375 154.513C320.375 154.285 320.375 154.052 320.375 153.824V153.479V153.307V153.221V153.175V153.155V153.145V153.14V153.135C320.583 152.927 320.436 153.079 320.481 153.028C328.838 153.044 336.262 153.059 340.934 153.069H341V153.135C340.985 154.843 340.975 156.201 340.965 157.143C340.96 157.594 340.955 157.944 340.95 158.192C340.944 158.304 340.944 158.39 340.944 158.461C340.929 158.511 340.929 158.537 340.929 158.537Z" fill="#E9E9FF"/>
<path d="M68.5796 47.4649C68.5796 47.4649 68.5746 47.4294 68.5746 47.3686C68.5746 47.2977 68.5695 47.2065 68.5695 47.0899C68.5644 46.8365 68.5594 46.4818 68.5543 46.0257C68.5442 45.0933 68.534 43.7503 68.5188 42.0578L68.5847 42.1236C63.9124 42.1338 56.4883 42.149 48.1318 42.1642C48.1774 42.1186 48.0254 42.2706 48.2332 42.0578V42.0628V42.073V42.0932V42.1388V42.225V42.3973V42.7419C48.2332 42.975 48.2332 43.203 48.2332 43.4311C48.2332 43.8922 48.2332 44.3432 48.2332 44.7943C48.2332 45.6963 48.2332 46.5831 48.2332 47.4548L48.1318 47.3534C53.9545 47.3737 59.0525 47.3889 62.7063 47.399C64.5255 47.4092 65.9901 47.4193 67.0087 47.4294C67.5053 47.4345 67.8955 47.4396 68.1742 47.4446C68.3009 47.4497 68.3972 47.4497 68.4783 47.4497C68.5442 47.4598 68.5796 47.4598 68.5796 47.4649C68.5796 47.4649 68.5492 47.47 68.4834 47.47C68.4073 47.47 68.3111 47.475 68.1894 47.475C67.9158 47.4801 67.5357 47.4852 67.0492 47.4902C66.0357 47.4953 64.5813 47.5054 62.7722 47.5206C59.0981 47.5308 53.9798 47.5511 48.1267 47.5663H48.0254V47.4649C48.0254 46.5933 48.0254 45.7064 48.0254 44.8044C48.0254 44.3534 48.0254 43.8973 48.0254 43.4412C48.0254 43.2132 48.0254 42.9801 48.0254 42.752V42.4074V42.2351V42.149V42.1034V42.0831V42.0628V42.0578V42.0527C48.2332 41.8449 48.0862 41.9969 48.1318 41.9463C56.4883 41.9615 63.9124 41.9767 68.5847 41.9868H68.6506V42.0476C68.6354 43.7554 68.6252 45.1135 68.6151 46.0561C68.61 46.5071 68.605 46.8568 68.5999 47.1051C68.5948 47.2166 68.5948 47.3027 68.5948 47.3737C68.5847 47.4396 68.5847 47.4649 68.5796 47.4649Z" fill="#E9E9FF"/>
<path d="M71.3574 42.0526C71.3523 42.0476 71.3523 42.0172 71.3472 41.9513C71.3472 41.8753 71.3422 41.779 71.3371 41.6624C71.332 41.3938 71.327 41.034 71.3168 40.5779C71.3067 39.6303 71.2915 38.2874 71.2763 36.6404L71.3523 36.7164C68.1698 36.7215 63.837 36.7367 59.0633 36.7468C58.9721 36.838 59.19 36.6201 59.1647 36.6455V36.6505V36.6556V36.6657V36.686V36.7316V36.8228V36.9951V37.3499C59.1647 37.583 59.1647 37.8212 59.1647 38.0492C59.1647 38.5154 59.1647 38.9715 59.1647 39.4276C59.1647 40.3347 59.1647 41.2114 59.1596 42.0526L59.0583 41.9513C62.6056 41.9715 65.6614 41.9867 67.8506 41.9969C68.93 42.007 69.7965 42.0172 70.4097 42.0222C70.6986 42.0273 70.9266 42.0324 71.0989 42.0324C71.2662 42.0476 71.3523 42.0476 71.3574 42.0526C71.3624 42.0577 71.2864 42.0628 71.1344 42.0628C70.9672 42.0678 70.7442 42.0678 70.4655 42.0729C69.8574 42.078 68.9959 42.0881 67.9266 42.0982C65.7222 42.1084 62.6411 42.1286 59.0684 42.1438H58.9671V42.0425C58.9671 41.2013 58.967 40.3246 58.962 39.4175C58.962 38.9664 58.962 38.5053 58.962 38.0391C58.962 37.806 58.962 37.5729 58.962 37.3397V36.985V36.8076V36.7164V36.6708V36.6505V36.6404V36.6353V36.6303C58.9366 36.6505 59.1596 36.4326 59.0684 36.5239C63.8421 36.534 68.1749 36.5441 71.3574 36.5543H71.4334V36.6303C71.4182 38.2975 71.403 39.6506 71.3928 40.6134C71.3827 41.0644 71.3776 41.4192 71.3726 41.6827C71.3675 41.9361 71.3624 42.0577 71.3574 42.0526Z" fill="#E9E9FF"/>
<path d="M338.101 45.6911C338.101 45.6911 338.096 45.6556 338.096 45.5948C338.096 45.5239 338.091 45.4326 338.091 45.3161C338.086 45.0627 338.081 44.708 338.076 44.2519C338.066 43.3195 338.056 41.9765 338.04 40.2839L338.106 40.3498C333.434 40.36 326.01 40.3752 317.653 40.3904C317.699 40.3448 317.547 40.4968 317.755 40.2839V40.289V40.2941V40.3042V40.3245V40.3701V40.4563V40.6285V40.9731C317.755 41.2063 317.755 41.4343 317.755 41.6623C317.755 42.1235 317.755 42.5745 317.755 43.0255C317.755 43.9276 317.755 44.8144 317.755 45.686L317.653 45.5847C323.476 45.6049 328.574 45.6202 332.228 45.6303C334.047 45.6404 335.512 45.6506 336.53 45.6607C337.027 45.6658 337.417 45.6708 337.696 45.6759C337.822 45.681 337.919 45.681 338 45.681C338.061 45.6911 338.096 45.6911 338.101 45.6911C338.101 45.6911 338.071 45.6962 338.005 45.6962C337.929 45.6962 337.833 45.7012 337.711 45.7012C337.437 45.7063 337.057 45.7114 336.571 45.7164C335.557 45.7215 334.103 45.7316 332.294 45.7468C328.62 45.757 323.501 45.7722 317.648 45.7924H317.547V45.6911C317.547 44.8195 317.547 43.9326 317.547 43.0306C317.547 42.5796 317.547 42.1235 317.547 41.6674C317.547 41.4394 317.547 41.2063 317.547 40.9782V40.6336V40.4613V40.3752V40.3296V40.3093V40.2992V40.289V40.2839C317.755 40.0762 317.608 40.2282 317.653 40.1775C326.01 40.1927 333.434 40.2079 338.106 40.2181H338.172V40.2839C338.157 41.9917 338.147 43.3499 338.137 44.2924C338.132 44.7435 338.126 45.0931 338.121 45.3414C338.116 45.4529 338.116 45.5391 338.116 45.61C338.106 45.6658 338.101 45.6962 338.101 45.6911Z" fill="#E9E9FF"/>
<path d="M340.873 40.2839C340.868 40.2788 340.868 40.2484 340.863 40.1826C340.863 40.1065 340.858 40.0103 340.853 39.8937C340.848 39.6251 340.843 39.2653 340.833 38.8092C340.823 37.8616 340.807 36.5187 340.792 34.8717L340.868 34.9477C337.686 34.9528 333.353 34.968 328.579 34.9781C328.488 35.0693 328.706 34.8514 328.681 34.8768V34.8818V34.8869V34.897V34.9173V34.9629V35.0541V35.2315V35.5862C328.681 35.8193 328.681 36.0575 328.681 36.2856C328.681 36.7518 328.681 37.2079 328.681 37.664C328.681 38.5711 328.676 39.4478 328.676 40.289L328.574 40.1876C332.122 40.2079 335.177 40.2231 337.366 40.2332C338.446 40.2434 339.312 40.2535 339.926 40.2586C340.215 40.2636 340.443 40.2687 340.615 40.2687C340.787 40.2738 340.868 40.2788 340.873 40.2839C340.878 40.289 340.802 40.294 340.65 40.294C340.483 40.2991 340.26 40.2991 339.981 40.3042C339.373 40.3092 338.512 40.3194 337.443 40.3295C335.238 40.3397 332.157 40.3599 328.584 40.3751H328.483V40.2738C328.483 39.4326 328.483 38.5559 328.478 37.6488C328.478 37.1977 328.478 36.7366 328.478 36.2704C328.478 36.0372 328.478 35.8041 328.478 35.571V35.2163V35.0389V34.9477V34.9173V34.897V34.8869V34.8818V34.8768C328.458 34.897 328.676 34.6791 328.584 34.7703C333.358 34.7805 337.691 34.7906 340.873 34.8008H340.949V34.8768C340.934 36.544 340.919 37.8971 340.909 38.8599C340.899 39.3109 340.894 39.6657 340.888 39.9292C340.883 40.1623 340.878 40.289 340.873 40.2839Z" fill="#E9E9FF"/>
<path d="M32.5955 85.1577H12.1426V90.5699H32.5955V85.1577Z" fill="#E9E9FF"/>
<path d="M47.3006 74.0496H26.8477V79.4618H47.3006V74.0496Z" fill="#A5A4DB"/>
<path d="M38.6509 85.1578C38.6509 85.1578 38.6459 85.1223 38.6459 85.0615C38.6459 84.9906 38.6408 84.8994 38.6408 84.7828C38.6357 84.5294 38.6307 84.1747 38.6256 83.7186C38.6155 82.7862 38.6053 81.4432 38.5901 79.7506L38.656 79.8115C33.9837 79.8216 26.5596 79.8368 18.2031 79.852C18.2487 79.8064 18.0967 79.9584 18.3045 79.7456V79.7506V79.7557V79.7659V79.7861V79.8317V79.9179V80.0902V80.4348C18.3045 80.6679 18.3045 80.8959 18.3045 81.124C18.3045 81.5801 18.3045 82.0361 18.3045 82.4872C18.3045 83.3892 18.3045 84.276 18.3045 85.1477L18.2031 85.0463C24.0258 85.0666 29.1238 85.0818 32.7776 85.0919C34.5968 85.1021 36.0614 85.1122 37.08 85.1223C37.5766 85.1274 37.9668 85.1325 38.2455 85.1375C38.3722 85.1426 38.4685 85.1426 38.5496 85.1426C38.6155 85.1578 38.6509 85.1578 38.6509 85.1578C38.6509 85.1578 38.6205 85.1629 38.5546 85.1629C38.4786 85.1629 38.3823 85.1679 38.2607 85.1679C37.9871 85.173 37.607 85.1781 37.1205 85.1831C36.107 85.1882 34.6526 85.1983 32.8434 85.2135C29.1694 85.2237 24.0511 85.2389 18.198 85.2592H18.0967V85.1578C18.0967 84.2862 18.0967 83.3993 18.0967 82.4973C18.0967 82.0463 18.0967 81.5902 18.0967 81.1341C18.0967 80.9061 18.0967 80.673 18.0967 80.4449V80.1003V79.928V79.8419V79.7963V79.776V79.7659V79.7608V79.7557C18.3045 79.5479 18.1575 79.7 18.2031 79.6493C26.5596 79.6645 33.9837 79.6797 38.656 79.6898H38.7219V79.7557C38.7067 81.4635 38.6965 82.8216 38.6864 83.7642C38.6813 84.2152 38.6763 84.5649 38.6712 84.8132C38.6661 84.9247 38.6661 85.0108 38.6661 85.0818C38.656 85.1325 38.656 85.1629 38.6509 85.1578Z" fill="#E9E9FF"/>
<path d="M244.087 161.172H223.634V166.584H244.087V161.172Z" fill="#E9E9FF"/>
<path d="M258.788 150.059H238.335V155.471H258.788V150.059Z" fill="#A5A4DB"/>
<path d="M250.142 161.172C250.142 161.172 250.137 161.136 250.137 161.076C250.137 161.005 250.132 160.913 250.132 160.797C250.127 160.543 250.122 160.189 250.117 159.733C250.107 158.8 250.097 157.457 250.081 155.765L250.147 155.826C245.475 155.836 238.051 155.851 229.694 155.866C229.74 155.82 229.588 155.972 229.796 155.76V155.765V155.77V155.78V155.8V155.846V155.932V156.104V156.449C229.796 156.682 229.796 156.91 229.796 157.138C229.796 157.594 229.796 158.05 229.796 158.501C229.796 159.403 229.796 160.29 229.796 161.162L229.694 161.06C235.517 161.081 240.615 161.096 244.269 161.106C246.088 161.116 247.553 161.126 248.571 161.136C249.068 161.141 249.458 161.147 249.737 161.152C249.863 161.157 249.96 161.157 250.041 161.157C250.102 161.167 250.137 161.167 250.142 161.172C250.142 161.172 250.112 161.177 250.046 161.177C249.97 161.177 249.874 161.182 249.752 161.182C249.478 161.187 249.098 161.192 248.612 161.197C247.598 161.202 246.144 161.212 244.335 161.228C240.661 161.238 235.542 161.253 229.689 161.273H229.588V161.172C229.588 160.3 229.588 159.413 229.588 158.511C229.588 158.06 229.588 157.604 229.588 157.148C229.588 156.92 229.588 156.687 229.588 156.459V156.114V155.942V155.856V155.81V155.79V155.78V155.775V155.77C229.796 155.562 229.649 155.714 229.694 155.663C238.051 155.679 245.475 155.694 250.147 155.704H250.213V155.765C250.198 157.473 250.188 158.831 250.178 159.773C250.173 160.224 250.167 160.574 250.162 160.822C250.157 160.934 250.157 161.02 250.157 161.091C250.147 161.141 250.142 161.172 250.142 161.172Z" fill="#E9E9FF"/>
<path d="M86.0933 130.462C86.0933 130.462 86.0882 130.427 86.0882 130.366C86.0882 130.295 86.0832 130.204 86.0832 130.087C86.0781 129.834 86.073 129.479 86.068 129.023C86.0578 128.091 86.0477 126.748 86.0325 125.055L86.0984 125.121C81.426 125.131 74.002 125.146 65.6455 125.161C65.6911 125.116 65.5391 125.268 65.7468 125.055V125.06V125.065V125.075V125.096V125.141V125.227V125.4V125.744C65.7468 125.977 65.7468 126.205 65.7468 126.433C65.7468 126.89 65.7468 127.346 65.7468 127.797C65.7468 128.699 65.7468 129.585 65.7468 130.457L65.6455 130.356C71.4682 130.376 76.5662 130.391 80.2199 130.401C82.0392 130.412 83.5038 130.422 84.5224 130.432C85.019 130.437 85.4092 130.442 85.6879 130.447C85.8146 130.452 85.9109 130.452 85.992 130.452C86.0578 130.462 86.0933 130.462 86.0933 130.462C86.0933 130.462 86.0629 130.467 85.997 130.467C85.921 130.467 85.8247 130.472 85.7031 130.472C85.4295 130.477 85.0494 130.482 84.5629 130.488C83.5494 130.493 82.095 130.503 80.2858 130.518C76.6118 130.528 71.4935 130.543 65.6404 130.564H65.5391V130.462C65.5391 129.591 65.5391 128.704 65.5391 127.802C65.5391 127.351 65.5391 126.895 65.5391 126.438C65.5391 126.21 65.5391 125.977 65.5391 125.749V125.405V125.232V125.146V125.101V125.08V125.07V125.065V125.06C65.7468 124.852 65.5999 125.004 65.6455 124.954C74.002 124.969 81.426 124.984 86.0984 124.994H86.1643V125.055C86.1491 126.763 86.1389 128.121 86.1288 129.064C86.1237 129.515 86.1186 129.864 86.1136 130.113C86.1085 130.224 86.1085 130.31 86.1085 130.381C86.0984 130.437 86.0984 130.467 86.0933 130.462Z" fill="#E9E9FF"/>
<path d="M88.8704 125.055C88.8653 125.05 88.8653 125.02 88.8602 124.954C88.8602 124.878 88.8552 124.781 88.8501 124.665C88.845 124.396 88.84 124.036 88.8298 123.58C88.8197 122.633 88.8045 121.29 88.7893 119.643L88.8653 119.719C85.6828 119.724 81.35 119.739 76.5763 119.749C76.4851 119.84 76.703 119.623 76.6777 119.648V119.653V119.658V119.668V119.688V119.734V119.825V120.003V120.357C76.6777 120.59 76.6777 120.829 76.6777 121.057C76.6777 121.523 76.6777 121.979 76.6777 122.435C76.6777 123.342 76.6777 124.219 76.6726 125.06L76.5713 124.959C80.1186 124.979 83.1744 124.994 85.3636 125.004C86.443 125.014 87.3095 125.025 87.9227 125.03C88.2116 125.035 88.4396 125.04 88.6119 125.04C88.7791 125.045 88.8653 125.05 88.8704 125.055C88.8754 125.06 88.7994 125.065 88.6474 125.065C88.4802 125.07 88.2572 125.07 87.9785 125.075C87.3703 125.08 86.5089 125.09 85.4396 125.101C83.2352 125.111 80.1541 125.131 76.5814 125.146H76.48V125.045C76.48 124.204 76.48 123.327 76.475 122.42C76.475 121.969 76.475 121.508 76.475 121.041C76.475 120.808 76.475 120.575 76.475 120.342V119.987V119.81V119.719V119.673V119.653V119.643V119.638V119.633C76.4547 119.653 76.6726 119.435 76.5814 119.526C81.3551 119.536 85.6879 119.547 88.8704 119.557H88.9464V119.633C88.9312 121.3 88.916 122.653 88.9058 123.616C88.8957 124.067 88.8906 124.422 88.8856 124.685C88.8805 124.933 88.8754 125.06 88.8704 125.055Z" fill="#E9E9FF"/>
<path d="M336.049 219.303C336.049 219.373 260.815 219.434 168.032 219.434C75.2186 219.434 0 219.373 0 219.303C0 219.232 75.2186 219.171 168.032 219.171C260.815 219.171 336.049 219.227 336.049 219.303Z" fill="#263238"/>
<path d="M318.211 200.466L321.469 213.389L326.993 222.87C327.393 223.554 327.13 224.431 326.42 224.781C326.025 224.978 325.559 224.973 325.169 224.76C322.69 223.422 313.589 218.456 313.402 217.493C313.189 216.384 309.059 204.09 309.059 204.09L318.211 200.466Z" fill="#4643D2"/>
<g opacity="0.6">
<g opacity="0.6">
<path opacity="0.6" d="M326.415 224.781L313.158 216.627L313.31 217.169C313.442 217.64 313.731 218.051 314.136 218.324C315.216 219.059 318.246 221.015 325.128 224.77C325.528 224.993 326.015 224.993 326.415 224.781Z" fill="white"/>
</g>
</g>
<g opacity="0.6">
<g opacity="0.6">
<g opacity="0.6">
<path opacity="0.6" d="M314.654 211.757C315.039 211.889 315.277 212.35 315.16 212.735C315.044 213.125 314.578 213.373 314.193 213.247C313.807 213.12 313.503 212.578 313.66 212.208C313.823 211.833 314.38 211.574 314.725 211.787" fill="white"/>
</g>
</g>
</g>
<path d="M321.931 219.981C322.012 219.997 322.118 219.242 322.782 218.669C323.431 218.076 324.191 218.061 324.181 217.975C324.181 217.939 323.993 217.883 323.679 217.924C323.37 217.965 322.944 218.127 322.584 218.446C322.225 218.77 322.012 219.171 321.941 219.475C321.865 219.784 321.895 219.981 321.931 219.981Z" fill="#263238"/>
<path d="M323.319 221.446C323.395 221.487 323.694 220.954 324.302 220.579C324.905 220.189 325.514 220.159 325.514 220.073C325.534 219.997 324.84 219.895 324.15 220.331C323.456 220.762 323.243 221.431 323.319 221.446Z" fill="#263238"/>
<path d="M319.615 218.248C319.691 218.294 320.147 217.473 321.044 216.809C321.936 216.13 322.848 215.922 322.828 215.836C322.828 215.76 321.824 215.846 320.867 216.571C319.909 217.286 319.544 218.228 319.615 218.248Z" fill="#263238"/>
<path d="M318.298 214.402C318.353 214.468 318.982 213.976 319.894 213.688C320.806 213.389 321.602 213.419 321.607 213.333C321.627 213.262 320.781 213.09 319.803 213.409C318.825 213.723 318.242 214.351 318.298 214.402Z" fill="#263238"/>
<path d="M317.249 210.632C317.31 210.693 317.903 210.069 318.891 209.846C319.874 209.598 320.69 209.887 320.71 209.806C320.725 209.775 320.538 209.649 320.193 209.562C319.854 209.471 319.347 209.441 318.82 209.568C318.288 209.694 317.857 209.953 317.594 210.191C317.33 210.414 317.219 210.606 317.249 210.632Z" fill="#263238"/>
<path d="M318.668 209.132C318.683 209.127 318.668 208.944 318.551 208.64C318.435 208.336 318.222 207.905 317.812 207.475C317.609 207.272 317.376 207.008 316.97 206.937C316.768 206.902 316.514 207.008 316.408 207.221C316.301 207.429 316.312 207.652 316.367 207.86C316.605 208.671 317.523 209.269 318.475 209.132C319.423 208.98 320.112 208.22 320.285 207.419C320.315 207.216 320.31 206.978 320.148 206.785C319.991 206.593 319.702 206.578 319.529 206.659C319.165 206.821 318.982 207.11 318.805 207.333C318.46 207.809 318.288 208.26 318.202 208.574C318.116 208.889 318.111 209.071 318.126 209.071C318.181 209.091 318.278 208.351 318.967 207.459C319.144 207.247 319.347 206.988 319.616 206.887C319.747 206.836 319.874 206.856 319.955 206.953C320.031 207.044 320.051 207.211 320.021 207.373C319.874 208.037 319.241 208.726 318.435 208.843C317.634 208.965 316.828 208.443 316.631 207.789C316.585 207.632 316.585 207.459 316.641 207.343C316.697 207.226 316.818 207.166 316.95 207.181C317.229 207.211 317.472 207.434 317.67 207.622C318.47 208.417 318.617 209.162 318.668 209.132Z" fill="#263238"/>
<path d="M274.675 202.508L275.394 213.368C275.394 213.368 264.585 216.956 264.524 218.973L285.641 219.125L285.215 202.159L274.675 202.508Z" fill="#4643D2"/>
<g opacity="0.6">
<g opacity="0.6">
<g opacity="0.6">
<g opacity="0.6">
<g opacity="0.6">
<path opacity="0.6" d="M281.89 212.254C282.301 212.355 282.6 212.806 282.514 213.221C282.433 213.637 281.977 213.941 281.561 213.85C281.145 213.759 280.776 213.227 280.902 212.826C281.029 212.421 281.586 212.091 281.966 212.284" fill="white"/>
</g>
</g>
</g>
</g>
</g>
<g opacity="0.6">
<g opacity="0.6">
<g opacity="0.6">
<g opacity="0.6">
<path opacity="0.6" d="M285.636 219.125L285.596 217.417L265.203 217.98C265.203 217.98 264.524 218.274 264.418 219.125H285.636Z" fill="white"/>
</g>
</g>
</g>
</g>
<path d="M275.045 213.267C275.05 213.368 275.567 213.399 276.084 213.718C276.611 214.022 276.884 214.458 276.975 214.417C277.072 214.392 276.899 213.784 276.266 213.409C275.643 213.034 275.019 213.176 275.045 213.267Z" fill="#263238"/>
<path d="M272.861 214.25C272.841 214.352 273.292 214.514 273.657 214.939C274.032 215.355 274.133 215.821 274.239 215.816C274.336 215.831 274.391 215.223 273.93 214.701C273.469 214.179 272.861 214.154 272.861 214.25Z" fill="#263238"/>
<path d="M271.685 216.936C271.781 216.956 271.908 216.434 271.624 215.882C271.345 215.325 270.854 215.117 270.813 215.203C270.757 215.289 271.082 215.583 271.305 216.044C271.538 216.495 271.583 216.931 271.685 216.936Z" fill="#263238"/>
<path d="M275.156 210.774C275.202 210.865 275.673 210.708 276.256 210.733C276.839 210.743 277.3 210.926 277.35 210.835C277.406 210.759 276.955 210.389 276.266 210.373C275.577 210.353 275.105 210.698 275.156 210.774Z" fill="#263238"/>
<g opacity="0.3">
<g opacity="0.3">
<g opacity="0.3">
<g opacity="0.3">
<path opacity="0.3" d="M274.816 204.657L274.943 206.593L285.311 206.183L285.271 204.439L274.816 204.657Z" fill="black"/>
</g>
</g>
</g>
</g>
<path d="M275.055 208.58C275.055 208.62 275.465 208.676 276.114 208.544C276.438 208.478 276.813 208.362 277.208 208.169C277.406 208.073 277.609 207.961 277.806 207.83C277.903 207.764 278.014 207.698 278.121 207.571C278.232 207.46 278.288 207.186 278.151 207.024C278.04 206.867 277.847 206.801 277.69 206.801C277.533 206.801 277.411 206.836 277.295 206.867C277.062 206.933 276.844 207.014 276.646 207.11C276.251 207.308 275.926 207.546 275.693 207.779C275.217 208.245 275.06 208.635 275.095 208.656C275.141 208.686 275.369 208.357 275.86 207.966C276.104 207.774 276.413 207.571 276.788 207.409C276.975 207.328 277.178 207.257 277.391 207.201C277.614 207.135 277.801 207.13 277.862 207.226C277.882 207.262 277.888 207.277 277.842 207.343C277.796 207.404 277.705 207.465 277.614 207.531C277.431 207.657 277.244 207.769 277.067 207.865C276.702 208.058 276.357 208.194 276.058 208.286C275.445 208.483 275.05 208.524 275.055 208.58Z" fill="#263238"/>
<path d="M275.192 208.726C275.228 208.742 275.42 208.367 275.44 207.698C275.451 207.368 275.4 206.968 275.263 206.547C275.192 206.34 275.096 206.122 274.974 205.914C274.842 205.711 274.685 205.433 274.285 205.402C274.077 205.402 273.905 205.569 273.854 205.711C273.788 205.858 273.778 205.98 273.758 206.101C273.728 206.35 273.738 206.593 273.778 206.811C273.859 207.257 274.052 207.627 274.265 207.89C274.695 208.422 275.126 208.534 275.136 208.498C275.167 208.448 274.802 208.255 274.472 207.743C274.31 207.49 274.158 207.15 274.108 206.76C274.082 206.568 274.077 206.36 274.108 206.147C274.133 205.924 274.214 205.737 274.295 205.757C274.402 205.752 274.584 205.914 274.675 206.091C274.787 206.279 274.883 206.466 274.954 206.654C275.096 207.029 275.167 207.394 275.192 207.703C275.233 208.321 275.136 208.711 275.192 208.726Z" fill="#263238"/>
<path d="M274.619 107.835L306.793 107.592L322.341 209.705L308.987 211.397L291.874 127.437L286.751 211.696L286.741 211.944L272.298 211.696L274.619 107.835Z" fill="#263238"/>
<path d="M290.794 125.238C290.835 125.232 290.784 124.756 290.713 123.991C290.642 123.226 290.556 122.167 290.52 120.996C290.485 119.825 290.505 118.766 290.531 117.996C290.556 117.226 290.576 116.749 290.541 116.749C290.505 116.744 290.419 117.215 290.343 117.986C290.267 118.756 290.216 119.825 290.252 121.006C290.287 122.187 290.404 123.251 290.525 124.016C290.647 124.781 290.764 125.243 290.794 125.238Z" fill="#455A64"/>
<path d="M288.144 117.043C288.149 117.028 288.088 116.982 287.956 116.972C287.825 116.957 287.622 116.992 287.424 117.129C287.232 117.266 287.029 117.514 287.024 117.864C287.009 118.219 287.298 118.558 287.657 118.675C288.012 118.802 288.448 118.705 288.651 118.416C288.858 118.138 288.848 117.813 288.777 117.585C288.701 117.352 288.565 117.205 288.453 117.134C288.342 117.063 288.261 117.063 288.261 117.079C288.235 117.114 288.519 117.231 288.6 117.636C288.636 117.829 288.615 118.082 288.463 118.264C288.316 118.452 288.022 118.518 287.744 118.427C287.47 118.335 287.272 118.102 287.272 117.864C287.262 117.626 287.399 117.408 287.546 117.281C287.85 117.003 288.144 117.084 288.144 117.043Z" fill="#455A64"/>
<path d="M296.384 114.986C296.374 115.001 296.476 115.092 296.678 115.254C296.876 115.417 297.19 115.619 297.596 115.832C298.001 116.05 298.513 116.243 299.101 116.4C299.694 116.542 300.358 116.643 301.062 116.648C301.766 116.643 302.43 116.547 303.023 116.4C303.611 116.243 304.123 116.045 304.533 115.832C304.939 115.619 305.253 115.422 305.45 115.259C305.653 115.102 305.755 115.006 305.744 114.991C305.714 114.95 305.268 115.295 304.452 115.665C304.047 115.852 303.54 116.025 302.967 116.167C302.39 116.293 301.746 116.379 301.067 116.384C300.388 116.379 299.739 116.293 299.167 116.167C298.594 116.025 298.087 115.852 297.682 115.665C296.861 115.29 296.415 114.945 296.384 114.986Z" fill="#455A64"/>
<path d="M276.469 117.15C276.464 117.18 276.793 117.286 277.351 117.337C277.908 117.388 278.694 117.347 279.52 117.114C280.346 116.876 281.03 116.496 281.476 116.161C281.922 115.827 282.15 115.558 282.124 115.538C282.074 115.467 281.05 116.415 279.443 116.861C277.847 117.327 276.479 117.063 276.469 117.15Z" fill="#455A64"/>
<path d="M317.247 210.632C317.247 210.627 317.202 210.566 317.156 210.414C317.11 210.262 317.045 210.039 316.974 209.74C316.832 209.142 316.639 208.255 316.406 207.105C315.945 204.809 315.322 201.48 314.572 197.365C313.072 189.13 311.075 177.738 308.87 165.16C306.656 152.582 304.654 141.195 303.2 132.945C302.455 128.836 301.857 125.506 301.436 123.19C301.223 122.05 301.056 121.158 300.94 120.54C300.884 120.246 300.838 120.018 300.803 119.851C300.772 119.694 300.747 119.618 300.747 119.618C300.747 119.618 300.752 119.699 300.778 119.856C300.803 120.023 300.838 120.251 300.889 120.55C300.995 121.168 301.142 122.065 301.335 123.205C301.735 125.526 302.308 128.861 303.017 132.976C304.452 141.236 306.428 152.623 308.612 165.206C310.816 177.789 312.843 189.171 314.389 197.4C315.159 201.515 315.813 204.84 316.31 207.13C316.791 209.416 317.146 210.673 317.247 210.632Z" fill="#455A64"/>
<path d="M276.241 209.482C276.241 209.482 276.251 209.401 276.256 209.248C276.261 209.081 276.261 208.853 276.271 208.559C276.276 207.941 276.287 207.044 276.297 205.904C276.302 204.748 276.312 203.34 276.342 201.698C276.368 200.061 276.383 198.191 276.439 196.128C276.52 192.003 276.677 187.093 276.915 181.645C277.168 176.197 277.508 170.208 277.974 163.929C278.45 157.65 279.008 151.675 279.57 146.253C280.148 140.826 280.726 135.95 281.263 131.856C281.516 129.809 281.78 127.959 281.998 126.337C282.216 124.711 282.413 123.317 282.581 122.172C282.743 121.036 282.864 120.155 282.95 119.542C282.991 119.248 283.016 119.025 283.042 118.857C283.062 118.7 283.062 118.624 283.062 118.624C283.062 118.624 283.042 118.7 283.011 118.857C282.981 119.025 282.945 119.248 282.895 119.536C282.798 120.15 282.657 121.031 282.474 122.161C282.292 123.302 282.074 124.695 281.846 126.317C281.613 127.939 281.334 129.783 281.07 131.831C280.508 135.92 279.915 140.8 279.322 146.223C278.744 151.65 278.182 157.625 277.705 163.909C277.239 170.187 276.905 176.182 276.667 181.63C276.444 187.083 276.302 191.993 276.246 196.123C276.2 198.186 276.2 200.056 276.19 201.693C276.175 203.33 276.18 204.743 276.19 205.899C276.2 207.044 276.211 207.936 276.216 208.554C276.221 208.848 276.226 209.076 276.231 209.243C276.231 209.401 276.241 209.482 276.241 209.482Z" fill="#455A64"/>
<path d="M242.977 68.4751L263.081 74.3434L274.341 67.6947L282.885 77.8299L266.947 84.732C264.672 85.7202 262.072 85.6341 259.868 84.4989L240.119 74.3434L242.977 68.4751Z" fill="#FFBE9D"/>
<path d="M238.39 66.5339L235.902 65.2416L228.98 61.6385C228.417 61.4156 227.89 62.0186 228.179 62.5558L232.593 66.1842L230.748 66.8886C230.383 67.0305 230.079 67.2991 229.907 67.6487L228.924 69.5998C228.924 69.5998 227.804 69.7214 227.693 70.4461C227.571 71.2163 228.422 71.4241 228.422 71.4241L228.209 72.2755C228.113 72.6758 228.184 73.0964 228.412 73.436C229.486 73.8768 230.338 71.6319 230.338 71.6319L231.478 71.7535L232.725 74.2721C234.311 74.6572 233.561 72.1589 233.561 72.1589C233.561 72.1589 233.561 72.1589 234.26 72.3312C234.96 72.5035 235.324 73.0001 236.414 73.5576C237.503 74.115 239.642 74.3126 239.642 74.3126L241.223 75.4782L246.017 68.9156L238.39 66.5339Z" fill="#E9E9FF"/>
<path d="M238.391 66.5342C238.391 66.5292 238.437 66.5393 238.528 66.5646C238.629 66.595 238.761 66.6305 238.918 66.6761C239.278 66.7825 239.785 66.9346 240.428 67.1221C241.756 67.5275 243.661 68.1103 246.038 68.8349L246.155 68.8704L246.084 68.9718C244.746 70.8214 243.124 73.0512 241.31 75.5495L241.244 75.6407L241.153 75.5698C240.661 75.2049 240.119 74.8096 239.572 74.4093L239.633 74.4296C238.614 74.313 237.555 74.1711 236.511 73.7404C235.999 73.5073 235.528 73.188 235.072 72.8687C234.844 72.7116 234.611 72.5698 234.357 72.4887C234.099 72.4177 233.81 72.3519 233.536 72.2809L233.688 72.1187C233.81 72.5698 233.901 73.0461 233.861 73.5579C233.83 73.8063 233.759 74.1002 233.516 74.2877C233.263 74.4752 232.953 74.4448 232.7 74.3992L232.644 74.389L232.614 74.3333C232.219 73.5326 231.793 72.6812 231.362 71.8147L231.469 71.8856C231.154 71.8502 230.81 71.8147 230.47 71.7792L230.328 71.764L230.465 71.6779C230.298 72.0833 230.105 72.4633 229.857 72.8231C229.609 73.1627 229.295 73.5377 228.798 73.6188L228.616 73.6238C228.555 73.6137 228.499 73.5985 228.438 73.5833L228.393 73.5731L228.372 73.5681C228.382 73.5782 228.261 73.4769 228.311 73.5174L228.306 73.5123L228.301 73.5022L228.256 73.4312C228.225 73.3806 228.2 73.3299 228.18 73.2792C228.089 73.0715 228.043 72.8485 228.043 72.6255C228.038 72.3975 228.109 72.1846 228.154 71.992L228.301 71.3991L228.398 71.5562C228.124 71.4752 227.886 71.3383 227.714 71.0951C227.546 70.8468 227.526 70.5376 227.617 70.2691C227.724 69.9903 227.957 69.8079 228.185 69.6914C228.423 69.5748 228.661 69.5089 228.92 69.4734L228.818 69.5444C229.026 69.1288 229.234 68.7184 229.437 68.313C229.538 68.1103 229.639 67.9075 229.741 67.7099C229.832 67.5072 229.969 67.2893 230.146 67.1271C230.318 66.9599 230.531 66.8332 230.749 66.7572C230.952 66.6812 231.159 66.6001 231.362 66.5241C231.768 66.3721 232.168 66.22 232.563 66.068L232.528 66.2707C230.947 64.9633 229.472 63.747 228.124 62.6322L228.109 62.622L228.099 62.6018C227.936 62.323 227.992 61.948 228.205 61.7301C228.408 61.497 228.757 61.4311 229.026 61.5426L229.031 61.5477H229.036C231.915 63.068 234.261 64.3045 235.898 65.166C236.693 65.5916 237.317 65.9261 237.763 66.1643C237.965 66.2758 238.122 66.3619 238.244 66.4329C238.34 66.4987 238.396 66.5342 238.391 66.5342C238.391 66.5393 238.33 66.514 238.219 66.4633C238.092 66.4025 237.93 66.3214 237.722 66.22C237.276 65.992 236.638 65.6778 235.832 65.2673C234.185 64.421 231.828 63.2149 228.93 61.7251L228.94 61.7301C228.737 61.649 228.494 61.6997 228.342 61.867C228.185 62.0342 228.149 62.2926 228.271 62.5004L228.246 62.47C229.604 63.5798 231.083 64.791 232.67 66.0883L232.827 66.22L232.634 66.2961C232.239 66.4481 231.839 66.6001 231.438 66.7572C231.236 66.8332 231.033 66.9143 230.825 66.9903C230.627 67.0613 230.455 67.1677 230.308 67.3096C230.156 67.4515 230.05 67.6187 229.953 67.8214C229.852 68.0241 229.751 68.2217 229.649 68.4295C229.447 68.8349 229.239 69.2454 229.031 69.6609L229.001 69.7218L228.93 69.7319C228.499 69.7927 227.987 69.9751 227.84 70.3603C227.779 70.5528 227.79 70.786 227.911 70.9532C228.028 71.1204 228.241 71.2471 228.443 71.3079L228.57 71.3434L228.54 71.465L228.393 72.0579C228.342 72.2606 228.286 72.4431 228.291 72.6306C228.291 72.8181 228.332 73.0056 228.408 73.1779C228.428 73.2184 228.448 73.264 228.474 73.3046L228.509 73.3654L228.514 73.3704V73.3755C228.565 73.4211 228.443 73.3198 228.458 73.3299L228.474 73.335L228.504 73.3451C228.545 73.3552 228.585 73.3704 228.626 73.3755L228.752 73.3704C229.097 73.3248 229.396 73.0106 229.624 72.6863C229.857 72.3569 230.05 71.9819 230.202 71.6018L230.242 71.5056L230.339 71.5157L230.48 71.5309C230.82 71.5664 231.165 71.6018 231.479 71.6373L231.55 71.6424L231.58 71.7083C232.006 72.5698 232.431 73.4262 232.827 74.2269L232.741 74.1559C232.958 74.1965 233.187 74.2066 233.339 74.09C233.491 73.9786 233.556 73.7606 233.582 73.5377C233.622 73.0917 233.536 72.6204 233.425 72.1998L233.364 71.9819L233.577 72.0377C233.861 72.1086 234.124 72.1694 234.418 72.2505C234.707 72.3468 234.965 72.5039 235.198 72.661C235.66 72.9853 236.116 73.2894 236.602 73.5123C237.58 73.9228 238.649 74.0748 239.643 74.1914L239.678 74.1965L239.704 74.2167C240.251 74.6221 240.788 75.0225 241.28 75.3873L241.117 75.4127C242.947 72.9296 244.584 70.7049 245.937 68.8653L245.982 69.0022C243.611 68.242 241.715 67.6339 240.388 67.2082C239.749 67.0004 239.252 66.8332 238.893 66.7167C238.736 66.6609 238.609 66.6204 238.508 66.5849C238.437 66.5596 238.391 66.5393 238.391 66.5342Z" fill="#263238"/>
<path d="M233.729 72.1999C233.724 72.2303 233.176 72.1289 232.239 71.9921C231.301 71.8502 229.974 71.683 228.408 71.5512H228.433C227.82 71.6069 227.389 70.8924 227.627 70.34C227.84 69.7877 228.423 69.4937 228.965 69.4025C229.558 69.3062 230.11 69.2758 230.648 69.1795C231.185 69.0934 231.697 68.9819 232.183 68.8603C232.669 68.7387 233.12 68.6018 233.546 68.4599C233.754 68.3941 233.947 68.3079 234.078 68.1863C234.215 68.0647 234.251 67.9025 234.185 67.7555C234.119 67.6035 233.992 67.487 233.865 67.3653C233.744 67.2437 233.632 67.1322 233.521 67.0207C233.313 66.8028 233.126 66.6204 232.968 66.4836C232.654 66.2049 232.447 66.0883 232.457 66.068C232.462 66.0579 232.69 66.144 233.034 66.4025C233.207 66.5343 233.404 66.7065 233.622 66.9143C233.734 67.0207 233.85 67.1272 233.977 67.2437C234.104 67.3552 234.256 67.4819 234.352 67.6795C234.458 67.8822 234.398 68.1762 234.215 68.3333C234.043 68.4954 233.83 68.5917 233.612 68.6677C233.186 68.8197 232.73 68.9667 232.239 69.0985C231.747 69.2302 231.23 69.3417 230.688 69.438C230.151 69.5394 229.563 69.5748 229.011 69.666C228.509 69.7471 228.033 70.0106 227.87 70.4363C227.683 70.8316 228.033 71.3586 228.408 71.308H228.418H228.433C229.999 71.46 231.332 71.6627 232.264 71.8451C232.73 71.9363 233.1 72.0174 233.349 72.0833C233.597 72.1441 233.729 72.1897 233.729 72.1999Z" fill="#263238"/>
<path d="M233.541 68.6525C233.551 68.7235 232.963 68.8704 232.218 68.8299C231.955 68.8147 231.717 68.7792 231.514 68.7387L231.636 68.6677C231.489 69.0123 231.362 69.2302 231.321 69.215C231.276 69.1998 231.321 68.9515 231.428 68.5917L231.453 68.5106L231.549 68.5157C231.818 68.536 232.021 68.5512 232.233 68.5613C232.943 68.6069 233.531 68.5765 233.541 68.6525Z" fill="#263238"/>
<path d="M278.926 60.3315L265.974 70.2691L275.055 82.2287L286.133 75.9398L278.926 60.3315Z" fill="#4643D2"/>
<path d="M278.927 60.3315C280.802 59.1761 287.288 57.7572 287.288 57.7572L299.826 56.394L310.701 61.3856L306.231 80.1003L310.143 115.386L272.82 117.418L278.927 60.3315Z" fill="#4643D2"/>
<path d="M300.236 75.986H293.806V77.7191H300.236V75.986Z" fill="#E9E9FF"/>
<path d="M300.246 77.7337H293.79V75.9752H300.246V77.7337ZM293.82 77.7083H300.221V76.0006H293.82V77.7083Z" fill="#263238"/>
<path d="M277.366 71.161C277.295 71.161 277.209 69.8739 277.184 68.2877C277.153 66.7015 277.189 65.4093 277.265 65.4093C277.336 65.4093 277.422 66.6965 277.447 68.2826C277.478 69.8739 277.442 71.161 277.366 71.161Z" fill="#263238"/>
<path d="M300.88 39.2197L299.507 58.654C299.284 61.8264 296.643 64.2842 293.461 64.2842C289.959 64.2842 287.187 61.3247 287.415 57.828C287.537 55.9783 287.648 54.4631 287.648 54.4631C287.648 54.4631 282.946 53.7334 282.885 49.0306C282.849 46.3144 283.321 40.1471 283.721 35.4241C283.995 32.2315 286.665 29.7788 289.868 29.7788H292.711C297.611 30.0676 301.3 34.3345 300.88 39.2197Z" fill="#FFBE9D"/>
<path d="M287.643 54.3972C287.643 54.3972 290.618 54.6405 293.775 52.654C293.775 52.654 292.325 56.0391 287.633 55.6134L287.643 54.3972Z" fill="#EB996E"/>
<path d="M284.684 41.3683C284.674 41.723 284.963 42.0271 285.332 42.0473C285.702 42.0676 286.012 41.794 286.027 41.4392C286.037 41.0845 285.748 40.7804 285.378 40.7602C285.008 40.745 284.694 41.0136 284.684 41.3683Z" fill="#263238"/>
<path d="M284.537 40.142C284.618 40.2281 285.13 39.8531 285.849 39.8531C286.569 39.843 287.101 40.218 287.182 40.1268C287.223 40.0862 287.137 39.9291 286.903 39.7619C286.675 39.5947 286.29 39.4325 285.839 39.4325C285.388 39.4325 285.008 39.5997 284.79 39.772C284.572 39.9443 284.496 40.1014 284.537 40.142Z" fill="#263238"/>
<path d="M291.632 41.3683C291.622 41.723 291.911 42.027 292.281 42.0473C292.651 42.0676 292.96 41.799 292.975 41.4392C292.985 41.0845 292.696 40.7804 292.326 40.7601C291.956 40.7449 291.647 41.0135 291.632 41.3683Z" fill="#263238"/>
<path d="M291.642 40.2788C291.723 40.3649 292.235 39.9899 292.96 39.9899C293.679 39.9798 294.212 40.3548 294.293 40.2636C294.333 40.223 294.247 40.0659 294.014 39.8987C293.786 39.7315 293.401 39.5693 292.95 39.5693C292.499 39.5744 292.119 39.7365 291.901 39.9088C291.678 40.0811 291.602 40.2382 291.642 40.2788Z" fill="#263238"/>
<path d="M289.088 45.4579C289.093 45.4173 288.642 45.3413 287.912 45.245C287.73 45.2248 287.552 45.1893 287.522 45.0626C287.476 44.9308 287.557 44.7281 287.643 44.5153C287.816 44.0693 287.998 43.5981 288.191 43.1116C288.951 41.1099 289.498 39.4629 289.417 39.4375C289.336 39.4071 288.657 41.0034 287.897 43.0051C287.714 43.4967 287.542 43.968 287.375 44.419C287.304 44.6268 287.187 44.865 287.279 45.1437C287.329 45.2805 287.466 45.3819 287.583 45.4123C287.699 45.4477 287.806 45.4528 287.897 45.4579C288.627 45.4984 289.083 45.4984 289.088 45.4579Z" fill="#263238"/>
<path d="M291.454 37.7704C291.525 37.968 292.244 37.8717 293.096 37.9781C293.947 38.0643 294.631 38.3126 294.743 38.1352C294.793 38.0491 294.672 37.8666 294.398 37.6741C294.125 37.4866 293.689 37.3041 293.177 37.2484C292.67 37.1927 292.204 37.2737 291.895 37.4004C291.581 37.522 291.424 37.6791 291.454 37.7704Z" fill="#263238"/>
<path d="M284.547 38.7231C284.674 38.8852 285.17 38.718 285.773 38.7079C286.371 38.6774 286.878 38.8193 286.995 38.647C287.045 38.566 286.964 38.3987 286.746 38.2416C286.529 38.0845 286.164 37.9578 285.753 37.973C285.343 37.9883 284.983 38.1352 284.775 38.3024C284.557 38.4747 284.491 38.642 284.547 38.7231Z" fill="#263238"/>
<path d="M299.294 42.7518C299.375 42.7164 302.527 41.7941 302.421 45.012C302.319 48.2299 299.112 47.4597 299.106 47.3684C299.112 47.2722 299.294 42.7518 299.294 42.7518Z" fill="#FFBE9D"/>
<path d="M300.135 46.1826C300.15 46.1725 300.191 46.2232 300.282 46.2688C300.373 46.3144 300.53 46.3499 300.702 46.289C301.047 46.1776 301.351 45.6455 301.382 45.0678C301.397 44.7738 301.346 44.4951 301.25 44.262C301.159 44.0238 301.012 43.8566 300.844 43.8161C300.677 43.7704 300.55 43.8718 300.51 43.9579C300.464 44.0441 300.485 44.11 300.464 44.115C300.454 44.1252 300.398 44.0593 300.429 43.9275C300.444 43.8617 300.485 43.7907 300.561 43.7299C300.642 43.6691 300.753 43.6387 300.875 43.659C301.123 43.6843 301.336 43.9174 301.442 44.1759C301.564 44.4343 301.63 44.7485 301.61 45.0779C301.569 45.7265 301.219 46.3195 300.748 46.4411C300.52 46.4918 300.333 46.4208 300.236 46.3397C300.135 46.2586 300.12 46.1877 300.135 46.1826Z" fill="#EB996E"/>
<path d="M301.083 42.6404C300.591 42.5238 299.745 42.9748 299.537 43.436C299.329 43.8971 299.284 44.414 299.076 44.8752C298.868 45.3364 298.397 45.7519 297.905 45.6353C297.566 45.5543 297.323 45.2401 297.237 44.9005C297.145 44.5661 297.186 44.2063 297.226 43.8617C297.414 42.3617 297.733 40.8718 297.794 39.3566C297.855 37.8464 297.637 36.2704 296.846 34.9832C296.051 33.696 294.591 32.7484 293.086 32.87C292.088 32.9511 291.171 33.4731 290.177 33.6099C289.002 33.7771 287.755 33.3616 286.914 32.5203C286.807 32.4139 286.306 32.0795 286.306 32.0795C286.306 32.0035 286.382 31.3295 286.645 31.0862C288.617 29.2669 292.164 28.7551 294.769 29.4088C297.368 30.0626 299.811 31.9021 300.931 34.3396C302.036 36.7822 301.701 40.1725 301.083 42.6404Z" fill="#263238"/>
<path d="M283.675 34.6994C283.675 34.6994 296.014 30.7315 301.351 41.4039C301.351 41.4039 302.146 38.7332 302.146 37.2991C302.146 36.3413 301.574 30.6453 295.71 28.8564C295.715 28.8564 286.883 25.4865 283.675 34.6994Z" fill="#4643D2"/>
<path d="M294.277 34.968C293.841 35.6724 293.06 36.1538 292.24 36.2298C291.413 36.3058 290.562 35.9714 290.005 35.3582C289.761 35.9663 289.108 36.3819 288.454 36.3514C287.8 36.316 287.192 35.8345 287.015 35.2011C286.655 35.5508 286.285 35.9055 285.814 36.0778C285.342 36.2501 284.75 36.1842 284.44 35.794C284.126 35.3937 284.217 34.7855 284.527 34.3801C284.836 33.9747 285.307 33.7315 285.778 33.5389C287.243 32.9257 288.859 32.6217 290.435 32.8345C292.011 33.0474 293.532 33.8126 294.52 35.0592" fill="#263238"/>
<g opacity="0.4">
<g opacity="0.4">
<g opacity="0.4">
<path opacity="0.4" d="M283.675 34.6994C283.675 34.6994 285.079 33.0271 287.597 32.9156C291.236 32.7534 298.052 34.8008 301.351 41.4039C301.351 41.4039 302.146 38.7332 302.146 37.2991C302.146 36.3413 301.574 30.6453 295.71 28.8564C295.715 28.8564 286.883 25.4865 283.675 34.6994Z" fill="black"/>
</g>
</g>
</g>
<path d="M300.834 40.1572C299.005 37.3599 296.481 35.044 293.643 33.2704C290.805 31.4967 286.118 29.7484 282.885 28.8869C281.917 28.6284 280.903 28.4054 279.915 28.5727C278.927 28.745 277.959 29.4038 277.711 30.3767C277.401 31.593 279.565 33.4781 280.584 34.2129C281.603 34.9528 283.675 36.0373 283.675 36.0373C283.675 36.0373 283.65 33.7771 287.263 33.3109C292.184 32.6825 300.834 40.1572 300.834 40.1572Z" fill="#4643D2"/>
<path d="M290.714 30.9341C290.714 30.9341 288.935 29.951 287.151 29.723C287.516 29.4544 287.714 29.3277 288.119 29.1402C289.031 29.3226 289.959 29.5558 290.896 30.0727L290.714 30.9341Z" fill="#E9E9FF"/>
<path d="M291.378 46.6237C291.225 46.6154 291.222 47.6465 290.339 48.3787C289.456 49.1136 288.356 48.9985 288.348 49.1411C288.335 49.2069 288.592 49.3412 289.058 49.3549C289.514 49.3714 290.18 49.2233 290.72 48.7763C291.258 48.3266 291.491 47.7288 291.527 47.3037C291.562 46.8732 291.447 46.6182 291.378 46.6237Z" fill="#263238"/>
<path d="M235.163 111.813V70.7201H292.326V111.813L262.032 112.067L235.163 111.813Z" fill="#4643D2"/>
<g opacity="0.4">
<path opacity="0.4" d="M292.326 70.7201H235.163V111.813H292.326V70.7201Z" fill="black"/>
</g>
<path d="M262.032 112.067L235.163 111.813V70.7201H261.94L262.032 112.067Z" fill="#4643D2"/>
<path d="M249.647 70.72H246.084V77.8502H249.647V70.72Z" fill="#263238"/>
<path d="M244.164 102.743H237.069V109.838H244.164V102.743Z" fill="#E9E9FF"/>
<path d="M244.179 109.852H237.059V102.732H244.179V109.852ZM237.084 109.827H244.153V102.758H237.084V109.827Z" fill="#263238"/>
<path d="M305.704 80.1509L306.885 89.7135L289.148 100.239L291.905 106.305L312.064 98.1612C314.512 96.9247 316.6 95.0902 316.427 92.3385L315.454 78.96L305.704 80.1509Z" fill="#FFBE9D"/>
<path d="M310.696 61.3855C310.696 61.3855 313.219 63.2554 313.934 67.1474C314.613 70.8518 316.919 81.21 316.919 81.21L304.767 82.6492C304.767 82.6492 304.777 79.8063 304.772 79.8012C304.751 79.7607 303.642 74.4599 303.642 74.4599L305.907 67.1474L310.696 61.3855Z" fill="#4643D2"/>
<path d="M316.437 81.2505C316.437 81.2708 316.143 81.3215 315.606 81.4026C315.023 81.4837 314.258 81.5901 313.331 81.7168C311.405 81.9701 308.75 82.3046 305.811 82.6543C305.456 82.6948 305.111 82.7353 304.782 82.7759L304.645 82.7911L304.635 82.6543C304.432 79.9431 304.209 77.5309 304.042 75.8029C303.961 74.9718 303.895 74.2826 303.844 73.7606C303.799 73.2792 303.783 73.0157 303.799 73.0106C303.814 73.0106 303.865 73.269 303.941 73.7454C304.012 74.2218 304.108 74.916 304.214 75.7826C304.427 77.5106 304.68 79.9178 304.893 82.634L304.746 82.5124C305.076 82.4718 305.42 82.4313 305.775 82.3908C308.714 82.0411 311.375 81.737 313.306 81.5293C314.238 81.433 315.008 81.357 315.591 81.2961C316.133 81.2505 316.432 81.2353 316.437 81.2505Z" fill="#263238"/>
<path d="M309.702 62.0494C309.717 62.0899 309.261 62.2825 308.587 62.6981C307.913 63.1085 307.041 63.7825 306.261 64.6998C305.486 65.6221 304.969 66.595 304.675 67.3299C304.381 68.0647 304.27 68.5461 304.224 68.5359C304.199 68.5309 304.244 68.0292 304.503 67.264C304.756 66.4988 305.263 65.4802 306.063 64.5275C306.864 63.5798 307.786 62.9109 308.501 62.5359C309.205 62.1558 309.692 62.0241 309.702 62.0494Z" fill="#263238"/>
<path d="M288.875 99.7118L286.27 100.908L285.155 100.477L279.47 100.122L275.912 100.908L275.811 101.11C275.811 103.041 279.47 102.281 280.584 102.585C281.699 102.889 280.686 105.276 280.686 105.276C280.686 105.276 275.659 111.828 274.782 113.405C274.346 114.19 274.488 114.626 274.742 114.859C275 115.102 275.405 115.097 275.694 114.894L277.549 113.582C277.549 113.582 282.657 113.881 283.007 113.704C283.514 113.455 284.243 112.391 284.243 112.391C286.858 109.948 289.544 107.916 292.331 106.426L288.875 99.7118Z" fill="#E9E9FF"/>
<path d="M288.875 99.7118C288.875 99.7068 288.9 99.7422 288.941 99.8183C288.987 99.9044 289.047 100.016 289.123 100.148C289.291 100.462 289.524 100.898 289.818 101.455C290.431 102.626 291.313 104.298 292.402 106.381L292.443 106.457L292.367 106.497C289.934 107.805 287.137 109.817 284.319 112.472L284.335 112.452C283.995 112.913 283.666 113.384 283.144 113.754C283.083 113.8 282.987 113.83 282.89 113.845L282.657 113.866L282.206 113.876C281.907 113.876 281.603 113.871 281.299 113.866C280.078 113.835 278.821 113.774 277.534 113.704L277.615 113.678C277.215 113.962 276.814 114.246 276.409 114.53L275.801 114.96C275.588 115.133 275.263 115.214 274.98 115.133C274.686 115.052 274.458 114.803 274.392 114.509C274.326 114.215 274.397 113.932 274.493 113.683C274.701 113.182 275.015 112.771 275.299 112.335C277.062 109.791 278.882 107.425 280.579 105.19L280.564 105.215C280.701 104.871 280.818 104.511 280.894 104.156C280.965 103.801 281.02 103.431 280.929 103.112C280.894 102.95 280.797 102.828 280.676 102.747C280.549 102.681 280.377 102.646 280.199 102.636C279.85 102.6 279.495 102.605 279.14 102.605C278.436 102.6 277.736 102.6 277.057 102.458C276.723 102.372 276.378 102.281 276.105 102.038C275.826 101.805 275.694 101.44 275.684 101.1V101.075L275.694 101.05C275.73 100.979 275.765 100.913 275.796 100.847L275.821 100.801L275.872 100.791C277.149 100.513 278.334 100.254 279.434 100.016L279.449 100.011H279.465C281.735 100.163 283.64 100.295 285.145 100.396H285.155L285.166 100.401C285.601 100.573 285.956 100.715 286.28 100.842H286.24C287.086 100.467 287.74 100.178 288.206 99.9753C288.414 99.8841 288.581 99.8132 288.703 99.7625C288.819 99.727 288.875 99.7068 288.875 99.7118C288.875 99.7169 288.814 99.7473 288.703 99.8031C288.576 99.8639 288.414 99.9449 288.206 100.046C287.755 100.259 287.117 100.563 286.296 100.953L286.275 100.964L286.255 100.953C285.931 100.832 285.576 100.695 285.135 100.533L285.155 100.538C283.65 100.452 281.74 100.345 279.47 100.214H279.495C278.395 100.462 277.209 100.725 275.937 101.014L276.013 100.958C275.983 101.024 275.948 101.09 275.912 101.161L275.922 101.11C275.937 101.404 276.039 101.688 276.267 101.881C276.49 102.078 276.809 102.17 277.123 102.246C277.767 102.377 278.456 102.377 279.155 102.377C279.51 102.377 279.865 102.372 280.235 102.408C280.417 102.423 280.61 102.448 280.807 102.55C280.99 102.666 281.127 102.859 281.172 103.056C281.279 103.457 281.213 103.842 281.142 104.217C281.061 104.592 280.944 104.957 280.797 105.322L280.792 105.337L280.782 105.352C279.09 107.587 277.275 109.959 275.517 112.492C275.238 112.918 274.924 113.344 274.736 113.79C274.645 114.013 274.6 114.251 274.645 114.459C274.691 114.661 274.853 114.839 275.051 114.889C275.253 114.945 275.471 114.899 275.649 114.758L276.257 114.327C276.662 114.038 277.062 113.754 277.463 113.475L277.498 113.45L277.544 113.455C278.826 113.526 280.088 113.592 281.299 113.622C281.603 113.633 281.902 113.638 282.201 113.638L282.642 113.628L282.855 113.612C282.905 113.602 282.951 113.597 283.012 113.557C283.458 113.247 283.813 112.766 284.137 112.325L284.147 112.315L284.157 112.31C286.995 109.654 289.823 107.648 292.286 106.355L292.25 106.472C291.201 104.389 290.36 102.722 289.772 101.551C289.488 100.979 289.265 100.533 289.103 100.208C289.032 100.062 288.976 99.9449 288.931 99.8537C288.89 99.7574 288.87 99.7118 288.875 99.7118Z" fill="#263238"/>
<path d="M282.354 109.148C282.399 109.204 281.33 110.197 280.007 111.423C279.344 112.036 278.741 112.584 278.295 112.974C277.849 113.364 277.565 113.592 277.545 113.572C277.484 113.511 278.502 112.457 279.83 111.231C281.153 110.004 282.308 109.092 282.354 109.148Z" fill="#263238"/>
<path d="M283.898 110.42C283.959 110.465 283.331 111.302 282.424 112.204C281.522 113.111 280.726 113.775 280.675 113.719C280.625 113.663 281.339 112.918 282.236 112.016C283.138 111.119 283.848 110.374 283.898 110.42Z" fill="#263238"/>
<path d="M44.9347 207.688C45.3604 206.041 44.281 204.384 43.0698 203.188C41.8586 201.992 40.4093 200.922 39.7809 199.341C38.7623 196.782 40.1306 193.463 38.3924 191.324C37.3687 190.068 35.5292 189.647 34.6221 188.304C34.1457 187.6 33.9886 186.733 33.8011 185.902C32.8434 181.671 30.7251 177.703 27.7403 174.556C27.5325 178.326 28.3636 182.147 30.117 185.492C30.8214 186.834 31.6879 188.147 31.9211 189.642C32.3011 192.074 30.943 194.583 31.541 196.975C32.2251 199.711 35.2961 201.541 35.443 204.353C35.5647 206.735 33.492 208.823 33.6491 211.2C33.715 212.213 34.1863 213.151 34.7082 214.022C36.5478 217.083 39.2488 219.186 43.3485 219.12L48.3655 219.298L44.9347 207.688Z" fill="#4643D2"/>
<g opacity="0.3">
<g opacity="0.3">
<g opacity="0.3">
<g opacity="0.3">
<path opacity="0.3" d="M44.9347 207.688C45.3604 206.041 44.281 204.384 43.0698 203.188C41.8586 201.992 40.4093 200.922 39.7809 199.341C38.7623 196.782 40.1306 193.463 38.3924 191.324C37.3687 190.068 35.5292 189.647 34.6221 188.304C34.1457 187.6 33.9886 186.733 33.8011 185.902C32.8434 181.671 30.7251 177.703 27.7403 174.556C27.5325 178.326 28.3636 182.147 30.117 185.492C30.8214 186.834 31.6879 188.147 31.9211 189.642C32.3011 192.074 30.943 194.583 31.541 196.975C32.2251 199.711 35.2961 201.541 35.443 204.353C35.5647 206.735 33.492 208.823 33.6491 211.2C33.715 212.213 34.1863 213.151 34.7082 214.022C36.5478 217.083 39.2488 219.186 43.3485 219.12L48.3655 219.298L44.9347 207.688Z" fill="black"/>
</g>
</g>
</g>
</g>
<path d="M49.3682 219.429C49.3682 219.429 49.8446 219.541 50.7517 219.399C51.2027 219.333 51.755 219.211 52.3834 218.988C53.0067 218.76 53.7162 218.436 54.3953 217.884C54.7196 217.6 55.049 217.245 55.2213 216.779C55.3936 216.313 55.424 215.806 55.4595 215.279C55.4848 214.752 55.4848 214.21 55.576 213.657C55.6622 213.105 55.8801 212.563 56.1892 212.046C56.7821 211.007 57.7652 210.024 58.0794 208.61C58.424 207.221 58.1757 205.721 57.9426 204.211C57.7095 202.706 57.4865 201.064 58.0592 199.498C58.5963 197.927 59.696 196.514 60.2484 194.745C60.7957 192.956 60.5423 191.035 60.6588 189.14C60.7095 188.187 60.897 187.235 61.3126 186.353C61.718 185.466 62.2805 184.625 62.7214 183.692C63.6133 181.802 63.7704 179.659 64.0136 177.561C64.1302 176.502 64.2518 175.432 64.3734 174.353C64.495 173.268 64.5913 172.189 64.9309 171.145C65.24 170.091 65.6859 169.077 66.1319 168.039C66.3498 167.517 66.5778 166.995 66.7146 166.417C66.8109 165.824 66.8413 165.272 66.8768 164.689C66.9326 163.539 66.887 162.373 66.7451 161.218C66.6082 160.057 66.4005 158.912 66.2738 157.751C66.2636 157.68 66.2586 157.615 66.2535 157.554L66.2282 157.321L66.0204 157.422C64.9461 157.959 64.0237 158.76 63.3193 159.702C62.5997 160.635 62.0778 161.689 61.6572 162.763C60.821 164.917 60.517 167.177 60.0963 169.336C59.6859 171.49 59.1386 173.613 58.0338 175.407C57.4865 176.299 56.8176 177.115 56.2348 177.986C55.652 178.853 55.1453 179.801 54.9882 180.844C54.6892 182.968 55.8598 184.833 55.6166 186.713C55.5304 187.645 55.1605 188.522 54.6993 189.318C54.2432 190.118 53.7061 190.863 53.1993 191.608C52.6926 192.353 52.2061 193.113 51.8513 193.924C51.4915 194.73 51.2888 195.596 51.2331 196.438C51.1115 198.13 51.3496 199.737 51.228 201.252C51.1267 202.772 50.5946 204.145 49.9915 205.377C49.3834 206.613 48.7094 207.728 48.1418 208.813C47.858 209.355 47.5945 209.882 47.3817 210.414C47.1537 210.941 47.0422 211.483 46.9408 212C46.7786 213.039 46.7938 214.012 46.9053 214.863C47.1232 216.581 47.7668 217.818 48.3395 218.517C48.4712 218.705 48.6233 218.836 48.7449 218.958C48.8614 219.085 48.978 219.171 49.0743 219.237C49.2719 219.368 49.3682 219.429 49.3682 219.429C49.3885 219.404 48.9577 219.176 48.3952 218.466C47.8428 217.767 47.2297 216.541 47.032 214.838C46.9307 213.992 46.9256 213.039 47.0979 212.015C47.2043 211.509 47.3158 210.982 47.5439 210.465C47.7567 209.948 48.0202 209.421 48.3091 208.889C48.8766 207.814 49.5608 206.705 50.179 205.463C50.7922 204.226 51.3496 202.823 51.4611 201.267C51.5929 199.721 51.3598 198.11 51.4865 196.458C51.5422 195.632 51.7398 194.806 52.0895 194.025C52.4392 193.24 52.9155 192.5 53.4223 191.755C53.9291 191.015 54.4713 190.265 54.9426 189.449C55.4139 188.638 55.8041 187.726 55.9004 186.738C56.1436 184.736 54.9831 182.861 55.2821 180.885C55.4291 179.907 55.9105 179 56.4831 178.148C57.0558 177.292 57.7247 176.476 58.2923 175.559C59.4325 173.714 59.9849 171.556 60.4004 169.392C60.8261 167.223 61.1301 164.988 61.9511 162.875C62.3616 161.826 62.8734 160.797 63.5677 159.895C64.2518 158.988 65.1336 158.223 66.1572 157.711L65.9241 157.584C65.9292 157.65 65.9393 157.716 65.9444 157.787C66.0711 158.962 66.2788 160.113 66.4157 161.258C66.5576 162.403 66.6032 163.544 66.5474 164.679C66.517 165.236 66.4815 165.824 66.3954 166.351C66.2738 166.878 66.0457 167.4 65.8329 167.917C65.392 168.951 64.9359 169.979 64.6217 171.059C64.2721 172.128 64.1707 173.248 64.0592 174.322C63.9376 175.402 63.821 176.471 63.7045 177.53C63.4663 179.638 63.3092 181.746 62.4477 183.571C62.022 184.478 61.4595 185.319 61.044 186.236C60.6132 187.154 60.4207 188.157 60.37 189.125C60.2585 191.061 60.5119 192.956 59.9899 194.669C59.468 196.377 58.3734 197.801 57.821 199.417C57.2281 201.054 57.4764 202.747 57.7146 204.247C57.9578 205.757 58.2011 207.226 57.8767 208.564C57.5879 209.912 56.6352 210.885 56.027 211.955C55.7129 212.487 55.4899 213.059 55.4037 213.632C55.3176 214.205 55.3226 214.752 55.2973 215.274C55.272 215.791 55.2416 216.298 55.0845 216.733C54.9274 217.169 54.6183 217.509 54.3041 217.787C53.6503 218.33 52.951 218.659 52.3378 218.897C51.7196 219.13 51.1723 219.257 50.7314 219.333C50.2854 219.414 49.9408 219.424 49.7128 219.429C49.4898 219.424 49.3682 219.429 49.3682 219.429Z" fill="#263238"/>
<path d="M65.2251 160.316C65.22 160.316 65.2048 160.366 65.1744 160.468C65.144 160.589 65.1085 160.736 65.0629 160.919C64.9666 161.314 64.845 161.912 64.6575 162.657C64.4598 163.402 64.0038 164.243 63.6135 165.277C63.2081 166.305 62.7977 167.496 62.4227 168.834C62.0375 170.172 61.7031 171.657 61.3483 173.248C60.9835 174.839 60.6186 176.542 59.7419 178.148C59.3314 178.964 58.8652 179.79 58.5003 180.692C58.1253 181.594 57.9176 182.583 57.7757 183.571C57.5324 185.557 57.1675 187.574 56.6963 189.642C55.6878 193.752 54.73 197.669 53.8584 201.237C52.9665 204.789 52.1607 207.992 51.4817 210.693C50.8229 213.368 50.2857 215.542 49.9056 217.073C49.7333 217.808 49.5915 218.39 49.4952 218.811C49.4546 218.993 49.4242 219.145 49.3938 219.267C49.3735 219.368 49.3634 219.424 49.3685 219.424C49.3735 219.424 49.3938 219.374 49.4242 219.277C49.4597 219.161 49.5002 219.014 49.556 218.831C49.6725 218.411 49.8296 217.838 50.0273 217.108C50.4276 215.583 51.0003 213.414 51.7047 210.753C52.404 208.058 53.23 204.86 54.1472 201.313C55.029 197.745 55.9969 193.828 57.0104 189.713C57.4868 187.65 57.8567 185.593 58.0898 183.616C58.2317 182.633 58.4243 181.681 58.7841 180.809C59.1388 179.927 59.5949 179.106 60.0054 178.285C60.8872 176.648 61.2571 174.89 61.6068 173.309C61.9514 171.713 62.2757 170.233 62.6406 168.895C63.0004 167.557 63.3956 166.366 63.7808 165.338C64.1507 164.304 64.5916 163.452 64.774 162.687C64.9463 161.922 65.0426 161.334 65.1237 160.929C65.1541 160.741 65.1845 160.594 65.2048 160.473C65.2251 160.371 65.2301 160.321 65.2251 160.316Z" fill="#263238"/>
<path d="M50.2556 219.445C53.5344 217.499 54.4719 211.585 53.1087 208.022C51.7404 204.465 49.3485 201.211 48.9786 197.416C48.6948 194.497 49.6526 191.507 48.9684 188.654C48.0512 184.807 44.2961 181.828 44.3366 177.87C44.362 175.65 45.6238 173.562 45.5225 171.348C45.4008 168.626 43.313 166.473 42.0207 164.076C40.0444 160.407 39.9126 156.074 39.2335 151.964C38.5595 147.854 36.9886 143.451 33.345 141.429C32.8078 144.92 31.8906 147.312 32.1744 152.04C32.2757 153.738 34.2521 156.991 34.5207 160.711C34.6828 162.936 34.7943 165.165 34.9261 167.39C35.0578 169.554 35.1997 171.763 35.9751 173.79C36.568 175.341 37.5258 176.755 37.9666 178.356C38.7977 181.372 37.7082 184.64 38.3771 187.696C38.9447 190.285 40.7386 192.515 41.1035 195.14C41.6204 198.829 39.2285 202.661 40.4548 206.183C41.063 207.931 42.4971 209.33 42.9076 211.134C43.2218 212.532 42.8772 214.012 43.166 215.421C43.6272 217.686 47.9448 219.445 50.2505 219.303" fill="#4643D2"/>
<path d="M34.2519 144.895C34.2468 144.895 34.2519 144.961 34.2671 145.092C34.2874 145.239 34.3127 145.427 34.3431 145.665C34.4191 146.167 34.5053 146.912 34.6725 147.864C34.8549 148.827 35.3516 149.912 35.7468 151.219C36.1675 152.522 36.583 154.027 36.9479 155.709C37.3229 157.392 37.6371 159.251 37.9614 161.253C38.3009 163.24 38.6455 165.439 39.6438 167.522C40.105 168.571 40.6219 169.62 41.007 170.735C41.4023 171.849 41.5847 173.045 41.6962 174.277C41.8635 176.75 42.1929 179.319 42.6591 181.914C43.6625 187.088 44.6202 192.013 45.4868 196.493C46.404 200.958 47.2301 204.982 47.9243 208.372C48.6287 211.737 49.1963 214.463 49.5966 216.374C49.7994 217.301 49.9564 218.026 50.0679 218.548C50.1237 218.781 50.1642 218.968 50.1997 219.11C50.2301 219.237 50.2504 219.303 50.2554 219.298C50.2605 219.298 50.2554 219.232 50.2301 219.1C50.2048 218.953 50.1744 218.765 50.1287 218.532C50.0325 218.01 49.8906 217.281 49.7183 216.348C49.3433 214.433 48.8061 211.696 48.1473 208.326C47.4733 204.936 46.6676 200.907 45.7757 196.438C44.9142 191.953 43.9665 187.032 42.9733 181.858C42.5121 179.263 42.1827 176.73 42.0104 174.246C41.8939 173.01 41.7064 171.773 41.2959 170.633C40.8955 169.493 40.3736 168.439 39.9124 167.4C38.9242 165.348 38.5796 163.199 38.2249 161.202C37.8854 159.201 37.556 157.336 37.1708 155.653C36.7857 153.966 36.355 152.461 35.9191 151.158C35.5036 149.846 34.9918 148.772 34.7941 147.834C34.6066 146.896 34.5002 146.146 34.4039 145.65C34.3583 145.412 34.3279 145.224 34.2975 145.082C34.2772 144.956 34.257 144.89 34.2519 144.895Z" fill="#263238"/>
<path d="M221.521 51.3314H205.233V74.161H221.521V51.3314Z" fill="#455A64"/>
<path d="M221.521 51.3314H205.233V53.9767H221.521V51.3314Z" fill="#263238"/>
<path d="M221.521 71.5158H205.233V74.1611H221.521V71.5158Z" fill="#263238"/>
<path d="M218.308 55.6034H208.411V60.7622H218.308V55.6034Z" fill="#263238"/>
<path d="M215.703 58.1828C215.678 58.1828 215.678 57.975 215.582 57.6304C215.486 57.2909 215.247 56.7943 214.731 56.4142C214.234 56.0341 213.418 55.8213 212.632 56.1203C211.852 56.3939 211.183 57.22 211.188 58.1879C211.178 59.1558 211.852 59.9869 212.632 60.2555C213.418 60.5494 214.234 60.3416 214.731 59.9615C215.247 59.5815 215.486 59.0848 215.582 58.7453C215.683 58.3906 215.678 58.1828 215.703 58.1828C215.714 58.1828 215.719 58.2335 215.724 58.3348C215.729 58.4311 215.719 58.5781 215.683 58.7656C215.612 59.1305 215.389 59.6778 214.847 60.1085C214.32 60.5393 213.428 60.7977 212.551 60.4835C211.68 60.1947 210.92 59.2723 210.93 58.1879C210.92 57.1034 211.68 56.176 212.551 55.8922C213.428 55.5781 214.32 55.8365 214.847 56.2672C215.389 56.698 215.612 57.2453 215.683 57.6102C215.724 57.7926 215.729 57.9396 215.724 58.0409C215.719 58.1321 215.714 58.1828 215.703 58.1828Z" fill="#455A64"/>
<path d="M209.552 62.7437C209.552 62.9565 209.379 63.1288 209.166 63.1288C208.954 63.1288 208.781 62.9565 208.781 62.7437C208.781 62.5308 208.954 62.3586 209.166 62.3586C209.379 62.3586 209.552 62.5308 209.552 62.7437Z" fill="#263238"/>
<path d="M212.46 62.7437C212.46 62.9565 212.287 63.1288 212.075 63.1288C211.862 63.1288 211.689 62.9565 211.689 62.7437C211.689 62.5308 211.862 62.3586 212.075 62.3586C212.287 62.3636 212.46 62.5308 212.46 62.7437Z" fill="#263238"/>
<path d="M215.363 62.7437C215.363 62.9565 215.191 63.1288 214.978 63.1288C214.765 63.1288 214.593 62.9565 214.593 62.7437C214.593 62.5308 214.765 62.3586 214.978 62.3586C215.191 62.3636 215.363 62.5308 215.363 62.7437Z" fill="#263238"/>
<path d="M209.166 65.5917C209.379 65.5917 209.552 65.4193 209.552 65.2065C209.552 64.9938 209.379 64.8214 209.166 64.8214C208.954 64.8214 208.781 64.9938 208.781 65.2065C208.781 65.4193 208.954 65.5917 209.166 65.5917Z" fill="#263238"/>
<path d="M212.46 65.2065C212.46 65.4194 212.287 65.5917 212.075 65.5917C211.862 65.5917 211.689 65.4194 211.689 65.2065C211.689 64.9937 211.862 64.8214 212.075 64.8214C212.287 64.8214 212.46 64.9937 212.46 65.2065Z" fill="#263238"/>
<path d="M214.978 65.5917C215.191 65.5917 215.363 65.4193 215.363 65.2065C215.363 64.9938 215.191 64.8214 214.978 64.8214C214.765 64.8214 214.593 64.9938 214.593 65.2065C214.593 65.4193 214.765 65.5917 214.978 65.5917Z" fill="#263238"/>
<path d="M209.166 68.0545C209.379 68.0545 209.552 67.8821 209.552 67.6694C209.552 67.4567 209.379 67.2842 209.166 67.2842C208.954 67.2842 208.781 67.4567 208.781 67.6694C208.781 67.8821 208.954 68.0545 209.166 68.0545Z" fill="#263238"/>
<path d="M212.46 67.6694C212.46 67.8822 212.287 68.0545 212.075 68.0545C211.862 68.0545 211.689 67.8822 211.689 67.6694C211.689 67.4565 211.862 67.2842 212.075 67.2842C212.287 67.2842 212.46 67.4565 212.46 67.6694Z" fill="#263238"/>
<path d="M214.978 68.0545C215.191 68.0545 215.363 67.8821 215.363 67.6694C215.363 67.4567 215.191 67.2842 214.978 67.2842C214.765 67.2842 214.593 67.4567 214.593 67.6694C214.593 67.8821 214.765 68.0545 214.978 68.0545Z" fill="#263238"/>
<path d="M217.999 66.6001C218.769 66.6001 219.393 65.9761 219.393 65.2065C219.393 64.4368 218.769 63.8129 217.999 63.8129C217.229 63.8129 216.605 64.4368 216.605 65.2065C216.605 65.9761 217.229 66.6001 217.999 66.6001Z" fill="#4643D2"/>
<path d="M198.286 0.00146484H188.86V219.297H198.286V0.00146484Z" fill="#263238"/>
<path d="M188.854 9.25488H94.9971V219.303H188.854V9.25488Z" fill="#455A64"/>
<path d="M97.6332 0.00164795H88.9473V219.298H97.6332V0.00164795Z" fill="#263238"/>
<path d="M198.286 0.00164795H88.9473V9.25512H198.286V0.00164795Z" fill="#263238"/>
<path d="M198.285 0.00143278C198.296 0.0166356 198.169 0.143326 197.931 0.366301C197.647 0.62475 197.307 0.938942 196.912 1.29874C195.995 2.12476 194.829 3.1839 193.537 4.35452C192.225 5.55554 191.054 6.66028 190.253 7.5015C189.853 7.92212 189.544 8.27685 189.356 8.5353C189.26 8.66706 189.204 8.77348 189.164 8.84949C189.138 8.9255 189.123 8.97111 189.113 8.97111C189.103 8.97111 189.103 8.9255 189.113 8.83429C189.138 8.74814 189.184 8.62652 189.27 8.48462C189.437 8.19577 189.731 7.82077 190.116 7.37988C190.892 6.49812 192.042 5.36804 193.36 4.16195C194.672 2.96092 195.894 1.90686 196.791 1.16192C197.242 0.786913 197.606 0.492992 197.865 0.290287C198.123 0.0926499 198.27 -0.0137701 198.285 0.00143278Z" fill="#455A64"/>
<path d="M97.6273 9.44292C97.5716 9.49359 95.5851 7.41587 93.1881 4.81112C90.7911 2.20129 88.8907 0.047556 88.9414 0.0019474C88.9972 -0.0487288 90.9837 2.02393 93.3807 4.63375C95.7827 7.24357 97.6831 9.39731 97.6273 9.44292Z" fill="#455A64"/>
<path d="M103.384 132.879H103.115C101.448 132.879 100.09 131.526 100.09 129.854V107.85C100.09 106.183 101.443 104.825 103.115 104.825H103.384C105.051 104.825 106.409 106.178 106.409 107.85V129.854C106.409 131.526 105.056 132.879 103.384 132.879Z" fill="#263238"/>
<path d="M104.535 125.992C104.535 125.405 104.058 124.928 103.47 124.928C102.883 124.928 102.406 125.405 102.406 125.992C102.406 126.408 102.644 126.763 102.994 126.94V128.177C102.994 128.44 103.207 128.653 103.47 128.653C103.734 128.653 103.947 128.44 103.947 128.177V126.94C104.291 126.763 104.535 126.408 104.535 125.992Z" fill="#455A64"/>
<path d="M118.947 117.631H104.772C103.886 117.631 103.166 116.911 103.166 116.024V115.883C103.166 114.996 103.886 114.276 104.772 114.276H118.947C119.833 114.276 120.553 114.996 120.553 115.883V116.024C120.553 116.911 119.833 117.631 118.947 117.631Z" fill="#263238"/>
<path d="M109.485 117.727C109.485 117.747 109.298 117.758 108.958 117.773C108.558 117.788 108.081 117.808 107.519 117.834C106.911 117.854 106.181 117.869 105.37 117.758C104.97 117.697 104.539 117.626 104.118 117.443C103.703 117.261 103.292 116.967 103.044 116.521C102.806 116.08 102.77 115.538 102.978 115.097C103.08 114.879 103.257 114.687 103.46 114.575C103.657 114.459 103.855 114.388 104.053 114.322C104.843 114.058 105.593 114.079 106.196 114.068C106.809 114.073 107.301 114.099 107.64 114.119C107.98 114.139 108.167 114.16 108.167 114.18C108.167 114.22 107.412 114.226 106.201 114.256C105.598 114.291 104.874 114.291 104.129 114.555C103.759 114.687 103.368 114.839 103.216 115.209C103.049 115.563 103.08 116.025 103.282 116.394C103.49 116.769 103.85 117.038 104.23 117.205C104.61 117.378 105.02 117.454 105.411 117.514C106.196 117.631 106.916 117.636 107.524 117.641C108.73 117.641 109.485 117.687 109.485 117.727Z" fill="#455A64"/>
<path d="M139.345 56.2824C139.345 56.2824 139.34 56.2216 139.34 56.1152C139.34 55.9986 139.335 55.8415 139.335 55.6338C139.33 55.203 139.324 54.5797 139.319 53.7689C139.314 52.132 139.299 49.7553 139.289 46.7452C139.274 40.7198 139.253 32.1606 139.228 21.9797L139.345 22.0963C131.069 22.1013 121.562 22.1064 111.493 22.1115H111.488L111.62 21.9797C111.61 34.669 111.605 46.4715 111.6 56.2875L111.488 56.176C119.865 56.2013 126.812 56.2216 131.677 56.2317C134.105 56.2419 136.015 56.252 137.328 56.2621C137.976 56.2672 138.473 56.2723 138.823 56.2723C139.162 56.2774 139.345 56.2824 139.345 56.2824C139.345 56.2824 139.183 56.2926 138.848 56.2926C138.503 56.2976 138.017 56.2976 137.378 56.3027C136.071 56.3078 134.171 56.3179 131.753 56.3331C126.873 56.3483 119.9 56.3686 111.493 56.3888H111.382V56.2774C111.377 46.4614 111.366 34.664 111.361 21.9696V21.8378H111.488H111.493C121.557 21.8429 131.069 21.848 139.345 21.853H139.461V21.9696C139.436 32.1808 139.416 40.7704 139.4 46.811C139.385 49.8111 139.375 52.1777 139.37 53.8094C139.365 54.6101 139.36 55.2233 139.355 55.649C139.35 55.8517 139.35 56.0037 139.35 56.1203C139.35 56.2368 139.345 56.2875 139.345 56.2824Z" fill="#263238"/>
<path d="M134.759 52.0408C134.759 52.0408 134.754 51.9952 134.754 51.9091C134.754 51.8128 134.749 51.6912 134.749 51.5391C134.744 51.1996 134.739 50.7233 134.734 50.105C134.728 48.8482 134.713 47.029 134.703 44.7283C134.688 40.1218 134.668 33.5998 134.642 25.8818L134.764 26.0034C128.987 26.0085 122.46 26.0136 115.573 26.0136C115.542 26.0389 115.821 25.7652 115.705 25.8869V25.8919V25.9071V25.9375V25.9933V26.1098V26.3379V26.794V27.7011C115.705 28.3041 115.705 28.9072 115.705 29.5051C115.705 30.7011 115.705 31.8869 115.705 33.0525C115.705 35.3886 115.7 37.664 115.7 39.8634C115.695 44.262 115.689 48.3617 115.679 52.0358L115.573 51.9293C121.37 51.9547 126.149 51.9699 129.499 51.9851C131.166 51.9952 132.473 52.0054 133.381 52.0104C133.821 52.0155 134.161 52.0206 134.404 52.0206C134.632 52.0307 134.759 52.0408 134.759 52.0408C134.759 52.0408 134.647 52.051 134.424 52.051C134.186 52.056 133.852 52.056 133.421 52.0611C132.519 52.0662 131.222 52.0763 129.565 52.0864C126.2 52.1016 121.396 52.1168 115.573 52.1422H115.466V52.0358C115.461 48.3617 115.456 44.2671 115.446 39.8634C115.446 37.664 115.441 35.3886 115.441 33.0525C115.441 31.8819 115.441 30.7011 115.441 29.5051C115.441 28.9072 115.441 28.3041 115.441 27.7011V26.794V26.3379V26.1098V25.9984V25.9426V25.9122V25.897V25.8919C115.325 26.0085 115.598 25.7247 115.573 25.7551C122.46 25.7602 128.987 25.7652 134.764 25.7652H134.886V25.8869C134.86 33.6353 134.84 40.1826 134.825 44.8093C134.81 47.0948 134.799 48.904 134.794 50.1557C134.789 50.7638 134.784 51.2351 134.779 51.5645C134.774 51.7165 134.774 51.8331 134.774 51.9243C134.764 52.0003 134.759 52.0408 134.759 52.0408Z" fill="#263238"/>
<path d="M139.345 128.699C139.345 128.699 139.34 128.587 139.335 128.379C139.335 128.167 139.329 127.857 139.324 127.457C139.319 126.641 139.314 125.44 139.309 123.889C139.299 120.778 139.289 116.253 139.274 110.562C139.259 99.1899 139.238 83.1712 139.213 64.5528L139.34 64.6794C130.684 64.6794 121.263 64.6845 111.493 64.6845H111.488L111.62 64.5528C111.605 89.531 111.594 112.183 111.584 128.694L111.488 128.597C120.078 128.618 127.03 128.638 131.84 128.648C134.247 128.658 136.117 128.668 137.389 128.673C138.022 128.678 138.503 128.683 138.838 128.683C139.172 128.694 139.345 128.699 139.345 128.699C139.345 128.699 139.183 128.704 138.863 128.709C138.534 128.709 138.058 128.714 137.429 128.719C136.157 128.724 134.297 128.734 131.9 128.744C127.076 128.754 120.103 128.775 111.493 128.795H111.397V128.699C111.387 112.188 111.371 89.5361 111.361 64.5578V64.4261H111.488H111.493C121.269 64.4261 130.684 64.4311 139.34 64.4311H139.466V64.5578C139.441 83.2117 139.421 99.2558 139.406 110.648C139.39 116.324 139.38 120.839 139.37 123.945C139.365 125.486 139.36 126.672 139.355 127.487C139.35 127.883 139.35 128.187 139.345 128.395C139.35 128.597 139.345 128.699 139.345 128.699Z" fill="#263238"/>
<path d="M134.758 125.146C134.758 125.146 134.753 125.045 134.748 124.862C134.748 124.67 134.743 124.396 134.738 124.036C134.733 123.307 134.728 122.237 134.723 120.859C134.713 118.087 134.703 114.068 134.687 109.026C134.672 98.9517 134.652 84.8131 134.627 68.5106L134.753 68.6373C128.708 68.6373 122.236 68.6423 115.567 68.6423H115.562L115.694 68.5106C115.674 91.1527 115.659 111.474 115.648 125.146L115.562 125.06C121.562 125.08 126.346 125.096 129.645 125.106C131.292 125.116 132.564 125.121 133.431 125.126C133.856 125.131 134.186 125.131 134.414 125.136C134.642 125.141 134.758 125.146 134.758 125.146C134.758 125.146 134.652 125.151 134.434 125.156C134.211 125.156 133.887 125.161 133.466 125.167C132.6 125.172 131.338 125.177 129.701 125.187C126.392 125.197 121.588 125.212 115.567 125.232H115.481V125.146C115.471 111.474 115.456 91.1527 115.436 68.5106V68.3788H115.567H115.572C122.241 68.3788 128.713 68.3839 134.758 68.3839H134.885V68.5106C134.86 84.8435 134.839 99.0176 134.824 109.112C134.809 114.139 134.799 118.153 134.789 120.915C134.784 122.283 134.774 123.342 134.774 124.067C134.769 124.417 134.769 124.685 134.763 124.878C134.763 125.055 134.758 125.146 134.758 125.146Z" fill="#263238"/>
<path d="M139.345 209.933C139.345 209.933 139.34 209.821 139.335 209.613C139.335 209.401 139.329 209.091 139.324 208.691C139.319 207.875 139.314 206.674 139.309 205.123C139.299 202.012 139.289 197.487 139.274 191.796C139.259 180.424 139.238 164.405 139.213 145.787L139.34 145.913C130.684 145.913 121.263 145.918 111.493 145.918H111.488L111.62 145.787C111.605 170.765 111.594 193.417 111.584 209.928L111.488 209.831C120.078 209.852 127.03 209.872 131.84 209.882C134.247 209.892 136.117 209.902 137.389 209.907C138.022 209.912 138.503 209.917 138.838 209.917C139.172 209.928 139.345 209.933 139.345 209.933C139.345 209.933 139.183 209.938 138.863 209.943C138.534 209.943 138.058 209.948 137.429 209.953C136.157 209.958 134.297 209.968 131.9 209.978C127.076 209.988 120.103 210.009 111.493 210.029H111.397V209.933C111.387 193.422 111.371 170.77 111.361 145.792V145.66H111.488H111.493C121.269 145.66 130.684 145.665 139.34 145.665H139.466V145.792C139.441 164.446 139.421 180.49 139.406 191.882C139.39 197.557 139.38 202.073 139.37 205.179C139.365 206.72 139.36 207.906 139.355 208.721C139.35 209.117 139.35 209.421 139.345 209.629C139.35 209.831 139.345 209.933 139.345 209.933Z" fill="#263238"/>
<path d="M134.758 206.38C134.758 206.38 134.753 206.279 134.748 206.096C134.748 205.904 134.743 205.63 134.738 205.27C134.733 204.541 134.728 203.471 134.723 202.093C134.713 199.321 134.703 195.302 134.687 190.26C134.672 180.186 134.652 166.047 134.627 149.745L134.753 149.871C128.708 149.871 122.236 149.876 115.567 149.876H115.562L115.694 149.745C115.674 172.387 115.659 192.708 115.648 206.38L115.562 206.294C121.562 206.314 126.346 206.33 129.645 206.34C131.292 206.35 132.564 206.355 133.431 206.36C133.856 206.365 134.186 206.365 134.414 206.37C134.642 206.37 134.758 206.38 134.758 206.38C134.758 206.38 134.652 206.385 134.434 206.39C134.211 206.39 133.887 206.395 133.466 206.4C132.6 206.406 131.338 206.411 129.701 206.421C126.392 206.431 121.588 206.446 115.567 206.466H115.481V206.38C115.471 192.708 115.456 172.387 115.436 149.745V149.613H115.567H115.572C122.241 149.613 128.713 149.618 134.758 149.618H134.885V149.745C134.86 166.077 134.839 180.252 134.824 190.346C134.809 195.373 134.799 199.387 134.789 202.149C134.784 203.517 134.774 204.576 134.774 205.301C134.769 205.65 134.769 205.919 134.763 206.112C134.763 206.289 134.758 206.38 134.758 206.38Z" fill="#263238"/>
<path d="M116.013 52.0256C116.059 52.0814 114.995 53.0239 113.631 54.1338C112.268 55.2436 111.128 56.0949 111.082 56.0392C111.037 55.9834 112.101 55.0409 113.464 53.931C114.827 52.8212 115.968 51.9699 116.013 52.0256Z" fill="#263238"/>
<path d="M139.501 55.7807C139.466 55.8415 138.325 55.1574 137.059 54.1236C135.792 53.0949 134.895 52.1168 134.945 52.0662C135.001 52.0104 135.969 52.8973 137.226 53.9209C138.478 54.9395 139.542 55.7149 139.501 55.7807Z" fill="#263238"/>
<path d="M138.929 22.7905C138.969 22.8513 138.032 23.6064 136.826 24.4831C135.62 25.3598 134.611 26.0186 134.571 25.9628C134.53 25.902 135.468 25.1469 136.674 24.2702C137.875 23.3935 138.883 22.7348 138.929 22.7905Z" fill="#263238"/>
<path d="M115.648 25.451C115.613 25.5119 114.549 24.9848 113.343 24.1537C112.137 23.3226 111.26 22.5169 111.305 22.4612C111.356 22.4054 112.294 23.1149 113.49 23.9358C114.686 24.7619 115.684 25.3852 115.648 25.451Z" fill="#263238"/>
<path d="M115.466 68.5916C115.435 68.6474 114.244 67.9531 113.13 66.6862C112.01 65.4244 111.462 64.1575 111.523 64.1321C111.594 64.0916 112.233 65.2825 113.327 66.5089C114.412 67.7454 115.511 68.5258 115.466 68.5916Z" fill="#263238"/>
<path d="M138.995 64.5274C139.046 64.5832 138.159 65.4396 137.019 66.4379C135.878 67.4413 134.915 68.2065 134.87 68.1508C134.824 68.095 135.706 67.2386 136.846 66.2403C137.986 65.2369 138.944 64.4717 138.995 64.5274Z" fill="#263238"/>
<path d="M115.456 125.435C115.496 125.501 114.574 126.17 113.525 127.102C112.471 128.03 111.696 128.866 111.635 128.815C111.579 128.775 112.279 127.847 113.353 126.905C114.417 125.957 115.42 125.379 115.456 125.435Z" fill="#263238"/>
<path d="M138.559 128.638C138.508 128.694 137.641 127.974 136.623 127.031C135.604 126.089 134.819 125.283 134.87 125.232C134.92 125.177 135.787 125.896 136.805 126.839C137.824 127.781 138.609 128.587 138.559 128.638Z" fill="#263238"/>
<path d="M115.927 150.505C115.876 150.555 114.827 149.552 113.586 148.26C112.344 146.967 111.381 145.883 111.437 145.832C111.488 145.782 112.537 146.785 113.778 148.077C115.02 149.364 115.983 150.454 115.927 150.505Z" fill="#263238"/>
<path d="M139.248 145.63C139.299 145.68 138.346 146.684 137.115 147.864C135.888 149.045 134.849 149.962 134.799 149.912C134.748 149.861 135.701 148.858 136.932 147.677C138.159 146.491 139.197 145.574 139.248 145.63Z" fill="#263238"/>
<path d="M115 206.046C115.055 206.096 114.321 206.993 113.363 208.052C112.405 209.112 111.584 209.933 111.528 209.882C111.473 209.831 112.207 208.934 113.165 207.875C114.128 206.816 114.949 206 115 206.046Z" fill="#263238"/>
<path d="M138.883 209.932C138.843 209.988 137.829 209.274 136.719 208.23C135.604 207.191 134.824 206.228 134.88 206.182C134.936 206.132 135.797 207.008 136.902 208.037C138.001 209.071 138.929 209.872 138.883 209.932Z" fill="#263238"/>
<path d="M176.414 56.2824C176.414 56.2824 176.409 56.2216 176.409 56.1151C176.409 55.9986 176.404 55.8415 176.404 55.6337C176.399 55.203 176.394 54.5796 176.389 53.7688C176.384 52.132 176.368 49.7553 176.358 46.7451C176.343 40.7197 176.323 32.1605 176.297 21.9797L176.414 22.0962C168.139 22.1013 158.632 22.1064 148.562 22.1114H148.557L148.689 21.9797C148.679 34.669 148.674 46.4715 148.669 56.2874L148.557 56.1759C156.934 56.2013 163.882 56.2216 168.747 56.2317C171.174 56.2418 173.085 56.252 174.397 56.2621C175.046 56.2672 175.542 56.2722 175.892 56.2722C176.232 56.2773 176.414 56.2824 176.414 56.2824C176.414 56.2824 176.252 56.2925 175.917 56.2925C175.573 56.2976 175.086 56.2976 174.448 56.3026C173.14 56.3077 171.24 56.3178 168.823 56.333C163.943 56.3483 156.97 56.3685 148.562 56.3888H148.451V56.2773C148.446 46.4613 148.436 34.6639 148.431 21.9695V21.8378H148.562H148.567C158.632 21.8428 168.144 21.8479 176.419 21.853H176.536V21.9695C176.51 32.1808 176.49 40.7704 176.475 46.811C176.46 49.811 176.45 52.1776 176.444 53.8094C176.439 54.6101 176.434 55.2232 176.429 55.6489C176.424 55.8516 176.424 56.0036 176.424 56.1202C176.419 56.2368 176.414 56.2874 176.414 56.2824Z" fill="#263238"/>
<path d="M171.828 52.0408C171.828 52.0408 171.823 51.9952 171.823 51.909C171.823 51.8127 171.818 51.6911 171.818 51.5391C171.813 51.1996 171.808 50.7232 171.803 50.105C171.798 48.8482 171.783 47.0289 171.772 44.7282C171.757 40.1217 171.737 33.5997 171.712 25.8817L171.833 26.0034C166.056 26.0084 159.529 26.0135 152.642 26.0135C152.612 26.0388 152.891 25.7652 152.774 25.8868V25.8919V25.9071V25.9375V25.9932V26.1098V26.3378V26.7939V27.701C152.774 28.3041 152.774 28.9071 152.774 29.5051C152.774 30.7011 152.774 31.8869 152.774 33.0524C152.774 35.3886 152.769 37.664 152.769 39.8633C152.764 44.262 152.759 48.3617 152.749 52.0357L152.642 51.9293C158.44 51.9546 163.218 51.9698 166.568 51.985C168.235 51.9952 169.543 52.0053 170.45 52.0104C170.891 52.0154 171.23 52.0205 171.473 52.0205C171.702 52.0306 171.828 52.0408 171.828 52.0408C171.828 52.0408 171.717 52.0509 171.494 52.0509C171.256 52.056 170.921 52.056 170.49 52.0611C169.588 52.0661 168.291 52.0763 166.634 52.0864C163.269 52.1016 158.465 52.1168 152.642 52.1421H152.536V52.0357C152.531 48.3617 152.526 44.2671 152.516 39.8633C152.516 37.664 152.51 35.3886 152.51 33.0524C152.51 31.8818 152.51 30.7011 152.51 29.5051C152.51 28.9071 152.51 28.3041 152.51 27.701V26.7939V26.3378V26.1098V25.9983V25.9426V25.9122V25.8969V25.8919C152.394 26.0084 152.668 25.7247 152.642 25.7551C159.529 25.7601 166.056 25.7652 171.833 25.7652H171.955V25.8868C171.93 33.6352 171.909 40.1826 171.894 44.8093C171.879 47.0948 171.869 48.9039 171.864 50.1556C171.859 50.7637 171.854 51.235 171.848 51.5644C171.843 51.7165 171.843 51.833 171.843 51.9242C171.833 52.0002 171.828 52.0408 171.828 52.0408Z" fill="#263238"/>
<path d="M176.414 128.699C176.414 128.699 176.409 128.587 176.404 128.379C176.404 128.166 176.399 127.857 176.394 127.457C176.389 126.641 176.384 125.44 176.379 123.889C176.368 120.778 176.358 116.253 176.343 110.562C176.328 99.1899 176.308 83.1711 176.282 64.5527L176.409 64.6794C167.753 64.6794 158.333 64.6845 148.562 64.6845H148.557L148.689 64.5527C148.674 89.531 148.664 112.183 148.654 128.694L148.557 128.597C157.147 128.618 164.1 128.638 168.909 128.648C171.316 128.658 173.186 128.668 174.458 128.673C175.091 128.678 175.573 128.683 175.907 128.683C176.242 128.694 176.414 128.699 176.414 128.699C176.414 128.699 176.252 128.704 175.933 128.709C175.603 128.709 175.127 128.714 174.498 128.719C173.227 128.724 171.367 128.734 168.97 128.744C164.145 128.754 157.172 128.775 148.562 128.795H148.466V128.699C148.456 112.188 148.441 89.536 148.431 64.5578V64.426H148.562H148.567C158.343 64.426 167.759 64.4311 176.414 64.4311H176.541V64.5578C176.515 83.2117 176.495 99.2557 176.48 110.648C176.465 116.323 176.455 120.839 176.444 123.945C176.439 125.486 176.434 126.672 176.429 127.487C176.424 127.883 176.424 128.187 176.419 128.395C176.419 128.597 176.414 128.699 176.414 128.699Z" fill="#263238"/>
<path d="M171.828 125.146C171.828 125.146 171.823 125.045 171.818 124.862C171.818 124.67 171.812 124.396 171.807 124.036C171.802 123.307 171.797 122.237 171.792 120.859C171.782 118.087 171.772 114.068 171.757 109.026C171.742 98.9517 171.721 84.8131 171.696 68.5106L171.823 68.6373C165.777 68.6373 159.306 68.6423 152.637 68.6423H152.632L152.763 68.5106C152.743 91.1527 152.728 111.474 152.718 125.146L152.632 125.06C158.632 125.08 163.415 125.096 166.714 125.106C168.361 125.116 169.633 125.121 170.5 125.126C170.926 125.131 171.255 125.131 171.483 125.136C171.711 125.141 171.828 125.146 171.828 125.146C171.828 125.146 171.721 125.151 171.503 125.156C171.28 125.156 170.956 125.161 170.535 125.167C169.669 125.172 168.407 125.177 166.77 125.187C163.461 125.197 158.657 125.212 152.637 125.232H152.55V125.146C152.54 111.474 152.525 91.1527 152.505 68.5106V68.3788H152.637H152.642C159.311 68.3788 165.782 68.3839 171.828 68.3839H171.954V68.5106C171.929 84.8435 171.909 99.0176 171.894 109.112C171.878 114.139 171.868 118.153 171.858 120.915C171.853 122.283 171.848 123.342 171.843 124.067C171.838 124.417 171.838 124.685 171.833 124.878C171.833 125.055 171.828 125.146 171.828 125.146Z" fill="#263238"/>
<path d="M176.414 209.933C176.414 209.933 176.409 209.821 176.404 209.613C176.404 209.4 176.399 209.091 176.394 208.691C176.389 207.875 176.384 206.674 176.379 205.123C176.368 202.012 176.358 197.486 176.343 191.796C176.328 180.424 176.308 164.405 176.282 145.787L176.409 145.913C167.753 145.913 158.333 145.918 148.562 145.918H148.557L148.689 145.787C148.674 170.765 148.664 193.417 148.654 209.927L148.557 209.831C157.147 209.851 164.1 209.872 168.909 209.882C171.316 209.892 173.186 209.902 174.458 209.907C175.091 209.912 175.573 209.917 175.907 209.917C176.242 209.927 176.414 209.933 176.414 209.933C176.414 209.933 176.252 209.938 175.933 209.943C175.603 209.943 175.127 209.948 174.498 209.953C173.227 209.958 171.367 209.968 168.97 209.978C164.145 209.988 157.172 210.009 148.562 210.029H148.466V209.933C148.456 193.422 148.441 170.77 148.431 145.792V145.66H148.562H148.567C158.343 145.66 167.759 145.665 176.414 145.665H176.541V145.792C176.515 164.446 176.495 180.49 176.48 191.882C176.465 197.557 176.455 202.073 176.444 205.179C176.439 206.72 176.434 207.905 176.429 208.721C176.424 209.117 176.424 209.421 176.419 209.628C176.419 209.831 176.414 209.933 176.414 209.933Z" fill="#263238"/>
<path d="M171.828 206.38C171.828 206.38 171.823 206.279 171.818 206.096C171.818 205.904 171.812 205.63 171.807 205.27C171.802 204.541 171.797 203.471 171.792 202.093C171.782 199.321 171.772 195.302 171.757 190.26C171.742 180.186 171.721 166.047 171.696 149.745L171.823 149.871C165.777 149.871 159.306 149.876 152.637 149.876H152.632L152.763 149.745C152.743 172.387 152.728 192.708 152.718 206.38L152.632 206.294C158.632 206.314 163.415 206.33 166.714 206.34C168.361 206.35 169.633 206.355 170.5 206.36C170.926 206.365 171.255 206.365 171.483 206.37C171.711 206.37 171.828 206.38 171.828 206.38C171.828 206.38 171.721 206.385 171.503 206.39C171.28 206.39 170.956 206.395 170.535 206.4C169.669 206.406 168.407 206.411 166.77 206.421C163.461 206.431 158.657 206.446 152.637 206.466H152.55V206.38C152.54 192.708 152.525 172.387 152.505 149.745V149.613H152.637H152.642C159.311 149.613 165.782 149.618 171.828 149.618H171.954V149.745C171.929 166.077 171.909 180.252 171.894 190.346C171.878 195.373 171.868 199.387 171.858 202.149C171.853 203.517 171.848 204.576 171.843 205.301C171.838 205.65 171.838 205.919 171.833 206.112C171.833 206.289 171.828 206.38 171.828 206.38Z" fill="#263238"/>
<path d="M153.083 52.0256C153.128 52.0813 152.064 53.0239 150.701 54.1337C149.338 55.2435 148.197 56.0949 148.152 56.0391C148.106 55.9834 149.17 55.0408 150.534 53.931C151.897 52.8212 153.037 51.9698 153.083 52.0256Z" fill="#263238"/>
<path d="M176.571 55.7807C176.536 55.8415 175.396 55.1574 174.129 54.1236C172.862 53.0948 171.965 52.1168 172.016 52.0661C172.071 52.0104 173.039 52.8972 174.296 53.9209C175.548 54.9395 176.612 55.7148 176.571 55.7807Z" fill="#263238"/>
<path d="M175.998 22.7905C176.039 22.8513 175.101 23.6064 173.895 24.4831C172.689 25.3598 171.68 26.0186 171.64 25.9628C171.599 25.902 172.537 25.1469 173.743 24.2702C174.944 23.3935 175.952 22.7348 175.998 22.7905Z" fill="#263238"/>
<path d="M152.718 25.451C152.682 25.5118 151.618 24.9848 150.412 24.1537C149.206 23.3226 148.329 22.5168 148.375 22.4611C148.425 22.4054 149.363 23.1148 150.559 23.9358C151.755 24.7618 152.753 25.3851 152.718 25.451Z" fill="#263238"/>
<path d="M152.535 68.5916C152.505 68.6474 151.314 67.9531 150.199 66.6862C149.079 65.4244 148.532 64.1575 148.592 64.1321C148.663 64.0916 149.302 65.2825 150.397 66.5089C151.481 67.7454 152.581 68.5258 152.535 68.5916Z" fill="#263238"/>
<path d="M176.064 64.5274C176.115 64.5832 175.228 65.4396 174.088 66.4379C172.948 67.4413 171.985 68.2065 171.939 68.1508C171.894 68.095 172.775 67.2386 173.916 66.2403C175.056 65.2369 176.014 64.4717 176.064 64.5274Z" fill="#263238"/>
<path d="M152.525 125.435C152.566 125.501 151.644 126.17 150.595 127.102C149.54 128.03 148.765 128.866 148.704 128.815C148.649 128.775 149.348 127.847 150.422 126.905C151.486 125.957 152.49 125.379 152.525 125.435Z" fill="#263238"/>
<path d="M175.628 128.638C175.577 128.694 174.711 127.974 173.692 127.031C172.674 126.089 171.888 125.283 171.939 125.232C171.99 125.177 172.856 125.896 173.875 126.839C174.893 127.781 175.679 128.587 175.628 128.638Z" fill="#263238"/>
<path d="M153.002 150.505C152.951 150.555 151.902 149.552 150.661 148.26C149.419 146.967 148.456 145.883 148.512 145.832C148.563 145.782 149.612 146.785 150.853 148.077C152.09 149.364 153.053 150.454 153.002 150.505Z" fill="#263238"/>
<path d="M176.318 145.63C176.368 145.68 175.415 146.684 174.184 147.864C172.958 149.045 171.919 149.962 171.868 149.912C171.817 149.861 172.77 148.858 174.002 147.677C175.228 146.491 176.267 145.574 176.318 145.63Z" fill="#263238"/>
<path d="M152.069 206.046C152.125 206.096 151.39 206.993 150.432 208.052C149.474 209.112 148.653 209.933 148.598 209.882C148.542 209.831 149.277 208.934 150.235 207.875C151.197 206.816 152.018 206 152.069 206.046Z" fill="#263238"/>
<path d="M175.953 209.932C175.912 209.988 174.898 209.274 173.789 208.23C172.674 207.191 171.893 206.228 171.949 206.182C172.005 206.132 172.866 207.008 173.971 208.037C175.071 209.071 175.998 209.872 175.953 209.932Z" fill="#263238"/>
<path d="M231.069 174.617H168.909V219.303H231.069V174.617Z" fill="#4643D2"/>
<path d="M185.582 174.616C185.668 174.616 185.582 184.052 185.582 184.052H180.98V174.616H185.582Z" fill="#263238"/>
<g opacity="0.4">
<path opacity="0.4" d="M199.991 219.299H231.07V174.612H199.991V219.299Z" fill="black"/>
</g>
<path d="M179.126 210.552H170.805V216.44H179.126V210.552Z" fill="#E9E9FF"/>
<path d="M179.14 216.455H170.794V210.541H179.14V216.455ZM170.819 216.429H179.115V210.566H170.819V216.429Z" fill="#263238"/>
<path d="M184.822 210.552H180.661V216.44H184.822V210.552Z" fill="#E9E9FF"/>
<path d="M184.836 216.455H180.65V210.541H184.836V216.455ZM180.676 216.429H184.811V210.566H180.676V216.429Z" fill="#263238"/>
</svg>
