<svg width="20" height="29" viewBox="0 0 20 29" fill="none" xmlns="http://www.w3.org/2000/svg">
<path d="M18.9995 10.7916C18.9995 11.9312 18.4646 13.5671 17.5367 15.4858C16.6262 17.3685 15.4026 19.3944 14.1647 21.2705C12.9291 23.1431 11.6917 24.8477 10.7622 26.0853C10.4751 26.4675 10.2177 26.8047 9.99927 27.0881C9.7808 26.8047 9.52342 26.4675 9.23632 26.0853C8.30683 24.8477 7.0694 23.1431 5.83382 21.2705C4.59592 19.3944 3.37233 17.3685 2.46182 15.4858C1.53392 13.5671 0.999023 11.9312 0.999023 10.7916C0.999023 5.82087 5.02857 1.79132 9.99927 1.79132C14.97 1.79132 18.9995 5.82087 18.9995 10.7916Z" stroke="#4643D2" stroke-width="2"/>
<circle cx="9.99915" cy="10.7916" r="4.00012" stroke="#4643D2" stroke-width="2"/>
</svg>
