<svg width="319" height="240" viewBox="0 0 319 240" fill="none" xmlns="http://www.w3.org/2000/svg">
<path d="M70.384 181.048L69.5912 225.334L0.106499 225.494L0 180.616L70.384 181.048Z" fill="#E9E9FF"/>
<path d="M29.4472 225.37C29.3585 225.37 29.4591 215.483 29.678 203.295C29.8969 191.101 30.1454 181.22 30.24 181.22C30.3288 181.22 30.2282 191.106 30.0093 203.301C29.7845 215.489 29.536 225.37 29.4472 225.37Z" fill="#A5A4DB"/>
<path d="M0.106406 225.494C0.0945723 225.488 0.195155 225.328 0.390403 225.026C0.603401 224.707 0.887398 224.275 1.24831 223.725C2.0293 222.583 3.12388 220.968 4.47287 218.991C7.23592 214.986 11.0166 209.495 15.1997 203.431C19.3886 197.354 23.1575 191.834 25.8437 187.817C27.1867 185.805 28.2577 184.166 28.9913 183.03C29.3404 182.48 29.6185 182.042 29.8256 181.717C30.0208 181.421 30.1273 181.261 30.1332 181.267C30.1451 181.273 30.0563 181.439 29.8788 181.746C29.6836 182.078 29.4232 182.527 29.0978 183.095C28.3937 184.249 27.3583 185.912 26.0389 187.941C23.4001 191.994 19.6608 197.538 15.4718 203.614C11.2829 209.691 7.44892 215.163 4.66811 219.122C3.28363 221.08 2.15947 222.666 1.36073 223.796C0.976148 224.328 0.6744 224.748 0.449569 225.062C0.230654 225.352 0.112322 225.5 0.106406 225.494Z" fill="#A5A4DB"/>
<path d="M29.4472 225.37C29.4353 225.376 29.3288 225.228 29.1277 224.932C28.9147 224.612 28.6247 224.186 28.2638 223.648C27.5065 222.506 26.4356 220.891 25.128 218.915C22.4419 214.909 18.7617 209.413 14.697 203.342C10.6087 197.266 6.94627 191.746 4.34296 187.71C3.04131 185.693 1.99999 184.06 1.28999 182.918C0.952745 182.368 0.68058 181.93 0.479416 181.604C0.296001 181.303 0.207251 181.143 0.213168 181.137C0.225001 181.131 0.3315 181.279 0.532665 181.575C0.745663 181.894 1.03558 182.32 1.39649 182.859C2.15382 184.001 3.22472 185.616 4.5323 187.592C7.21844 191.598 10.8986 197.094 14.9633 203.165C19.0517 209.235 22.714 214.761 25.3174 218.79C26.619 220.808 27.6603 222.441 28.3703 223.583C28.7076 224.133 28.9797 224.571 29.1809 224.896C29.3643 225.204 29.459 225.364 29.4472 225.37Z" fill="#A5A4DB"/>
<path d="M36.6072 220.366L47.7637 220.566L47.8046 218.282L36.6481 218.083L36.6072 220.366Z" fill="#A5A4DB"/>
<path d="M37.1855 216.217C37.1855 216.128 39.6291 216.039 42.6407 216.021C45.6581 216.004 48.1017 216.063 48.1017 216.152C48.1017 216.24 45.6581 216.329 42.6466 216.347C39.635 216.365 37.1915 216.305 37.1855 216.217Z" fill="#A5A4DB"/>
<path d="M52.0184 180.794L51.7107 197.893L49.3085 195.976L46.1846 197.792L46.4863 180.699L52.0184 180.794Z" fill="#A5A4DB"/>
<path d="M62.0538 147.513L61.4444 181.309L8.41383 181.433L8.33691 147.182L62.0538 147.513Z" fill="#FCFEFF"/>
<path d="M30.8087 181.332C30.7377 181.332 30.8206 173.789 30.9862 164.482C31.1519 155.175 31.3471 147.637 31.4122 147.637C31.4832 147.637 31.4004 155.181 31.2347 164.488C31.0691 173.794 30.8797 181.338 30.8087 181.332Z" fill="#A5A4DB"/>
<path d="M8.41343 181.433C8.40751 181.427 8.47851 181.309 8.62643 181.078C8.78617 180.835 9.00509 180.504 9.28317 180.084C9.87483 179.208 10.715 177.983 11.7445 176.469C13.8508 173.41 16.7381 169.221 19.9331 164.594C23.128 159.955 26.0094 155.743 28.0566 152.678C29.0802 151.146 29.8966 149.891 30.4587 149.028C30.725 148.607 30.938 148.27 31.0977 148.022C31.2456 147.797 31.3285 147.679 31.3344 147.679C31.3403 147.684 31.2752 147.809 31.1391 148.045C30.9912 148.3 30.7901 148.643 30.5416 149.075C30.0031 149.956 29.2103 151.223 28.2045 152.773C26.1928 155.867 23.3351 160.097 20.1402 164.736C16.9452 169.375 14.0165 173.552 11.8924 176.569C10.8392 178.06 9.97541 179.273 9.366 180.137C9.07609 180.539 8.84534 180.865 8.67376 181.101C8.50809 181.32 8.41934 181.433 8.41343 181.433Z" fill="#A5A4DB"/>
<path d="M30.808 181.332C30.8021 181.338 30.7192 181.22 30.5654 181.001C30.3997 180.758 30.1808 180.433 29.9087 180.025C29.3288 179.149 28.5123 177.924 27.5124 176.41C25.4653 173.351 22.6549 169.156 19.5546 164.529C16.4365 159.89 13.638 155.678 11.65 152.601C10.656 151.063 9.86317 149.814 9.31885 148.945C9.05851 148.525 8.85143 148.187 8.6976 147.939C8.56152 147.708 8.49052 147.584 8.49644 147.578C8.50235 147.572 8.58519 147.69 8.73902 147.909C8.89877 148.152 9.1236 148.477 9.39576 148.885C9.97559 149.761 10.7921 150.986 11.792 152.501C13.8391 155.559 16.6495 159.754 19.7557 164.387C22.8738 169.02 25.6724 173.238 27.6544 176.315C28.6484 177.853 29.4412 179.102 29.9856 179.971C30.2459 180.391 30.453 180.729 30.6068 180.977C30.7429 181.208 30.8139 181.332 30.808 181.332Z" fill="#A5A4DB"/>
<path d="M36.2729 177.514L44.7852 177.666L44.8164 175.921L36.3041 175.769L36.2729 177.514Z" fill="#A5A4DB"/>
<path d="M36.7188 174.351C36.7188 174.28 38.5825 174.215 40.884 174.203C43.1856 174.191 45.0493 174.232 45.0493 174.303C45.0493 174.374 43.1856 174.439 40.884 174.451C38.5825 174.463 36.7188 174.416 36.7188 174.351Z" fill="#E9E9FF"/>
<path d="M51.3263 147.318L51.0956 160.364L49.2555 158.902L46.8711 160.287L47.1078 147.241L51.3263 147.318Z" fill="#A5A4DB"/>
<path d="M67.8048 222.305C66.4973 218.424 62.9591 215.927 59.1015 215.749L57.4744 126.201H65.308V127.538H66.7813V124.332H57.4389H57.2378H54.6108C54.6108 124.332 56.0604 190.408 57.1135 215.862C56.5988 215.945 56.0781 216.063 55.5693 216.234C51.475 217.613 48.9131 221.471 48.9959 225.571L21.2529 225.198L22.0458 228.843L49.3983 228.091C49.4338 228.216 49.4633 228.346 49.5048 228.47C51.2087 233.523 56.6875 236.244 61.7403 234.54C66.7872 232.836 69.5029 227.358 67.8048 222.305Z" fill="#A5A4DB"/>
<path d="M26.5596 234.156H28.0328L30.855 228.6L28.518 228.665L26.5596 234.156Z" fill="#A5A4DB"/>
<path d="M254.118 0H226.334V7.67976H254.118V0Z" fill="#E9E9FF"/>
<path d="M72.7922 50.6462H45.0078V58.326H72.7922V50.6462Z" fill="#E9E9FF"/>
<path d="M277.868 162.565H250.084V170.245H277.868V162.565Z" fill="#E9E9FF"/>
<path d="M247.066 7.67969H219.281V15.3595H247.066V7.67969Z" fill="#FCFEFF"/>
<path d="M61.0891 59.5565H33.3047V67.2363H61.0891V59.5565Z" fill="#FCFEFF"/>
<path d="M260.189 170.487H240.227V178.167H260.189V170.487Z" fill="#FCFEFF"/>
<path d="M142.963 25.5537H83.1104V147.951H142.963V25.5537Z" fill="#E9E9FF"/>
<path d="M113.043 25.5537C113.043 25.5537 100.772 81.0752 83.1172 84.8737C83.1172 84.8737 90.2526 123.817 90.8975 147.957H83.1172V25.5537H113.043Z" fill="#A5A4DB"/>
<path d="M113.244 25.5537C113.244 25.5537 125.515 81.0752 143.17 84.8737C143.17 84.8737 136.035 123.817 135.39 147.957H143.17V25.5537H113.244Z" fill="#A5A4DB"/>
<path d="M114.131 25.3231H111.948V147.957H114.131V25.3231Z" fill="#E9E9FF"/>
<path d="M97.4945 25.3231H96.9561V147.957H97.4945V25.3231Z" fill="#E9E9FF"/>
<path d="M129.804 25.3231H129.266V147.957H129.804V25.3231Z" fill="#E9E9FF"/>
<path d="M142.969 55.7285V56.2196L83.1104 56.4681V55.977L142.969 55.7285Z" fill="#E9E9FF"/>
<path d="M142.969 116.628V117.107L83.1104 117.35V116.865L142.969 116.628Z" fill="#E9E9FF"/>
<path d="M142.963 85.5247H83.1104V87.5659H142.963V85.5247Z" fill="#E9E9FF"/>
<path d="M143.857 148.838H82.2236V24.6664H143.851V148.838H143.857ZM83.9986 147.063H142.076V26.4414H83.9986V147.063Z" fill="#FCFEFF"/>
<path d="M318.112 25.5537H258.26V147.951H318.112V25.5537Z" fill="#E9E9FF"/>
<path d="M288.186 25.5537C288.186 25.5537 275.915 81.0752 258.26 84.8737C258.26 84.8737 265.395 123.817 266.04 147.957H258.26V25.5537H288.186Z" fill="#A5A4DB"/>
<path d="M288.388 25.5537C288.388 25.5537 300.659 81.0752 318.314 84.8737C318.314 84.8737 311.178 123.817 310.534 147.957H318.314V25.5537H288.388Z" fill="#A5A4DB"/>
<path d="M289.281 25.3231H287.098V147.957H289.281V25.3231Z" fill="#E9E9FF"/>
<path d="M272.644 25.3231H272.105V147.957H272.644V25.3231Z" fill="#E9E9FF"/>
<path d="M304.953 25.3231H304.415V147.957H304.953V25.3231Z" fill="#E9E9FF"/>
<path d="M318.112 55.7285V56.2196L258.26 56.4681V55.977L318.112 55.7285Z" fill="#E9E9FF"/>
<path d="M318.112 116.628V117.107L258.26 117.35V116.865L318.112 116.628Z" fill="#E9E9FF"/>
<path d="M318.112 85.5247H258.26V87.5659H318.112V85.5247Z" fill="#E9E9FF"/>
<path d="M319 148.838H257.373V24.6664H319V148.838ZM259.148 147.063H317.225V26.4414H259.148V147.063Z" fill="#FCFEFF"/>
<path d="M132.006 216.619C129.917 215.542 127.456 215.4 125.131 215.785C123.882 215.992 122.586 216.365 121.734 217.3C120.888 218.234 120.723 219.885 121.699 220.69C122.279 221.169 123.089 221.24 123.841 221.234C125.657 221.21 127.675 220.891 129.124 221.985C129.953 222.607 130.503 223.648 131.497 223.956C132.467 224.257 133.556 223.684 134.071 222.808C134.585 221.932 134.603 220.838 134.36 219.855C134.36 219.85 134.112 217.702 132.006 216.619Z" fill="#E9E9FF"/>
<path d="M136.792 207.371C135.514 209.2 133.029 208.59 131.875 207.478C130.721 206.366 130.236 204.75 129.792 203.206C128.781 199.686 127.757 195.994 128.514 192.408C128.739 191.337 129.141 190.266 129.893 189.474C130.644 188.681 131.804 188.207 132.863 188.486C134.117 188.817 134.892 190.042 135.454 191.213C137.111 194.645 137.987 198.449 137.999 202.259C138.005 204.034 137.797 205.904 136.792 207.371Z" fill="#E9E9FF"/>
<path d="M140.306 209.992C138.916 208.348 138.656 205.94 139.271 203.881C139.886 201.816 141.283 200.058 142.892 198.627C144.779 196.946 146.992 195.639 149.377 194.799C150.311 194.467 151.305 194.207 152.294 194.302C153.282 194.396 154.282 194.899 154.743 195.781C155.423 197.082 154.773 198.662 154.063 199.952C152.814 202.224 151.388 204.389 149.803 206.437C148.525 208.081 147.063 209.708 145.117 210.448C143.17 211.193 141.153 211.105 140.117 209.756" fill="#E9E9FF"/>
<path d="M136.88 234.913C136.857 234.913 136.815 234.617 136.762 234.085C136.703 233.481 136.632 232.724 136.543 231.819C136.437 230.866 136.301 229.73 136.034 228.5C135.768 227.269 135.36 225.932 134.827 224.577C134.277 223.228 133.609 222.009 132.828 221.027C132.052 220.045 131.147 219.335 130.295 218.921C129.449 218.5 128.692 218.335 128.165 218.258C127.639 218.205 127.337 218.163 127.337 218.14C127.337 218.116 127.633 218.11 128.177 218.128C128.715 218.163 129.508 218.299 130.402 218.708C131.295 219.104 132.254 219.826 133.07 220.832C133.893 221.832 134.585 223.08 135.147 224.453C135.685 225.831 136.093 227.18 136.348 228.434C136.596 229.689 136.715 230.837 136.792 231.795C136.863 232.76 136.892 233.535 136.904 234.073C136.91 234.617 136.904 234.913 136.88 234.913Z" fill="#A5A4DB"/>
<path d="M136.728 233.174C136.716 233.174 136.71 233.038 136.704 232.789C136.704 232.499 136.704 232.138 136.704 231.689C136.704 230.73 136.704 229.352 136.657 227.642C136.574 224.228 136.278 219.512 135.71 214.329C135.136 209.146 134.379 204.484 133.687 201.141C133.521 200.301 133.361 199.55 133.201 198.887C133.053 198.224 132.929 197.656 132.805 197.189C132.698 196.757 132.616 196.402 132.545 196.118C132.491 195.869 132.468 195.739 132.48 195.739C132.491 195.733 132.539 195.858 132.616 196.1C132.698 196.378 132.805 196.727 132.935 197.153C133.077 197.609 133.219 198.177 133.391 198.84C133.562 199.496 133.746 200.248 133.923 201.088C134.675 204.431 135.473 209.099 136.047 214.288C136.615 219.483 136.876 224.21 136.893 227.63C136.911 229.34 136.876 230.724 136.834 231.683C136.805 232.132 136.787 232.493 136.769 232.783C136.751 233.043 136.74 233.174 136.728 233.174Z" fill="#A5A4DB"/>
<path d="M136.703 224.056C136.679 224.056 136.685 223.648 136.708 222.908C136.75 222.169 136.85 221.104 137.063 219.79C137.282 218.483 137.59 216.933 138.075 215.252C138.537 213.56 139.17 211.738 139.974 209.88C141.548 206.147 143.69 203.094 145.548 201.2C145.986 200.697 146.471 200.337 146.861 199.982C147.063 199.81 147.24 199.644 147.423 199.508C147.607 199.384 147.773 199.266 147.932 199.159C148.548 198.739 148.891 198.52 148.903 198.538C148.956 198.615 147.53 199.449 145.731 201.372C143.939 203.283 141.856 206.318 140.294 210.022C139.495 211.862 138.856 213.673 138.383 215.347C137.886 217.015 137.555 218.548 137.306 219.844C137.069 221.139 136.933 222.198 136.85 222.926C136.774 223.648 136.726 224.056 136.703 224.056Z" fill="#A5A4DB"/>
<path d="M309.746 235.363C309.746 235.446 242.853 235.517 160.352 235.517C77.8267 235.517 10.9453 235.446 10.9453 235.363C10.9453 235.28 77.8267 235.209 160.352 235.209C242.853 235.209 309.746 235.28 309.746 235.363Z" fill="#263238"/>
<path d="M267.916 216.045C259.313 210.412 257.13 199.632 257.224 189.894C257.242 188.267 257.017 186.557 257.769 185.113C258.514 183.669 260.319 182.652 261.81 183.303C263.046 183.841 263.614 185.231 264.324 186.379C265.271 187.9 266.661 189.148 268.271 189.923C269.33 190.438 270.637 190.734 271.655 190.142C273.057 189.337 273.176 187.397 273.128 185.782C273.034 182.77 272.945 179.759 272.85 176.747C272.803 175.132 272.755 173.481 273.229 171.937C273.702 170.393 274.791 168.937 276.335 168.47C277.879 168.002 279.832 168.842 280.199 170.416C280.352 171.073 280.234 171.759 280.293 172.428C280.352 173.096 280.69 173.83 281.34 174.002C281.997 174.173 282.642 173.7 283.121 173.215C284.772 171.54 285.867 169.416 286.884 167.298C287.902 165.186 288.89 163.02 290.381 161.204C291.872 159.388 293.955 157.926 296.298 157.743C298.641 157.553 301.173 158.926 301.818 161.18C302.469 163.446 301.179 165.789 299.759 167.665C297.653 170.452 295.138 172.931 292.328 175.002C291.819 175.374 291.269 175.777 291.085 176.38C290.754 177.463 291.819 178.51 292.902 178.841C294.132 179.214 295.452 179.054 296.735 179.173C298.013 179.291 299.41 179.812 299.925 180.995C300.635 182.628 299.28 184.397 297.931 185.563C295.227 187.9 292.126 189.769 288.795 191.059C287.6 191.521 286.346 191.935 285.393 192.793C284.441 193.651 283.891 195.118 284.506 196.242C285.121 197.366 286.636 197.698 287.89 197.437C289.144 197.177 290.257 196.473 291.452 196C293.683 195.106 296.588 195.189 298.079 197.076C299.055 198.313 299.185 200.07 298.741 201.585C298.297 203.1 297.357 204.419 296.357 205.638C292.854 209.898 288.322 213.371 283.145 215.282C277.968 217.193 273.146 217.79 267.916 216.045Z" fill="#4643D2"/>
<path d="M299.404 159.027C299.41 159.033 299.357 159.086 299.25 159.186C299.132 159.293 298.972 159.441 298.777 159.624C298.357 160.009 297.742 160.577 296.961 161.328C295.405 162.825 293.221 165.073 290.873 168.138C289.689 169.665 288.464 171.392 287.186 173.268C285.908 175.149 284.559 177.161 283.216 179.332C281.873 181.504 280.536 183.829 279.347 186.332C278.743 187.58 278.217 188.888 277.673 190.219C277.134 191.55 276.59 192.899 276.034 194.266C273.839 199.739 271.922 205.028 270.579 209.951C269.23 214.874 268.466 219.423 268.176 223.275C267.881 227.127 268.034 230.257 268.247 232.404C268.36 233.475 268.466 234.31 268.555 234.872C268.596 235.144 268.626 235.351 268.65 235.511C268.667 235.653 268.673 235.73 268.673 235.73C268.667 235.73 268.65 235.659 268.62 235.517C268.591 235.357 268.549 235.15 268.502 234.878C268.389 234.321 268.271 233.487 268.141 232.41C267.892 230.263 267.703 227.121 267.975 223.251C268.236 219.388 268.981 214.814 270.324 209.874C271.655 204.928 273.572 199.626 275.767 194.148C276.324 192.781 276.868 191.432 277.406 190.101C277.951 188.775 278.483 187.456 279.093 186.202C280.294 183.681 281.643 181.356 282.992 179.179C284.341 177.007 285.701 174.99 286.991 173.114C288.281 171.244 289.518 169.517 290.713 167.996C293.097 164.943 295.31 162.707 296.89 161.234C297.677 160.494 298.31 159.938 298.742 159.571C298.949 159.393 299.114 159.257 299.239 159.151C299.339 159.068 299.398 159.021 299.404 159.027Z" fill="#263238"/>
<path d="M279.164 186.19C279.146 186.196 279.081 185.947 278.986 185.503C278.892 185.06 278.773 184.409 278.637 183.61C278.365 182.007 278.069 179.782 277.75 177.327C277.43 174.871 277.105 172.653 276.809 171.061C276.667 170.262 276.537 169.617 276.448 169.174C276.359 168.73 276.318 168.481 276.342 168.475C276.359 168.47 276.442 168.712 276.566 169.15C276.691 169.588 276.85 170.227 277.022 171.02C277.371 172.611 277.732 174.83 278.051 177.291C278.359 179.717 278.637 181.906 278.85 183.586C278.951 184.344 279.04 184.983 279.105 185.492C279.158 185.935 279.181 186.19 279.164 186.19Z" fill="#263238"/>
<path d="M300.115 181.806C300.115 181.829 299.819 181.871 299.281 181.924C298.742 181.983 297.961 182.066 297.003 182.202C295.08 182.451 292.435 182.894 289.542 183.504C286.649 184.119 284.051 184.788 282.187 185.32C281.253 185.58 280.501 185.811 279.987 185.971C279.466 186.131 279.176 186.208 279.17 186.19C279.164 186.172 279.442 186.054 279.951 185.859C280.46 185.669 281.199 185.403 282.128 185.113C283.98 184.521 286.578 183.823 289.483 183.202C292.388 182.593 295.044 182.184 296.979 181.983C297.943 181.877 298.73 181.823 299.275 181.8C299.813 181.788 300.115 181.788 300.115 181.806Z" fill="#263238"/>
<path d="M270.561 209.495C270.549 209.501 270.502 209.413 270.413 209.247C270.313 209.046 270.188 208.803 270.035 208.507C269.709 207.862 269.265 206.91 268.727 205.732C267.656 203.378 266.272 200.076 264.804 196.414C263.331 192.751 261.982 189.444 260.964 187.071C260.461 185.918 260.053 184.965 259.746 184.261C259.615 183.953 259.509 183.699 259.42 183.498C259.349 183.32 259.314 183.226 259.325 183.22C259.337 183.214 259.385 183.303 259.473 183.468C259.574 183.669 259.698 183.912 259.852 184.208C260.177 184.853 260.621 185.799 261.16 186.983C262.236 189.337 263.615 192.639 265.088 196.301C266.562 199.964 267.905 203.271 268.928 205.644C269.431 206.797 269.839 207.744 270.147 208.454C270.277 208.762 270.384 209.016 270.472 209.217C270.537 209.395 270.567 209.489 270.561 209.495Z" fill="#263238"/>
<path d="M298.31 199.928C298.31 199.94 298.215 199.981 298.038 200.046C297.819 200.123 297.552 200.218 297.233 200.336C296.487 200.597 295.482 200.94 294.263 201.366C291.754 202.236 288.305 203.478 284.494 204.851C280.684 206.229 277.217 207.436 274.685 208.259C273.419 208.667 272.395 208.992 271.679 209.199C271.348 209.294 271.076 209.371 270.857 209.43C270.667 209.483 270.567 209.501 270.561 209.495C270.555 209.483 270.65 209.442 270.833 209.377C271.052 209.3 271.318 209.205 271.638 209.087C272.383 208.827 273.389 208.484 274.608 208.058C277.116 207.188 280.566 205.945 284.382 204.573C288.192 203.194 291.659 201.987 294.186 201.171C295.452 200.762 296.476 200.437 297.191 200.23C297.523 200.135 297.795 200.058 298.014 199.993C298.203 199.94 298.304 199.916 298.31 199.928Z" fill="#263238"/>
<path d="M71.7328 233.316L72.6972 227.293L61.9172 225.494L60.3848 234.487L61.0474 234.641C63.9939 235.31 76.1111 237.629 78.2056 237.333C80.5367 236.996 71.7328 233.316 71.7328 233.316Z" fill="#4643D2"/>
<path d="M78.5427 236.824C78.5249 236.925 74.478 236.363 69.4962 235.564C64.5144 234.765 60.4911 234.037 60.5088 233.937C60.5266 233.836 64.5736 234.398 69.5554 235.197C74.5371 235.99 78.5604 236.718 78.5427 236.824Z" fill="#263238"/>
<path d="M71.7268 234.576C71.644 234.517 71.7741 234.209 72.0522 233.931C72.3362 233.653 72.6439 233.529 72.703 233.611C72.7622 233.694 72.5729 233.937 72.3126 234.191C72.0581 234.452 71.8096 234.635 71.7268 234.576Z" fill="#263238"/>
<path d="M72.3539 235.079C72.2651 235.031 72.3716 234.682 72.6438 234.339C72.9159 233.996 73.2295 233.813 73.3005 233.89C73.3715 233.966 73.1881 234.25 72.9337 234.57C72.6793 234.889 72.4426 235.132 72.3539 235.079Z" fill="#263238"/>
<path d="M63.7688 234.416C63.7215 234.44 63.5854 234.256 63.3961 233.955C63.2009 233.653 62.9524 233.233 62.6033 232.854C62.2542 232.475 61.8341 232.251 61.5146 232.156C61.1951 232.061 60.9703 232.079 60.9585 232.02C60.9466 231.978 61.1715 231.86 61.5619 231.896C61.9465 231.931 62.4672 232.162 62.8695 232.594C63.2659 233.02 63.4908 233.493 63.6268 233.83C63.7629 234.174 63.8162 234.392 63.7688 234.416Z" fill="#263238"/>
<path d="M71.9394 233.446C71.9808 233.54 71.7619 233.718 71.4364 233.783C71.111 233.848 70.8389 233.765 70.8389 233.665C70.8389 233.558 71.0755 233.481 71.3595 233.422C71.6494 233.363 71.9039 233.351 71.9394 233.446Z" fill="#263238"/>
<path d="M71.8636 232.836C71.8576 232.937 71.5559 232.978 71.1891 232.925C70.8222 232.872 70.5441 232.748 70.5678 232.647C70.5915 232.547 70.8932 232.505 71.2423 232.558C71.5973 232.612 71.8695 232.736 71.8636 232.836Z" fill="#263238"/>
<path d="M109.889 232.014L109.664 225.92L98.7363 226.251L98.9848 235.369L99.6652 235.392C102.683 235.475 115.019 235.398 117.019 234.7C119.243 233.919 109.889 232.014 109.889 232.014Z" fill="#4643D2"/>
<path d="M117.25 234.132C117.256 234.233 113.173 234.469 108.132 234.653C103.091 234.836 99.003 234.907 98.9971 234.801C98.9912 234.7 103.074 234.463 108.115 234.28C113.161 234.097 117.25 234.026 117.25 234.132Z" fill="#263238"/>
<path d="M110.125 233.251C110.037 233.209 110.102 232.884 110.321 232.558C110.545 232.233 110.823 232.049 110.894 232.12C110.971 232.191 110.829 232.464 110.628 232.765C110.427 233.067 110.22 233.298 110.125 233.251Z" fill="#263238"/>
<path d="M110.841 233.623C110.746 233.594 110.782 233.227 110.983 232.842C111.184 232.452 111.456 232.215 111.539 232.274C111.622 232.333 111.498 232.653 111.314 233.014C111.119 233.375 110.936 233.659 110.841 233.623Z" fill="#263238"/>
<path d="M102.293 234.641C102.252 234.67 102.086 234.517 101.837 234.256C101.589 234.002 101.264 233.635 100.843 233.333C100.423 233.032 99.9737 232.89 99.6424 232.86C99.311 232.83 99.0921 232.89 99.0744 232.836C99.0566 232.795 99.2519 232.635 99.6424 232.6C100.027 232.558 100.583 232.688 101.062 233.032C101.536 233.375 101.849 233.795 102.044 234.097C102.24 234.404 102.328 234.611 102.293 234.641Z" fill="#263238"/>
<path d="M110.12 232.103C110.179 232.186 109.995 232.405 109.688 232.529C109.38 232.653 109.096 232.623 109.078 232.529C109.06 232.428 109.273 232.298 109.546 232.186C109.818 232.079 110.06 232.014 110.12 232.103Z" fill="#263238"/>
<path d="M109.925 231.523C109.937 231.624 109.653 231.724 109.28 231.742C108.913 231.76 108.617 231.695 108.617 231.588C108.623 231.487 108.907 231.387 109.262 231.369C109.617 231.351 109.913 231.416 109.925 231.523Z" fill="#263238"/>
<path d="M124.704 80.3001L124.088 78.318C124.088 78.318 123.911 77.0637 123.124 74.9633C122.923 74.419 122.621 73.9102 122.248 73.4605C121.799 72.9162 121.172 72.2121 120.71 71.934C120.142 71.5908 120.266 70.7389 120.864 70.6915C121.456 70.6442 123.047 71.5553 124.266 73.3244C125.485 75.0935 125.716 71.7624 125.816 70.5495C125.923 69.3366 126.42 65.6032 126.816 65.3488C127.396 64.9761 127.917 65.5441 127.786 66.757C127.65 67.9817 127.508 71.6204 128.153 71.6618C128.786 71.7033 129.236 65.5204 129.236 65.5204C129.236 65.5204 129.118 64.1773 129.857 64.201C131.194 64.2424 130.236 70.7684 130.129 71.3838C130.052 71.8157 130.751 71.8808 130.804 71.4193C130.863 70.94 131.111 65.2364 132.472 65.266C133.52 65.2896 131.733 70.6442 132.336 71.8689C132.94 73.0996 133.277 67.6622 134.271 67.7214C134.644 67.745 134.916 67.816 134.277 70.8986C133.62 74.0581 130.449 82.2822 130.449 82.2822L124.639 80.2054" fill="#FFBE9D"/>
<path d="M84.7374 78.6731L94.5708 79.4008C94.701 78.2648 94.8903 73.8451 94.8903 73.8451C94.8903 73.8451 98.9964 73.4606 99.2982 69.4018C99.5999 65.3371 99.4698 55.9592 99.4698 55.9592C94.8844 53.6458 89.4115 53.9949 85.1575 56.8704L84.5244 57.2964L84.7374 78.6731Z" fill="#FFBE9D"/>
<path d="M98.103 62.8817C97.8723 62.6451 97.8782 62.2723 98.1149 62.0475C98.3515 61.8167 98.7243 61.8226 98.9491 62.0593C99.1798 62.296 99.1739 62.6687 98.9373 62.8936C98.7065 63.1184 98.3279 63.1184 98.103 62.8817Z" fill="#263238"/>
<path d="M99.1444 62.0119C99.0734 62.077 98.6948 61.7456 98.1386 61.7101C97.5765 61.6628 97.1565 61.935 97.0973 61.864C97.0677 61.8285 97.1387 61.7042 97.328 61.5859C97.5115 61.4616 97.8191 61.3492 98.1682 61.3788C98.5173 61.4025 98.8013 61.5563 98.9669 61.7101C99.1267 61.8521 99.1799 61.9823 99.1444 62.0119Z" fill="#263238"/>
<path d="M92.6664 62.1065C92.9326 62.2958 92.9977 62.6627 92.8084 62.9289C92.619 63.1952 92.2522 63.2603 91.9859 63.0709C91.7197 62.8816 91.6546 62.5148 91.8439 62.2485C92.0274 61.9823 92.3942 61.9172 92.6664 62.1065Z" fill="#263238"/>
<path d="M93.0321 62.1302C92.9671 62.1953 92.5825 61.864 92.0263 61.8285C91.4642 61.7811 91.0442 62.0533 90.985 61.9823C90.9554 61.9468 91.0264 61.8226 91.2157 61.6983C91.3991 61.5741 91.7068 61.4616 92.0559 61.4912C92.405 61.5149 92.689 61.6746 92.8546 61.8226C93.0144 61.9705 93.0617 62.1006 93.0321 62.1302Z" fill="#263238"/>
<path d="M94.9915 66.893C94.9915 66.8516 95.3406 66.8043 95.9086 66.7629C96.0565 66.757 96.1748 66.7333 96.1926 66.6505C96.2281 66.5617 96.1748 66.402 96.1157 66.2186C95.9973 65.8399 95.8731 65.4553 95.7429 65.053C95.2282 63.3963 94.885 62.0296 94.9619 62.0059C95.0448 61.9823 95.524 63.3076 96.0328 64.9642C96.1512 65.3725 96.2695 65.7571 96.3819 66.1357C96.4233 66.3073 96.5121 66.5144 96.4233 66.7451C96.376 66.8635 96.2577 66.9404 96.1571 66.9581C96.0565 66.9818 95.9737 66.9759 95.9086 66.9759C95.3465 66.964 94.9915 66.9345 94.9915 66.893Z" fill="#263238"/>
<path d="M93.1332 67.3959C92.5711 67.0113 94.6893 68.3484 95.8312 68.3662C95.8312 68.3662 95.1153 69.372 93.9674 68.8691C92.7782 68.3484 93.1332 67.3959 93.1332 67.3959Z" fill="white"/>
<path d="M94.9019 73.7801C94.9019 73.7801 92.3164 73.8333 89.6953 71.9459C89.6953 71.9459 90.7662 74.9516 94.8487 74.8332L94.9019 73.7801Z" fill="#EB996E"/>
<path d="M84.5898 61.4321L85.0868 64.349L86.8973 64.3135L86.779 58.243C86.779 58.243 93.9617 58.7933 94.7842 55.9237C94.7842 55.9237 96.8964 59.1009 99.5352 59.0891C99.5352 59.0891 101.837 58.8524 99.6476 55.6575C96.2751 50.7349 84.2822 54.6872 84.2822 54.6872C84.2822 54.6872 83.8739 55.6811 83.8443 57.4798C83.7911 60.5978 84.5898 61.4321 84.5898 61.4321Z" fill="#263238"/>
<path d="M83.6262 58.4738L99.6306 55.2966C99.6306 55.2966 98.4887 48.9007 89.8564 50.7585C81.4548 52.569 83.6262 58.4738 83.6262 58.4738Z" fill="#4643D2"/>
<path d="M83.625 58.4737C83.8498 58.4323 103.185 58.8879 104.564 56.2077C105.221 54.9297 99.5052 54.8942 99.5052 54.8942L99.6354 55.2965L83.625 58.4737Z" fill="#4643D2"/>
<path opacity="0.2" d="M83.625 58.4737C83.8498 58.4323 103.185 58.8879 104.564 56.2077C105.221 54.9297 99.5052 54.8942 99.5052 54.8942L99.6354 55.2965L83.625 58.4737Z" fill="black"/>
<path d="M85.3058 60.8936C85.2171 60.8581 82.2884 60.4794 82.5665 63.9406C82.8445 67.4018 86.2466 65.9759 86.2407 65.8753C86.2407 65.7748 85.3058 60.8936 85.3058 60.8936Z" fill="#FFBE9D"/>
<path d="M85.0865 64.7453C85.0687 64.7335 85.0273 64.7927 84.9326 64.8459C84.838 64.8992 84.6664 64.9465 84.483 64.8932C84.1043 64.7867 83.7552 64.2306 83.6842 63.6093C83.6487 63.2958 83.6901 62.9881 83.7848 62.7337C83.8676 62.4733 84.0215 62.284 84.199 62.2367C84.3765 62.1775 84.5185 62.2781 84.5658 62.3728C84.6191 62.4674 84.6013 62.5384 84.625 62.5384C84.6368 62.5443 84.696 62.4733 84.6546 62.3313C84.6368 62.2663 84.5895 62.1834 84.5007 62.1243C84.412 62.0651 84.2877 62.0414 84.1576 62.0651C83.8913 62.1065 83.6724 62.3668 83.5718 62.6508C83.4535 62.9348 83.4002 63.278 83.4417 63.633C83.5186 64.3252 83.9268 64.9524 84.4416 65.0589C84.6901 65.1003 84.8853 65.0116 84.9859 64.9228C85.0865 64.8282 85.0983 64.7512 85.0865 64.7453Z" fill="#EB996E"/>
<path d="M94.7353 53.5481L92.7773 53.5857L92.8149 55.5437L94.773 55.5061L94.7353 53.5481Z" fill="#263238"/>
<path d="M94.7115 52.47L93.7295 52.489L93.7485 53.471L94.7305 53.4519L94.7115 52.47Z" fill="#263238"/>
<path d="M123.983 77.7562C123.983 77.7562 120.966 96.997 118.83 97.0976C116.398 97.21 108.919 86.6075 108.919 86.6075C104.133 79.2235 97.8199 78.0284 95.5183 77.8449L95.5301 76.9338L84.2176 76.0049C84.2176 76.0049 84.2353 76.9811 84.2116 77.8272L79.2062 77.8331C79.2062 77.8331 70.2307 77.4249 68.8876 89.477L75.3367 94.5771L77.9815 104.416C78.7861 107.422 77.5614 111.256 76.2065 117.989C75.6858 117.865 75.3959 117.8 75.3959 117.8L75.0527 124.586C75.0054 124.906 74.9581 125.225 74.9166 125.557H75.0054L72.2719 179.747L58.2969 232.233L74.0292 232.819L88.5367 181.611C88.5367 181.611 89.791 140.668 91.069 140.644C93.2167 140.602 94.5953 231.724 95.4118 231.517C96.2342 231.31 112.392 231.476 112.392 231.476C112.392 231.476 107.044 125.32 107.079 125.314L105.695 105.221L105.168 99.411C108.239 103.73 114.037 110.475 120.244 110.357C130.343 110.161 131.763 78.8508 131.763 78.8508L123.983 77.7562Z" fill="#455A64"/>
<path d="M90.4883 140.241C90.441 140.206 90.9735 139.632 91.429 138.496C91.9024 137.366 92.1745 135.68 92.1923 133.798C92.1864 131.958 92.1864 130.29 92.1864 128.97C92.1923 127.734 92.2219 126.964 92.2633 126.964C92.3047 126.964 92.3579 127.728 92.4053 128.964C92.4408 130.201 92.5236 131.905 92.5059 133.804C92.4881 134.751 92.4171 135.662 92.2692 136.472C92.1213 137.289 91.8965 138.005 91.6361 138.579C91.3876 139.159 91.08 139.573 90.8788 139.851C90.6362 140.117 90.506 140.253 90.4883 140.241Z" fill="#263238"/>
<path d="M81.2115 131.639C81.2352 131.639 81.2589 131.834 81.2944 132.195C81.324 132.556 81.3595 133.076 81.3772 133.721C81.389 134.993 81.3417 136.869 80.3891 138.662C79.9158 139.543 79.2591 140.289 78.5077 140.75C77.7622 141.218 76.9753 141.419 76.3126 141.443C75.6499 141.466 75.1234 141.324 74.7861 141.182C74.4489 141.034 74.295 140.898 74.3009 140.886C74.3187 140.821 75.0228 141.324 76.2948 141.224C76.9161 141.17 77.6557 140.963 78.3479 140.514C79.0402 140.064 79.6555 139.36 80.1111 138.514C81.0222 136.804 81.1051 134.982 81.1524 133.715C81.1761 132.443 81.1583 131.645 81.2115 131.639Z" fill="#263238"/>
<path d="M108.221 141.064C108.233 141.076 108.126 141.235 107.831 141.431C107.541 141.62 107.05 141.815 106.416 141.798C105.783 141.798 105.044 141.537 104.387 141.04C103.724 140.549 103.133 139.863 102.606 139.088C101.553 137.526 101.097 135.84 100.973 134.627C100.908 134.017 100.914 133.52 100.932 133.183C100.961 132.84 100.991 132.656 101.009 132.656C101.062 132.656 101.009 133.408 101.186 134.597C101.37 135.774 101.837 137.401 102.861 138.916C103.369 139.668 103.937 140.336 104.553 140.815C105.168 141.295 105.837 141.555 106.422 141.579C107.008 141.62 107.476 141.472 107.765 141.324C108.067 141.176 108.203 141.046 108.221 141.064Z" fill="#263238"/>
<path d="M74.7443 229.34C74.7443 229.422 71.2535 229.369 66.958 229.209C62.6567 229.056 59.1777 228.86 59.1836 228.772C59.1895 228.689 62.6744 228.742 66.9699 228.902C71.2653 229.056 74.7502 229.257 74.7443 229.34Z" fill="#263238"/>
<path d="M111.829 226.973C111.829 226.997 111.598 227.026 111.172 227.062C110.681 227.097 110.084 227.139 109.38 227.192C107.865 227.287 105.77 227.405 103.457 227.512C101.144 227.618 99.0492 227.695 97.5345 227.736C96.8304 227.748 96.2269 227.76 95.7358 227.772C95.3098 227.772 95.0791 227.766 95.0791 227.742C95.0791 227.719 95.3098 227.689 95.7358 227.654C96.2269 227.618 96.8245 227.577 97.5286 227.523C99.0432 227.423 101.132 227.31 103.445 227.204C105.759 227.097 107.847 227.02 109.368 226.979C110.072 226.967 110.675 226.955 111.166 226.944C111.592 226.938 111.829 226.949 111.829 226.973Z" fill="#263238"/>
<path d="M82.8088 141.49C82.8147 141.49 82.8147 141.567 82.8206 141.721C82.8206 141.886 82.8206 142.117 82.8206 142.401C82.8088 143.016 82.7969 143.892 82.7733 145.016C82.7259 147.288 82.6194 150.572 82.4538 154.625C82.2881 158.678 82.0633 163.511 81.7438 168.866C81.584 171.546 81.4065 174.357 81.164 177.268C81.0397 178.723 80.9214 180.208 80.667 181.705C80.4185 183.196 80.0931 184.693 79.7736 186.213C77.0756 198.313 74.0404 209.123 71.6737 216.891C70.4963 220.778 69.4254 223.885 68.6799 226.026C68.2894 227.08 67.9877 227.902 67.7747 228.482C67.6741 228.748 67.5912 228.961 67.5321 229.115C67.4729 229.257 67.4433 229.328 67.4374 229.328C67.4315 229.328 67.4552 229.251 67.5025 229.103C67.5557 228.943 67.6267 228.73 67.7155 228.458C67.9167 227.878 68.2007 227.05 68.5675 225.985C69.2775 223.831 70.3129 220.713 71.4666 216.826C73.78 209.052 76.7738 198.236 79.4718 186.148C79.7913 184.634 80.1167 183.143 80.3652 181.658C80.6196 180.179 80.732 178.699 80.8622 177.244C81.1048 174.339 81.2882 171.528 81.4539 168.848C81.7852 163.494 82.0337 158.666 82.2289 154.613C82.4064 150.572 82.5484 147.294 82.649 145.01C82.6964 143.892 82.7259 143.01 82.7555 142.401C82.7674 142.117 82.7792 141.892 82.791 141.721C82.7969 141.567 82.8029 141.49 82.8088 141.49Z" fill="#263238"/>
<path d="M104.517 227.369C104.511 227.369 104.505 227.298 104.487 227.156C104.476 227.003 104.458 226.79 104.44 226.529C104.405 225.961 104.345 225.151 104.274 224.115C104.15 221.997 103.973 218.974 103.748 215.234C103.328 207.738 102.801 197.378 102.316 185.93C101.831 174.481 101.47 164.109 101.245 156.601C101.144 152.862 101.056 149.826 101.002 147.714C100.979 146.679 100.967 145.868 100.955 145.294C100.955 145.028 100.949 144.821 100.949 144.667C100.949 144.525 100.955 144.454 100.961 144.454C100.967 144.454 100.973 144.525 100.985 144.667C100.997 144.827 101.002 145.034 101.02 145.294C101.044 145.862 101.079 146.673 101.127 147.708C101.21 149.826 101.328 152.856 101.47 156.595C101.766 164.115 102.18 174.475 102.635 185.918C103.121 197.366 103.612 207.726 103.979 215.229C104.156 218.968 104.304 221.997 104.405 224.109C104.452 225.145 104.487 225.955 104.511 226.523C104.517 226.79 104.523 226.997 104.529 227.151C104.523 227.293 104.523 227.369 104.517 227.369Z" fill="#263238"/>
<path d="M91.5299 76.6083C91.5654 76.6083 91.5713 77.2059 91.5417 78.1999C91.5062 79.188 91.4766 80.5843 91.1571 82.1581L91.1157 82.3534L90.9382 82.2587C90.5596 82.0634 90.175 81.8504 89.7845 81.6256C88.1397 80.6671 86.7433 79.6672 85.7139 78.9809C84.6903 78.2886 84.0395 77.8745 84.0631 77.839C84.0809 77.8035 84.7731 78.1466 85.8322 78.7975C86.8972 79.4424 88.3112 80.4127 89.9383 81.3594C90.3229 81.5842 90.7075 81.7913 91.0743 81.9924L90.8554 82.093C91.1808 80.5665 91.2518 79.1761 91.3406 78.1881C91.4234 77.2 91.4885 76.6024 91.5299 76.6083Z" fill="#263238"/>
<path d="M95.5525 77.9218C95.5939 77.9337 95.4401 78.4898 95.2271 79.3951C95.1206 79.8447 95.0022 80.3891 94.807 80.9866C94.7064 81.2825 94.5881 81.5901 94.4461 81.9037C94.3987 81.9925 94.3514 82.0871 94.2331 82.164C94.1207 82.2528 93.8958 82.2232 93.8071 82.1167C93.6414 81.9096 93.6296 81.7617 93.5408 81.596C92.9906 80.2826 92.5054 79.0874 92.1741 78.2177C91.8368 77.3479 91.6534 76.7977 91.6889 76.7858C91.7303 76.7681 91.9848 77.2888 92.3753 78.1348C92.7598 78.9809 93.2746 80.1642 93.8248 81.4777C93.8958 81.6316 93.9609 81.8386 94.0201 81.8978C94.0497 81.9215 94.0378 81.9155 94.0674 81.9037C94.097 81.886 94.1384 81.8327 94.168 81.7735C94.31 81.4777 94.4342 81.1819 94.5348 80.8979C94.736 80.324 94.878 79.7915 95.0141 79.3418C95.2862 78.4425 95.5111 77.91 95.5525 77.9218Z" fill="#263238"/>
<path d="M93.4231 118.35C93.4113 118.35 93.3936 118.202 93.3758 117.93C93.3581 117.622 93.3285 117.22 93.2989 116.717C93.2397 115.628 93.1628 114.108 93.0622 112.25C92.8906 108.446 92.6599 103.245 92.4055 97.4998C92.1866 91.7548 91.9854 86.5481 91.8375 82.7438C91.7783 80.88 91.731 79.3595 91.7014 78.2708C91.6896 77.7679 91.6837 77.3596 91.6777 77.052C91.6777 76.7739 91.6777 76.626 91.6896 76.626C91.7014 76.626 91.7192 76.7739 91.7369 77.0461C91.7547 77.3537 91.7842 77.7561 91.8138 78.259C91.873 79.3476 91.9499 80.8682 92.0505 82.726C92.2221 86.5304 92.4528 91.7311 92.7072 97.482C92.9261 103.227 93.1273 108.428 93.2752 112.238C93.3344 114.102 93.3817 115.622 93.4113 116.711C93.4231 117.214 93.4291 117.616 93.435 117.93C93.4409 118.202 93.435 118.35 93.4231 118.35Z" fill="#263238"/>
<path d="M100.63 88.8671L95.1934 88.972L95.2151 90.096L100.651 89.991L100.63 88.8671Z" fill="white"/>
<path d="M105.802 107.227C105.719 107.233 105.37 103.121 105.032 98.0442C104.695 92.9677 104.488 88.8438 104.571 88.8379C104.654 88.832 105.003 92.944 105.34 98.0205C105.683 103.103 105.89 107.221 105.802 107.227Z" fill="#263238"/>
<path d="M131.604 82.7617C131.586 82.8445 129.758 82.4954 127.527 81.9866C125.291 81.4777 123.498 80.9926 123.516 80.9097C123.534 80.8269 125.362 81.176 127.598 81.6848C129.829 82.1996 131.622 82.6788 131.604 82.7617Z" fill="#263238"/>
<path d="M125.16 79.1288C125.467 79.1229 125.716 79.3654 125.722 79.6731C125.728 79.9808 125.485 80.2293 125.177 80.2352C124.87 80.2411 124.621 79.9985 124.615 79.6908C124.615 79.3832 124.858 79.1347 125.16 79.1288Z" fill="#263238"/>
<path d="M100.581 86.355L98.623 86.3926L98.6606 88.3506L100.619 88.313L100.581 86.355Z" fill="#4643D2"/>
<path d="M100.556 85.2776L99.5742 85.2966L99.5933 86.2786L100.575 86.2595L100.556 85.2776Z" fill="#4643D2"/>
<path d="M129.894 96.3933L129.095 127.982L79.5137 127.734L79.6793 95.7129L129.894 96.3933Z" fill="#4643D2"/>
<path d="M100.446 127.799C100.363 127.799 100.47 120.746 100.689 112.049C100.908 103.351 101.156 96.3047 101.245 96.3047C101.328 96.3047 101.221 103.357 101.002 112.055C100.783 120.752 100.535 127.799 100.446 127.799Z" fill="#263238"/>
<path d="M79.5131 127.734C79.5071 127.728 79.5722 127.609 79.7083 127.396C79.8681 127.16 80.0692 126.852 80.3236 126.467C80.8916 125.639 81.6785 124.497 82.637 123.101C84.6309 120.243 87.3585 116.35 90.3641 112.049C93.3875 107.735 96.1092 103.819 98.0498 100.973C99.0201 99.5469 99.7952 98.3872 100.328 97.5826C100.576 97.198 100.777 96.8903 100.937 96.6537C101.079 96.4407 101.156 96.3342 101.168 96.3401C101.18 96.346 101.115 96.4643 100.99 96.6832C100.848 96.9317 100.659 97.2512 100.428 97.6417C99.9254 98.4641 99.1799 99.6475 98.2273 101.091C96.3281 103.973 93.636 107.907 90.6126 112.226C87.5892 116.539 84.8262 120.421 82.8145 123.225C81.8205 124.604 81.01 125.722 80.4183 126.538C80.1461 126.905 79.9272 127.201 79.7556 127.432C79.6077 127.639 79.5249 127.74 79.5131 127.734Z" fill="#263238"/>
<path d="M99.9544 128.053C99.8834 128.1 95.3157 120.977 89.76 112.155C84.1984 103.328 79.755 96.133 79.826 96.0915C79.897 96.0442 84.4647 103.162 90.0204 111.995C95.582 120.811 100.031 128.006 99.9544 128.053Z" fill="#263238"/>
<path d="M105.584 124.261L113.539 124.462L113.58 122.83L105.625 122.629L105.584 124.261Z" fill="#263238"/>
<path d="M106.02 121.308C106.02 121.225 107.765 121.154 109.913 121.16C112.066 121.166 113.806 121.237 113.806 121.32C113.806 121.403 112.06 121.474 109.913 121.468C107.765 121.468 106.02 121.397 106.02 121.308Z" fill="#263238"/>
<path d="M119.87 96.1389L119.563 108.333L117.853 106.954L115.616 108.232L115.924 96.0383L119.87 96.1389Z" fill="#263238"/>
<path d="M78.679 92.9203C78.679 92.9203 76.271 109.688 77.4129 110.646C83.7081 115.942 92.4588 118.717 95.5887 119.592C96.0443 119.486 96.5827 119.338 97.1921 119.143C97.7246 118.977 98.2216 118.711 98.6653 118.374C99.2038 117.965 99.896 117.391 100.18 116.965C100.529 116.433 101.346 116.604 101.375 117.178C101.405 117.758 100.476 119.249 98.7363 120.338C98.7363 120.338 102.748 126.793 104.026 127.373C105.304 127.953 108.96 129.603 108.345 129.917C107.73 130.236 103.268 128.935 103.268 128.935L94.2397 126.521C94.2397 126.521 64.3727 121.841 66.3606 108.138C67.5795 99.7421 68.9107 92.1689 69.3959 90.2578L78.679 92.9203Z" fill="#FFBE9D"/>
<path d="M68.8869 89.4828L66.2066 107.777C65.5854 113.41 69.3602 117.883 74.4366 120.403C82.1637 124.231 93.636 126.965 93.5414 126.947C93.3876 126.917 94.3165 118.782 94.3165 118.782C94.3165 118.782 78.2351 111.812 77.7263 108.824C77.2234 105.83 79.7734 93.3168 79.7734 93.3168L68.8869 89.4828Z" fill="#455A64"/>
<path d="M93.5477 126.941C93.5418 126.941 93.5418 126.894 93.5477 126.793C93.5536 126.681 93.5654 126.539 93.5713 126.373C93.6009 125.976 93.6423 125.432 93.6956 124.746C93.8198 123.308 93.9973 121.273 94.2163 118.764L94.2754 118.871C91.9679 117.752 89.2285 116.427 86.1874 114.954C85.4242 114.581 84.6432 114.202 83.8503 113.812C83.0634 113.398 82.2765 112.936 81.4955 112.433C80.7205 111.93 79.9513 111.374 79.2117 110.759C78.8449 110.451 78.484 110.126 78.1349 109.783C77.9751 109.623 77.7622 109.416 77.6675 109.167C77.6083 109.049 77.561 108.925 77.5373 108.801C77.5018 108.676 77.4722 108.552 77.4545 108.428C77.1942 106.428 77.7266 104.541 78.0047 102.742C78.3183 100.931 78.6201 99.186 78.9041 97.5235C79.4839 94.2043 80.0105 91.2164 80.4483 88.69C80.6731 87.4356 80.8684 86.2997 80.8565 85.2938C80.8565 84.288 80.6376 83.436 80.3359 82.797C80.0341 82.158 79.6614 81.738 79.3892 81.4895C79.1111 81.241 78.9396 81.1404 78.9514 81.1285C78.9514 81.1285 79.1348 81.2055 79.4306 81.4421C79.7205 81.6788 80.117 82.0989 80.4424 82.7438C80.7678 83.3887 81.0104 84.2643 81.0281 85.2879C81.0577 86.3115 80.8743 87.4712 80.6613 88.7255C80.2412 91.2519 79.7383 94.2457 79.1821 97.5708C78.8981 99.2334 78.6023 100.985 78.2946 102.795C78.2177 103.251 78.1349 103.706 78.058 104.168C77.9633 104.623 77.8864 105.085 77.8213 105.546C77.703 106.475 77.6083 107.44 77.7503 108.375C77.7622 108.493 77.7917 108.605 77.8213 108.718C77.845 108.83 77.8864 108.937 77.9337 109.037C78.0166 109.244 78.1645 109.386 78.342 109.564C78.6851 109.901 79.0342 110.221 79.3951 110.522C80.117 111.126 80.8743 111.676 81.6435 112.179C82.4126 112.676 83.1936 113.132 83.9687 113.552C84.7615 113.942 85.5425 114.327 86.2998 114.699C89.3291 116.196 92.0567 117.539 94.3523 118.675L94.4233 118.711L94.4174 118.788C94.1571 121.291 93.95 123.326 93.8021 124.758C93.7252 125.444 93.666 125.982 93.6187 126.379C93.595 126.55 93.5773 126.686 93.5654 126.799C93.5595 126.894 93.5536 126.941 93.5477 126.941Z" fill="#263238"/>
<path d="M92.0567 117.658C92.0981 117.664 92.0626 118.143 91.9621 118.906C91.8615 119.669 91.7017 120.723 91.4887 121.882C91.2698 123.042 91.0332 124.083 90.832 124.829C90.6308 125.574 90.477 126.03 90.4356 126.018C90.3528 125.994 90.761 124.136 91.187 121.829C91.6071 119.516 91.968 117.64 92.0567 117.658Z" fill="#263238"/>
<path d="M93.5473 126.941C93.5473 126.953 93.4467 126.935 93.2633 126.894C93.0444 126.84 92.7841 126.781 92.4705 126.704C91.7368 126.515 90.7547 126.255 89.5595 125.947C87.11 125.284 83.708 124.42 80.0574 123.077C78.2351 122.403 76.537 121.651 75.0579 120.853C73.5728 120.054 72.3067 119.214 71.2949 118.433C70.2832 117.658 69.5377 116.942 69.0407 116.433C68.7922 116.179 68.6088 115.972 68.4904 115.83C68.3662 115.688 68.307 115.611 68.3189 115.599C68.3366 115.581 68.6088 115.865 69.1294 116.35C69.6501 116.829 70.4133 117.516 71.431 118.261C72.4487 119.013 73.7148 119.823 75.194 120.604C76.6731 121.385 78.3594 122.125 80.1698 122.793C83.7967 124.125 87.1869 125.024 89.6246 125.74C90.8079 126.089 91.7782 126.379 92.506 126.592C92.8136 126.692 93.074 126.769 93.287 126.84C93.4586 126.894 93.5473 126.929 93.5473 126.941Z" fill="#263238"/>
<path d="M93.7425 119.616C93.7485 119.9 93.5177 120.137 93.2337 120.143C92.9497 120.148 92.7131 119.918 92.7071 119.634C92.7012 119.35 92.932 119.113 93.216 119.107C93.5059 119.101 93.7425 119.326 93.7425 119.616Z" fill="#263238"/>
<path d="M233.168 33.6714H167.872V235.363H233.168V33.6714Z" fill="#A5A4DB"/>
<path d="M210.72 35.2157V226.346L241.954 235.363L242.06 35.2157H210.72Z" fill="#455A64"/>
<path d="M214.566 127.876C214.625 129.373 214.052 130.609 213.282 130.639C212.513 130.668 211.839 129.485 211.78 127.988C211.72 126.491 212.294 125.255 213.063 125.225C213.833 125.19 214.507 126.379 214.566 127.876Z" fill="white"/>
<path d="M213.129 126.757L219.282 127.58C219.614 127.621 219.862 127.899 219.874 128.231C219.892 128.663 219.507 129.006 219.075 128.929L213.176 127.929L213.129 126.757Z" fill="white"/>
<path d="M160.252 26.536V33.139V35.2157V235.363H170.5V35.2157H230.677V235.363H241.954V35.2157V33.139V26.536H160.252Z" fill="#263238"/>
<path d="M170.5 35.2157H165.376V235.363H170.5V35.2157Z" fill="#263238"/>
<path opacity="0.5" d="M170.5 35.2157H165.376V235.363H170.5V35.2157Z" fill="black"/>
<path d="M242.055 26.536H236.932V235.363H242.055V26.536Z" fill="#263238"/>
<path opacity="0.5" d="M242.055 26.536H236.932V235.363H242.055V26.536Z" fill="black"/>
<path d="M208.13 14.3536H191.291V18.1107H208.13V14.3536Z" fill="#455A64"/>
<path d="M201.65 66.6151C201.834 70.4491 204.626 73.5612 208.105 74.4132C209.934 74.8629 212.04 74.6499 213.489 75.8805C215.974 77.9868 214.519 82.3592 216.199 85.1814C217.229 86.9209 219.276 87.7729 220.436 89.4237C222.364 92.169 221.069 96.3106 218.442 98.3518C215.815 100.393 212.312 100.784 209.017 100.701C201.769 100.511 194.349 98.2098 189.107 93.0742C186.646 90.6602 178.67 81.4895 182.291 68.2599" fill="#263238"/>
<path d="M175.476 86.0689C175.476 86.0689 162.796 97.0975 162.465 95.7544C160.684 88.4533 161.187 79.1405 161.471 75.5728C161.672 75.2652 161.897 74.9279 162.169 74.5552C162.483 74.1232 162.867 73.7505 163.305 73.4487C163.832 73.076 164.56 72.6145 165.027 72.4843C165.613 72.3187 165.707 71.5377 165.198 71.3543C164.69 71.1649 163.069 71.585 161.566 72.8453C160.063 74.1055 160.672 71.1176 160.879 70.023C161.081 68.9285 161.554 65.5264 161.264 65.2069C160.844 64.7395 160.246 65.1122 160.069 66.2068C159.891 67.3132 159.128 70.5555 158.554 70.4313C157.992 70.3129 159.098 64.7632 159.098 64.7632C159.098 64.7632 159.53 63.6094 158.874 63.4497C157.69 63.1598 156.939 69.1296 156.886 69.7035C156.844 70.0999 156.217 69.9934 156.282 69.5675C156.347 69.1296 157.519 64.0591 156.318 63.7514C155.395 63.5148 155.655 68.6622 154.827 69.5911C153.998 70.5259 155.028 65.6625 154.134 65.4732C153.803 65.4022 153.543 65.3962 153.359 68.2658C153.259 69.8041 153.43 72.7447 153.614 75.1882C152.827 83.0632 151.283 107.168 162.175 106.339C175.026 105.357 177.984 95.2278 177.984 95.2278L175.476 86.0689Z" fill="#FFCEBB"/>
<path d="M185.604 82.4833C185.794 81.4715 185.462 77.1938 185.462 77.1938C185.462 77.1938 181.676 76.7146 181.51 72.851C181.345 68.9816 181.729 60.0771 181.729 60.0771L188.705 56.7283L196.207 62.7751L194.905 82.4241L185.604 82.4833Z" fill="#FFCEBB"/>
<path d="M182.374 66.5853C182.368 66.8574 182.581 67.0822 182.847 67.0882C183.114 67.0941 183.333 66.8752 183.339 66.603C183.344 66.3308 183.131 66.106 182.865 66.1001C182.599 66.0942 182.38 66.3131 182.374 66.5853Z" fill="#263238"/>
<path d="M181.919 66.0411C181.978 66.1062 182.339 65.8044 182.86 65.7807C183.38 65.7512 183.765 66.0233 183.818 65.9523C183.848 65.9227 183.783 65.8044 183.617 65.6802C183.451 65.5559 183.173 65.4435 182.848 65.4553C182.522 65.4731 182.256 65.6092 182.102 65.7452C181.943 65.8872 181.889 66.0115 181.919 66.0411Z" fill="#263238"/>
<path d="M187.96 66.686C187.954 66.9581 188.167 67.183 188.433 67.1889C188.7 67.1948 188.919 66.9759 188.924 66.7037C188.93 66.4316 188.717 66.2067 188.451 66.2008C188.185 66.1949 187.966 66.4079 187.96 66.686Z" fill="#263238"/>
<path d="M187.669 66.1417C187.728 66.2067 188.089 65.905 188.61 65.8813C189.13 65.8517 189.515 66.1239 189.568 66.0529C189.592 66.0233 189.533 65.905 189.367 65.7807C189.201 65.6565 188.923 65.5441 188.598 65.5559C188.272 65.5737 188.006 65.7097 187.852 65.8458C187.693 65.9878 187.639 66.1121 187.669 66.1417Z" fill="#263238"/>
<path d="M185.717 70.6028C185.717 70.5732 185.398 70.5258 184.871 70.4726C184.741 70.4608 184.611 70.443 184.587 70.3424C184.551 70.2418 184.605 70.088 184.67 69.9164C184.788 69.5673 184.912 69.2005 185.043 68.8219C185.563 67.2599 185.936 65.9819 185.877 65.9582C185.818 65.9345 185.35 67.1889 184.83 68.7449C184.705 69.1295 184.587 69.4963 184.469 69.8454C184.421 70.0111 184.338 70.1945 184.409 70.4075C184.445 70.514 184.546 70.585 184.628 70.6087C184.711 70.6323 184.788 70.6323 184.853 70.6323C185.392 70.6442 185.717 70.6323 185.717 70.6028Z" fill="#263238"/>
<path d="M187.422 71.1353C187.954 70.7862 185.955 71.9932 184.901 71.9755C184.901 71.9755 185.54 72.9517 186.611 72.508C187.729 72.0465 187.422 71.1353 187.422 71.1353Z" fill="white"/>
<path d="M185.463 77.1999C185.463 77.1999 187.995 77.2709 190.48 75.5551C190.48 75.5551 189.303 78.3714 185.528 78.1465L185.463 77.1999Z" fill="#A36957"/>
<path d="M201.651 66.6801C201.615 66.4079 201.58 65.9938 201.538 65.5619C201.479 64.9643 201.414 64.3312 201.331 63.994C199.414 55.9 192.545 54.2789 191.178 54.2552C189.717 54.2315 187.167 53.3618 183.368 57.2727C179.57 61.1895 181.54 65.5027 181.54 65.5027L182.179 64.9229L187.711 63.562C187.303 62.0296 187.977 60.1482 188.356 59.2725L188.392 59.237C189.391 65.0412 195.586 65.7453 195.586 65.7453L195 81.1344C201.1 79.9097 201.586 70.0112 201.568 66.6624L201.651 66.6801Z" fill="#263238"/>
<path d="M204.047 135.722C204.053 135.645 204.065 135.567 204.071 135.52C204.065 135.556 204.059 135.621 204.047 135.722Z" fill="#FFCEBB"/>
<path d="M204.029 135.899C204.035 135.828 204.041 135.768 204.047 135.721C204.035 135.816 204.029 135.899 204.029 135.899Z" fill="#FFCEBB"/>
<path d="M211.254 229.523C211.254 229.523 196.971 181.374 196.699 179.835C196.45 178.445 203.065 144.667 204.029 135.904L183.948 136.094C183.948 136.094 183.948 136.147 183.943 136.242L174.239 136.508L179.097 232.712L189.729 232.984L189.569 201.36C194.835 216.802 201.497 234.245 201.497 234.245L211.254 229.523Z" fill="#FFCEBB"/>
<path d="M204.071 135.503C204.078 135.484 204.078 135.484 204.071 135.503V135.503Z" fill="#FFCEBB"/>
<path d="M183.179 177.67C183.209 177.676 183.149 178.043 183.12 178.723C183.084 179.397 183.072 180.374 183.173 181.581C183.274 182.782 183.493 184.208 183.883 185.752C184.25 187.302 184.924 188.923 185.587 190.657C186.912 194.112 188.09 197.248 188.93 199.52C189.332 200.626 189.664 201.537 189.912 202.218C190.137 202.857 190.255 203.212 190.232 203.224C190.214 203.23 190.06 202.886 189.8 202.259C189.528 201.585 189.167 200.685 188.729 199.597C187.835 197.343 186.622 194.219 185.303 190.763C184.972 189.899 184.652 189.053 184.345 188.237C184.043 187.414 183.806 186.598 183.611 185.817C183.232 184.249 183.037 182.805 182.96 181.593C182.883 180.374 182.93 179.386 183.007 178.711C183.043 178.374 183.084 178.114 183.12 177.936C183.143 177.759 183.167 177.664 183.179 177.67Z" fill="#A36957"/>
<path d="M189.622 212.844C189.64 212.554 189.806 202.117 189.806 202.117C189.806 202.117 186.309 192.45 186.22 192.739C186.132 193.041 189.622 212.844 189.622 212.844Z" fill="#A36957"/>
<path d="M201.857 234.073L211.253 229.523L212.342 231.541L209.022 233.416C206.756 234.653 199.053 238.682 197.231 239.013C195.201 239.38 201.857 234.073 201.857 234.073Z" fill="#4643D2"/>
<path d="M196.805 238.735C196.764 238.664 200.195 236.966 204.467 234.949C208.745 232.925 212.242 231.345 212.283 231.416C212.324 231.487 208.899 233.185 204.621 235.203C200.349 237.226 196.846 238.806 196.805 238.735Z" fill="#263238"/>
<path d="M209.893 232.623C209.845 232.617 209.828 232.446 209.851 232.162C209.875 231.884 209.934 231.481 210.153 231.079C210.372 230.671 210.739 230.381 211.046 230.257C211.36 230.132 211.573 230.162 211.579 230.192C211.585 230.239 211.401 230.286 211.165 230.434C210.928 230.582 210.644 230.848 210.455 231.203C210.26 231.564 210.165 231.931 210.088 232.197C210.005 232.458 209.94 232.629 209.893 232.623Z" fill="#263238"/>
<path d="M201.349 234.505C201.337 234.594 201.639 234.706 202.012 234.824C202.384 234.943 202.698 235.031 202.751 234.96C202.799 234.889 202.538 234.665 202.13 234.534C201.728 234.398 201.361 234.422 201.349 234.505Z" fill="#263238"/>
<path d="M200.704 235.014C200.68 235.096 200.952 235.256 201.319 235.375C201.68 235.487 202.011 235.516 202.047 235.44C202.088 235.363 201.816 235.203 201.431 235.079C201.059 234.96 200.727 234.931 200.704 235.014Z" fill="#263238"/>
<path d="M200.177 235.475C200.142 235.552 200.337 235.706 200.603 235.842C200.869 235.978 201.112 236.055 201.171 235.984C201.23 235.919 201.065 235.718 200.775 235.57C200.491 235.422 200.213 235.398 200.177 235.475Z" fill="#263238"/>
<path d="M201.397 234.582C201.438 234.576 201.45 234.197 201.296 233.6C201.214 233.304 201.078 232.943 200.805 232.594C200.669 232.422 200.504 232.251 200.297 232.103C200.196 232.032 200.084 231.961 199.936 231.908C199.788 231.854 199.598 231.837 199.421 231.913C199.036 232.109 199.107 232.517 199.243 232.718C199.385 232.931 199.533 233.085 199.681 233.245C199.983 233.552 200.285 233.801 200.557 233.996C201.095 234.381 201.468 234.558 201.492 234.529C201.521 234.493 201.202 234.251 200.717 233.836C200.474 233.629 200.202 233.375 199.93 233.067C199.8 232.919 199.646 232.742 199.545 232.582C199.439 232.428 199.468 232.239 199.581 232.197C199.705 232.138 199.906 232.221 200.084 232.345C200.261 232.464 200.415 232.612 200.539 232.76C200.794 233.061 200.947 233.387 201.054 233.659C201.267 234.221 201.338 234.594 201.397 234.582Z" fill="#263238"/>
<path d="M201.396 234.404C201.42 234.375 201.094 234.12 200.467 233.83C200.154 233.688 199.757 233.546 199.296 233.464C199.065 233.422 198.816 233.398 198.55 233.404C198.42 233.41 198.284 233.416 198.13 233.452C198.053 233.475 197.976 233.499 197.893 233.564C197.811 233.623 197.757 233.748 197.769 233.842C197.846 234.203 198.112 234.333 198.337 234.469C198.574 234.594 198.822 234.659 199.059 234.7C199.532 234.771 199.947 234.759 200.302 234.742C201.017 234.694 201.402 234.452 201.372 234.416C201.349 234.381 200.964 234.534 200.29 234.523C199.958 234.517 199.544 234.499 199.124 234.422C198.917 234.381 198.704 234.316 198.515 234.209C198.331 234.12 198.136 233.943 198.124 233.824C198.071 233.789 198.337 233.694 198.568 233.706C198.799 233.7 199.029 233.712 199.242 233.748C199.674 233.807 200.053 233.919 200.367 234.032C200.994 234.256 201.367 234.44 201.396 234.404Z" fill="#263238"/>
<path d="M202.041 233.972C202.1 234.061 204.278 233.227 206.816 231.978C209.354 230.736 211.313 229.6 211.248 229.517C211.177 229.428 209.112 230.422 206.585 231.665C204.053 232.907 201.982 233.884 202.041 233.972Z" fill="#263238"/>
<path d="M180.291 232.594L189.716 232.659L189.563 235.392L188.947 235.398C186.208 235.392 175.037 235.197 173.239 234.623C171.239 233.984 180.291 232.594 180.291 232.594Z" fill="#4643D2"/>
<path d="M173.037 234.191C173.043 234.108 176.747 234.25 181.303 234.511C185.864 234.765 189.556 235.043 189.55 235.12C189.544 235.203 185.847 235.061 181.285 234.801C176.723 234.546 173.031 234.268 173.037 234.191Z" fill="#263238"/>
<path d="M186.574 234.919C186.539 234.895 186.627 234.736 186.817 234.505C187.006 234.28 187.302 233.967 187.74 233.724C188.183 233.481 188.674 233.404 189.024 233.446C189.373 233.487 189.544 233.612 189.526 233.641C189.509 233.683 189.313 233.635 189.018 233.653C188.722 233.665 188.314 233.759 187.929 233.972C187.538 234.185 187.237 234.452 187.006 234.641C186.763 234.836 186.61 234.949 186.574 234.919Z" fill="#263238"/>
<path d="M179.587 232.718C179.521 232.783 179.723 233.026 179.977 233.298C180.231 233.576 180.45 233.795 180.545 233.759C180.634 233.724 180.539 233.41 180.261 233.109C179.977 232.807 179.646 232.659 179.587 232.718Z" fill="#263238"/>
<path d="M178.712 232.854C178.641 232.913 178.783 233.18 179.031 233.446C179.28 233.712 179.546 233.89 179.629 233.842C179.712 233.795 179.57 233.529 179.309 233.251C179.055 232.973 178.783 232.795 178.712 232.854Z" fill="#263238"/>
<path d="M177.966 232.996C177.883 233.049 177.966 233.268 178.12 233.505C178.268 233.742 178.44 233.925 178.534 233.89C178.629 233.86 178.599 233.611 178.44 233.357C178.274 233.103 178.049 232.949 177.966 232.996Z" fill="#263238"/>
<path d="M179.574 232.807C179.61 232.819 179.852 232.511 180.083 231.925C180.196 231.635 180.29 231.263 180.267 230.843C180.255 230.63 180.213 230.411 180.119 230.192C180.071 230.085 180.018 229.967 179.923 229.854C179.823 229.742 179.669 229.636 179.468 229.624C179.012 229.612 178.829 229.991 178.823 230.221C178.817 230.47 178.853 230.665 178.888 230.872C178.965 231.274 179.083 231.629 179.196 231.913C179.432 232.487 179.651 232.813 179.699 232.801C179.746 232.783 179.616 232.428 179.444 231.848C179.361 231.558 179.273 231.215 179.219 230.831C179.196 230.641 179.166 230.422 179.178 230.239C179.178 230.062 179.32 229.914 179.438 229.925C179.58 229.931 179.71 230.097 179.787 230.286C179.87 230.47 179.912 230.665 179.935 230.854C179.977 231.227 179.912 231.576 179.841 231.86C179.681 232.44 179.521 232.789 179.574 232.807Z" fill="#263238"/>
<path d="M179.688 232.653C179.729 232.635 179.599 232.268 179.22 231.736C179.031 231.47 178.771 231.168 178.416 230.878C178.238 230.736 178.031 230.6 177.8 230.482C177.682 230.422 177.558 230.363 177.404 230.328C177.327 230.31 177.238 230.298 177.126 230.316C177.019 230.328 176.895 230.405 176.848 230.493C176.694 230.837 176.848 231.073 176.966 231.286C177.096 231.499 177.274 231.677 177.457 231.819C177.83 232.103 178.197 232.286 178.522 232.434C179.173 232.73 179.664 232.7 179.658 232.659C179.658 232.618 179.232 232.57 178.647 232.245C178.357 232.085 178.008 231.878 177.688 231.618C177.528 231.482 177.386 231.334 177.28 231.156C177.179 230.996 177.108 230.754 177.167 230.647C177.144 230.594 177.434 230.641 177.629 230.754C177.836 230.854 178.025 230.973 178.197 231.103C178.54 231.357 178.8 231.629 179.013 231.866C179.427 232.339 179.64 232.677 179.688 232.653Z" fill="#263238"/>
<path d="M180.516 232.594C180.51 232.677 182.533 232.866 185.042 232.896C187.55 232.925 189.574 232.819 189.574 232.736C189.574 232.647 187.545 232.612 185.048 232.588C182.545 232.558 180.522 232.505 180.516 232.594Z" fill="#263238"/>
<path d="M209.117 102.677C209.117 102.677 209.508 101.239 208.413 92.3878C207.934 88.536 205.313 86.1517 202.509 84.6843V84.6311L202.266 84.5601C198.692 82.7674 194.912 82.4183 194.912 82.4183L184.978 82.2585C184.978 82.2585 177.706 81.3533 173.073 86.3942C168.441 91.4352 165.281 94.4113 165.281 94.4113L172.683 103.304L174.665 101.34C174.665 101.34 174.458 105.434 175.813 107.812C177.168 110.197 179.008 113.445 179.008 113.445L176.89 123.373C175.576 127.154 171.245 140.981 172.943 154.678C175.044 171.641 175.381 176.599 175.381 176.599L199.367 179.877C199.367 179.877 208.952 143.963 205.668 129.698C203.414 119.894 201.692 120.356 201.136 118.232L201.757 102.967L209.117 102.677Z" fill="#4643D2"/>
<path d="M176.553 98.0439C176.624 98.0854 176.24 98.8723 175.689 99.8012C175.139 100.73 174.636 101.446 174.559 101.405C174.488 101.363 174.873 100.576 175.423 99.6473C175.973 98.7184 176.476 98.0025 176.553 98.0439Z" fill="#263238"/>
<path d="M198.047 116.592C198.047 116.616 197.775 116.669 197.284 116.746C196.787 116.829 196.071 116.918 195.178 117.013C193.397 117.196 190.918 117.344 188.178 117.302C185.439 117.249 182.966 117.013 181.191 116.764C180.303 116.64 179.587 116.521 179.096 116.427C178.605 116.332 178.333 116.267 178.339 116.249C178.345 116.226 178.617 116.249 179.114 116.308C179.67 116.374 180.374 116.456 181.22 116.551C182.995 116.746 185.457 116.947 188.184 116.995C190.912 117.042 193.379 116.93 195.16 116.8C196.006 116.734 196.71 116.675 197.272 116.634C197.769 116.587 198.047 116.569 198.047 116.592Z" fill="#263238"/>
<path d="M206.136 143.472C206.148 143.472 206.113 143.637 206.042 143.945C205.959 144.282 205.852 144.726 205.716 145.288C205.639 145.584 205.562 145.903 205.474 146.258C205.373 146.608 205.243 146.986 205.113 147.389C204.84 148.193 204.574 149.134 204.136 150.116C203.935 150.613 203.722 151.134 203.497 151.678C203.273 152.216 202.983 152.755 202.71 153.329C202.184 154.483 201.486 155.636 200.782 156.873C199.285 159.287 197.445 161.825 195.232 164.257C192.995 166.659 190.617 168.706 188.333 170.398C187.162 171.203 186.067 171.996 184.961 172.611C184.416 172.931 183.902 173.262 183.381 173.534C182.86 173.8 182.357 174.055 181.878 174.297C180.931 174.812 180.02 175.149 179.239 175.492C178.843 175.658 178.482 175.818 178.139 175.948C177.796 176.066 177.482 176.173 177.192 176.268C176.642 176.451 176.21 176.593 175.879 176.705C175.577 176.8 175.417 176.847 175.417 176.836C175.411 176.824 175.565 176.759 175.861 176.646C176.18 176.522 176.612 176.362 177.151 176.155C177.435 176.049 177.748 175.936 178.086 175.812C178.423 175.676 178.778 175.504 179.168 175.333C179.937 174.978 180.843 174.623 181.778 174.102C182.251 173.854 182.748 173.593 183.263 173.321C183.777 173.049 184.286 172.712 184.825 172.392C185.919 171.771 187.002 170.972 188.162 170.167C190.422 168.475 192.776 166.434 195.001 164.05C197.196 161.636 199.03 159.121 200.533 156.731C201.243 155.506 201.941 154.364 202.474 153.222C202.746 152.66 203.042 152.128 203.273 151.589C203.497 151.051 203.716 150.536 203.923 150.045C204.367 149.069 204.645 148.14 204.935 147.341C205.071 146.939 205.213 146.572 205.32 146.223C205.414 145.874 205.503 145.554 205.586 145.264C205.746 144.708 205.87 144.27 205.965 143.939C206.071 143.626 206.124 143.472 206.136 143.472Z" fill="#263238"/>
<path d="M208.739 97.5055C208.745 97.5173 208.614 97.5883 208.366 97.7244C208.117 97.8546 207.745 98.0498 207.26 98.2805C206.289 98.7302 204.857 99.4225 202.923 99.7124C201.958 99.8425 200.87 99.8366 199.757 99.5349C199.201 99.387 198.639 99.1562 198.118 98.819C197.592 98.4876 197.13 98.0439 196.716 97.5469C195.894 96.5411 195.296 95.3282 194.592 94.1508C193.9 92.9911 193 91.79 191.634 91.3344C190.273 90.867 188.829 91.222 187.522 91.5889C186.202 91.9675 184.907 92.4053 183.599 92.4349C182.291 92.4823 181.067 92.0385 180.12 91.3818C179.167 90.725 178.481 89.8435 178.097 88.9382C177.706 88.033 177.617 87.1277 177.659 86.3586C177.706 85.5835 177.895 84.9327 178.102 84.4357C178.534 83.4299 178.996 83.0216 178.996 83.0216C179.031 83.0453 178.605 83.4831 178.215 84.483C178.026 84.98 177.866 85.619 177.83 86.3704C177.807 87.1218 177.907 87.9916 178.298 88.8554C178.676 89.7133 179.345 90.5535 180.262 91.1747C181.173 91.7959 182.345 92.2101 183.587 92.1568C184.836 92.1214 186.108 91.6894 187.439 91.3049C188.107 91.1155 188.8 90.9321 189.522 90.8493C190.243 90.7665 191.012 90.796 191.734 91.0504C192.456 91.2989 193.089 91.7427 193.592 92.2752C194.101 92.8077 194.497 93.4053 194.852 94.0028C195.562 95.198 196.148 96.405 196.935 97.3753C197.71 98.3515 198.746 99.0142 199.822 99.2923C200.893 99.594 201.952 99.6118 202.893 99.4994C204.786 99.245 206.224 98.5882 207.206 98.174C207.674 97.967 208.052 97.8013 208.336 97.6711C208.597 97.5528 208.739 97.4936 208.739 97.5055Z" fill="white"/>
<path d="M194.651 118.462C194.61 118.439 194.947 118.16 195.071 117.462C195.208 116.788 195 115.687 194.148 114.77C193.734 114.303 193.125 113.966 192.439 113.705C191.746 113.451 190.959 113.309 190.131 113.202C189.297 113.09 188.409 113.025 187.492 112.83C186.587 112.628 185.634 112.321 184.836 111.688C184.439 111.374 184.102 110.984 183.854 110.564C183.605 110.138 183.428 109.694 183.268 109.256C182.96 108.38 182.723 107.528 182.303 106.818C181.469 105.386 179.931 104.712 178.706 104.688C177.446 104.659 176.487 105.173 175.937 105.588C175.375 106.014 175.144 106.351 175.121 106.327C175.115 106.321 175.162 106.238 175.28 106.085C175.399 105.937 175.582 105.724 175.866 105.493C176.416 105.043 177.387 104.475 178.718 104.469C180.014 104.463 181.647 105.144 182.558 106.67C183.007 107.422 183.256 108.292 183.564 109.149C183.865 110.007 184.28 110.865 185.037 111.439C185.776 112.025 186.688 112.327 187.563 112.528C188.451 112.723 189.332 112.8 190.172 112.918C191.841 113.125 193.427 113.605 194.314 114.622C195.196 115.616 195.367 116.782 195.19 117.486C195.113 117.847 194.953 118.095 194.852 118.249C194.728 118.397 194.657 118.468 194.651 118.462Z" fill="white"/>
<path d="M203.946 160.482C203.946 160.529 203.094 160.299 201.58 160.583C200.828 160.713 199.929 160.979 198.876 161.292C197.835 161.594 196.61 161.949 195.213 161.949C193.829 161.979 192.291 161.73 190.788 161.085C189.291 160.441 187.812 159.37 186.776 157.831C185.741 156.293 185.262 154.287 185.492 152.287C185.611 151.288 185.907 150.288 186.404 149.371C186.895 148.453 187.634 147.643 188.492 147.022C189.332 146.4 190.244 145.844 190.687 144.974C190.906 144.548 190.965 144.057 190.882 143.59C190.806 143.117 190.616 142.661 190.409 142.223C189.989 141.354 189.498 140.442 189.421 139.454C189.315 138.478 189.486 137.514 189.835 136.65C190.528 134.898 191.977 133.68 193.468 133.023C194.971 132.331 196.533 132.206 197.906 132.23C199.284 132.242 200.527 132.301 201.592 132.124C202.657 131.952 203.532 131.567 204.148 131.124C204.769 130.68 205.13 130.195 205.313 129.84C205.502 129.485 205.55 129.272 205.568 129.278C205.568 129.278 205.544 129.497 205.366 129.863C205.195 130.23 204.84 130.745 204.219 131.212C203.597 131.68 202.71 132.094 201.621 132.283C200.532 132.479 199.272 132.437 197.906 132.437C196.545 132.431 195.024 132.567 193.575 133.248C192.137 133.899 190.752 135.076 190.101 136.75C189.77 137.573 189.616 138.496 189.717 139.419C189.794 140.354 190.255 141.194 190.687 142.093C190.9 142.543 191.101 143.022 191.19 143.543C191.279 144.063 191.214 144.631 190.965 145.116C190.457 146.099 189.498 146.661 188.676 147.276C186.972 148.465 186.001 150.4 185.788 152.329C185.563 154.258 186.019 156.192 187.007 157.677C188.001 159.174 189.427 160.216 190.882 160.861C192.344 161.5 193.847 161.76 195.202 161.742C196.568 161.754 197.769 161.423 198.823 161.139C199.87 160.843 200.787 160.594 201.55 160.476C202.313 160.352 202.923 160.352 203.325 160.393C203.739 160.423 203.946 160.482 203.946 160.482Z" fill="white"/>
<path d="M195.574 179.35C195.55 179.35 195.604 178.936 195.621 178.196C195.616 177.469 195.633 176.35 195.083 175.167C194.811 174.587 194.326 174.019 193.645 173.712C192.965 173.38 192.125 173.357 191.255 173.357C190.385 173.351 189.415 173.41 188.48 173.013C188.019 172.812 187.604 172.481 187.279 172.085C186.954 171.688 186.699 171.238 186.463 170.789C186.007 169.872 185.581 168.996 184.948 168.298C184.333 167.588 183.599 167.038 182.842 166.623C181.315 165.795 179.688 165.635 178.398 165.831C177.097 166.008 176.114 166.487 175.481 166.86C174.848 167.245 174.546 167.523 174.523 167.499C174.517 167.493 174.588 167.416 174.73 167.286C174.878 167.156 175.103 166.967 175.41 166.76C176.032 166.345 177.02 165.831 178.357 165.618C179.676 165.387 181.374 165.529 182.966 166.375C183.753 166.795 184.522 167.363 185.167 168.103C185.486 168.469 185.782 168.878 186.031 169.31C186.279 169.747 186.498 170.203 186.729 170.647C187.178 171.54 187.741 172.374 188.593 172.735C189.439 173.102 190.373 173.061 191.249 173.073C192.125 173.084 193.006 173.114 193.746 173.481C194.485 173.83 195 174.457 195.272 175.078C195.823 176.339 195.763 177.469 195.734 178.208C195.71 178.581 195.669 178.871 195.633 179.06C195.61 179.255 195.586 179.356 195.574 179.35Z" fill="white"/>
<path d="M181.385 130.426C181.409 130.437 181.214 130.792 180.9 131.437C180.604 132.082 180.107 133.041 180.018 134.313C179.977 134.94 180.107 135.638 180.45 136.295C180.782 136.963 181.302 137.585 181.799 138.289C182.841 139.673 183.468 141.649 183.136 143.661C182.829 145.685 181.444 147.323 179.882 148.093C179.095 148.483 178.261 148.678 177.48 148.678C176.699 148.678 175.977 148.489 175.38 148.211C174.167 147.661 173.445 146.797 173.084 146.17C172.901 145.85 172.8 145.584 172.741 145.401C172.688 145.217 172.664 145.117 172.676 145.117C172.705 145.105 172.806 145.501 173.191 146.105C173.575 146.696 174.297 147.507 175.468 148.004C176.048 148.258 176.735 148.424 177.48 148.412C178.22 148.4 179.007 148.211 179.752 147.832C181.237 147.087 182.539 145.531 182.829 143.608C183.142 141.691 182.557 139.803 181.563 138.449C181.077 137.756 180.557 137.111 180.22 136.407C179.865 135.709 179.746 134.958 179.799 134.295C179.924 132.964 180.462 132.017 180.793 131.378C180.971 131.059 181.113 130.816 181.214 130.656C181.314 130.503 181.373 130.42 181.385 130.426Z" fill="white"/>
<path d="M199.212 110.569C199.188 110.569 199.165 110.321 199.141 109.865C199.117 109.345 199.082 108.706 199.046 107.942C198.963 106.25 198.857 104.038 198.739 101.594C198.62 99.1149 198.543 96.8666 198.52 95.2395C198.508 94.423 198.508 93.7663 198.52 93.3107C198.531 92.8551 198.543 92.6066 198.567 92.6007C198.591 92.6007 198.614 92.8492 198.638 93.3048C198.662 93.8254 198.697 94.4644 198.733 95.2277C198.815 96.9198 198.922 99.1326 199.04 101.576C199.159 104.055 199.236 106.304 199.259 107.931C199.271 108.747 199.271 109.404 199.259 109.859C199.247 110.321 199.23 110.569 199.212 110.569Z" fill="#263238"/>
<path d="M199.001 103.073C199.001 103.073 199.995 115.013 198.853 115.812C192.528 120.231 184.115 122.012 181.109 122.533C180.689 122.385 180.204 122.196 179.642 121.947C179.157 121.734 178.713 121.432 178.328 121.072C177.855 120.628 177.257 120.012 177.027 119.575C176.743 119.03 175.968 119.113 175.891 119.663C175.814 120.214 176.565 121.728 178.103 122.935C179.642 124.142 176.612 124.213 175.506 124.255C174.4 124.296 170.992 124.598 170.743 124.959C170.376 125.485 170.867 125.988 171.968 125.917C173.08 125.846 176.394 125.876 176.394 126.473C176.399 127.065 170.773 127.207 170.773 127.207C170.773 127.207 169.56 127.041 169.542 127.728C169.513 128.97 175.476 128.367 176.039 128.296C176.435 128.248 176.459 128.893 176.033 128.923C175.595 128.952 170.412 128.935 170.37 130.201C170.335 131.171 175.281 129.751 176.364 130.367C177.447 130.982 172.5 131.053 172.506 131.982C172.506 132.325 172.554 132.585 175.388 132.124C176.76 131.899 179.192 131.201 181.375 130.526L181.381 130.556C181.381 130.556 210.793 128.035 210.053 114.77C209.556 105.795 209.716 107.452 209.166 102.736" fill="#FFCEBB"/>
</svg>
